Fira Sans-Bold Condensed Italic.ufo
<glyph name="numbersign" format="1">
  <advance width="490"/>
  <unicode hex="0023"/>
  <outline>
    <contour>
      <point x="368" y="679" type="line"/>
      <point x="201" y="0" type="line"/>
      <point x="344" y="0" type="line"/>
      <point x="512" y="679" type="line"/>
    </contour>
    <contour>
      <point x="170" y="679" type="line"/>
      <point x="4" y="0" type="line"/>
      <point x="146" y="0" type="line"/>
      <point x="315" y="679" type="line"/>
    </contour>
    <contour>
      <point x="10" y="255" type="line"/>
      <point x="-7" y="136" type="line"/>
      <point x="430" y="136" type="line"/>
      <point x="447" y="255" type="line"/>
    </contour>
    <contour>
      <point x="82" y="556" type="line"/>
      <point x="66" y="437" type="line"/>
      <point x="503" y="437" type="line"/>
      <point x="519" y="556" type="line"/>
    </contour>
  </outline>
</glyph>
<glyph name="dollar" format="1">
  <advance width="462"/>
  <unicode hex="0024"/>
  <outline>
    <contour>
      <point x="131" y="-1" type="line"/>
      <point x="108" y="-164" type="line"/>
      <point x="230" y="-164" type="line"/>
      <point x="254" y="5" type="line"/>
    </contour>
    <contour>
      <point x="257" y="833" type="line"/>
      <point x="234" y="672" type="line"/>
      <point x="357" y="677" type="line"/>
      <point x="380" y="833" type="line"/>
    </contour>
    <contour>
      <point x="152" y="690"/>
      <point x="42" y="596"/>
      <point x="42" y="458" type="curve" smooth="yes"/>
      <point x="42" y="378"/>
      <point x="82" y="333"/>
      <point x="170" y="290" type="curve" smooth="yes"/>
      <point x="233" y="259"/>
      <point x="253" y="236"/>
      <point x="253" y="203" type="curve" smooth="yes"/>
      <point x="253" y="160"/>
      <point x="229" y="125"/>
      <point x="179" y="125" type="curve" smooth="yes"/>
      <point x="135" y="125"/>
      <point x="101" y="148"/>
      <point x="65" y="185" type="curve"/>
      <point x="-33" y="89" type="line"/>
      <point x="8" y="36"/>
      <point x="69" y="-10"/>
      <point x="180" y="-10" type="curve" smooth="yes"/>
      <point x="336" y="-10"/>
      <point x="447" y="88"/>
      <point x="447" y="240" type="curve" smooth="yes"/>
      <point x="447" y="330"/>
      <point x="402" y="376"/>
      <point x="315" y="421" type="curve" smooth="yes"/>
      <point x="256" y="451"/>
      <point x="235" y="468"/>
      <point x="235" y="497" type="curve" smooth="yes"/>
      <point x="235" y="530"/>
      <point x="256" y="556"/>
      <point x="299" y="556" type="curve" smooth="yes"/>
      <point x="335" y="556"/>
      <point x="367" y="539"/>
      <point x="398" y="507" type="curve"/>
      <point x="488" y="600" type="line"/>
      <point x="443" y="657"/>
      <point x="382" y="690"/>
      <point x="290" y="690" type="curve" smooth="yes"/>
    </contour>
  </outline>
</glyph>
<glyph name="percent" format="1">
  <advance width="737"/>
  <unicode hex="0025"/>
  <outline>
    <contour>
      <point x="667" y="663" type="line"/>
      <point x="189" y="-44" type="line"/>
      <point x="95" y="17" type="line"/>
      <point x="571" y="724" type="line"/>
    </contour>
    <contour>
      <point x="639" y="-20"/>
      <point x="707" y="85"/>
      <point x="707" y="205" type="curve" smooth="yes"/>
      <point x="707" y="305"/>
      <point x="649" y="352"/>
      <point x="572" y="352" type="curve" smooth="yes"/>
      <point x="457" y="352"/>
      <point x="388" y="248"/>
      <point x="388" y="128" type="curve" smooth="yes"/>
      <point x="388" y="27"/>
      <point x="448" y="-20"/>
      <point x="525" y="-20" type="curve" smooth="yes"/>
    </contour>
    <contour>
      <point x="517" y="85"/>
      <point x="508" y="96"/>
      <point x="508" y="128" type="curve" smooth="yes"/>
      <point x="508" y="181"/>
      <point x="521" y="247"/>
      <point x="561" y="247" type="curve" smooth="yes"/>
      <point x="578" y="247"/>
      <point x="588" y="235"/>
      <point x="588" y="205" type="curve" smooth="yes"/>
      <point x="588" y="155"/>
      <point x="572" y="85"/>
      <point x="535" y="85" type="curve" smooth="yes"/>
    </contour>
    <contour>
      <point x="301" y="324"/>
      <point x="369" y="429"/>
      <point x="369" y="549" type="curve" smooth="yes"/>
      <point x="369" y="649"/>
      <point x="311" y="696"/>
      <point x="234" y="696" type="curve" smooth="yes"/>
      <point x="119" y="696"/>
      <point x="50" y="592"/>
      <point x="50" y="472" type="curve" smooth="yes"/>
      <point x="50" y="371"/>
      <point x="110" y="324"/>
      <point x="187" y="324" type="curve" smooth="yes"/>
    </contour>
    <contour>
      <point x="179" y="429"/>
      <point x="170" y="440"/>
      <point x="170" y="472" type="curve" smooth="yes"/>
      <point x="170" y="525"/>
      <point x="183" y="591"/>
      <point x="223" y="591" type="curve" smooth="yes"/>
      <point x="240" y="591"/>
      <point x="250" y="579"/>
      <point x="250" y="549" type="curve" smooth="yes"/>
      <point x="250" y="499"/>
      <point x="234" y="429"/>
      <point x="197" y="429" type="curve" smooth="yes"/>
    </contour>
  </outline>
</glyph>
<glyph name="ampersand" format="1">
  <advance width="671"/>
  <unicode hex="0026"/>
  <outline>
    <contour>
      <point x="201" y="716"/>
      <point x="107" y="636"/>
      <point x="107" y="508" type="curve" smooth="yes"/>
      <point x="107" y="466"/>
      <point x="121" y="428"/>
      <point x="167" y="372" type="curve"/>
      <point x="81" y="313"/>
      <point x="26" y="250"/>
      <point x="26" y="150" type="curve" smooth="yes"/>
      <point x="26" y="50"/>
      <point x="102" y="-20"/>
      <point x="217" y="-20" type="curve" smooth="yes"/>
      <point x="283" y="-20"/>
      <point x="341" y="-2"/>
      <point x="405" y="46" type="curve"/>
      <point x="451" y="-20" type="line"/>
      <point x="620" y="48" type="line"/>
      <point x="530" y="155" type="line"/>
      <point x="567" y="204"/>
      <point x="601" y="263"/>
      <point x="631" y="336" type="curve"/>
      <point x="496" y="372" type="line"/>
      <point x="480" y="321"/>
      <point x="468" y="285"/>
      <point x="452" y="249" type="curve"/>
      <point x="383" y="355" type="line"/>
      <point x="459" y="412"/>
      <point x="515" y="475"/>
      <point x="515" y="566" type="curve" smooth="yes"/>
      <point x="515" y="653"/>
      <point x="451" y="716"/>
      <point x="333" y="716" type="curve" smooth="yes"/>
    </contour>
    <contour>
      <point x="334" y="135" type="line"/>
      <point x="313" y="119"/>
      <point x="293" y="111"/>
      <point x="267" y="111" type="curve" smooth="yes"/>
      <point x="237" y="111"/>
      <point x="220" y="129"/>
      <point x="220" y="165" type="curve" smooth="yes"/>
      <point x="220" y="202"/>
      <point x="230" y="235"/>
      <point x="252" y="264" type="curve"/>
    </contour>
    <contour>
      <point x="336" y="597"/>
      <point x="342" y="588"/>
      <point x="342" y="568" type="curve" smooth="yes"/>
      <point x="342" y="520"/>
      <point x="327" y="486"/>
      <point x="298" y="447" type="curve"/>
      <point x="285" y="473"/>
      <point x="280" y="489"/>
      <point x="280" y="513" type="curve" smooth="yes"/>
      <point x="280" y="543"/>
      <point x="289" y="597"/>
      <point x="321" y="597" type="curve" smooth="yes"/>
    </contour>
  </outline>
</glyph>
<glyph name="quotesingle" format="1">
  <advance width="224"/>
  <unicode hex="0027"/>
  <outline>
    <contour>
      <point x="189" y="406" type="line"/>
      <point x="249" y="696" type="line"/>
      <point x="95" y="696" type="line"/>
      <point x="73" y="406" type="line"/>
    </contour>
  </outline>
</glyph>
<glyph name="parenleft" format="1">
  <advance width="284"/>
  <unicode hex="0028"/>
  <outline>
    <contour>
      <point x="91" y="661"/>
      <point x="4" y="487"/>
      <point x="4" y="218" type="curve" smooth="yes"/>
      <point x="4" y="56"/>
      <point x="52" y="-54"/>
      <point x="102" y="-164" type="curve"/>
      <point x="234" y="-90" type="line"/>
      <point x="200" y="-8"/>
      <point x="184" y="75"/>
      <point x="184" y="187" type="curve" smooth="yes"/>
      <point x="184" y="385"/>
      <point x="236" y="618"/>
      <point x="356" y="783" type="curve"/>
      <point x="244" y="866" type="line"/>
    </contour>
  </outline>
</glyph>
<glyph name="parenright" format="1">
  <advance width="287"/>
  <unicode hex="0029"/>
  <outline>
    <contour>
      <point x="74" y="790" type="line"/>
      <point x="108" y="708"/>
      <point x="124" y="623"/>
      <point x="124" y="511" type="curve" smooth="yes"/>
      <point x="124" y="311"/>
      <point x="75" y="86"/>
      <point x="-46" y="-83" type="curve"/>
      <point x="64" y="-166" type="line"/>
      <point x="217" y="36"/>
      <point x="306" y="215"/>
      <point x="306" y="481" type="curve" smooth="yes"/>
      <point x="306" y="644"/>
      <point x="257" y="754"/>
      <point x="207" y="864" type="curve"/>
    </contour>
  </outline>
</glyph>
<glyph name="asterisk" format="1">
  <advance width="404"/>
  <unicode hex="002A"/>
  <outline>
    <contour>
      <point x="220" y="453" type="line"/>
      <point x="250" y="316" type="line"/>
      <point x="392" y="399" type="line"/>
      <point x="307" y="515" type="line"/>
      <point x="235" y="533" type="line"/>
    </contour>
    <contour>
      <point x="185" y="744" type="line"/>
      <point x="194" y="590" type="line"/>
      <point x="235" y="533" type="line"/>
      <point x="295" y="589" type="line"/>
      <point x="345" y="744" type="line"/>
    </contour>
    <contour>
      <point x="287" y="596" type="line"/>
      <point x="235" y="533" type="line"/>
      <point x="302" y="500" type="line"/>
      <point x="435" y="521" type="line"/>
      <point x="402" y="663" type="line"/>
    </contour>
    <contour>
      <point x="41" y="522" type="line"/>
      <point x="158" y="502" type="line"/>
      <point x="235" y="533" type="line"/>
      <point x="204" y="599" type="line"/>
      <point x="100" y="663" type="line"/>
    </contour>
    <contour>
      <point x="154" y="515" type="line"/>
      <point x="45" y="398" type="line"/>
      <point x="167" y="315" type="line"/>
      <point x="232" y="453" type="line"/>
      <point x="235" y="533" type="line"/>
    </contour>
  </outline>
</glyph>
<glyph name="plus" format="1">
  <advance width="462"/>
  <unicode hex="002B"/>
  <outline>
    <contour>
      <point x="202" y="563" type="line"/>
      <point x="180" y="404" type="line"/>
      <point x="50" y="404" type="line"/>
      <point x="30" y="260" type="line"/>
      <point x="157" y="260" type="line"/>
      <point x="134" y="101" type="line"/>
      <point x="280" y="101" type="line"/>
      <point x="304" y="260" type="line"/>
      <point x="430" y="260" type="line"/>
      <point x="450" y="404" type="line"/>
      <point x="327" y="404" type="line"/>
      <point x="349" y="563" type="line"/>
    </contour>
  </outline>
</glyph>
<glyph name="comma" format="1">
  <advance width="219"/>
  <unicode hex="002C"/>
  <outline>
    <contour>
      <point x="33" y="182"/>
      <point x="-12" y="129"/>
      <point x="-12" y="68" type="curve" smooth="yes"/>
      <point x="-12" y="38"/>
      <point x="-1" y="16"/>
      <point x="22" y="0" type="curve"/>
      <point x="-42" y="-183" type="line"/>
      <point x="49" y="-183" type="line"/>
      <point x="126" y="-43" type="line" smooth="yes"/>
      <point x="163" y="25"/>
      <point x="179" y="57"/>
      <point x="179" y="97" type="curve" smooth="yes"/>
      <point x="179" y="149"/>
      <point x="147" y="182"/>
      <point x="95" y="182" type="curve" smooth="yes"/>
    </contour>
  </outline>
</glyph>
<glyph name="period" format="1">
  <advance width="223"/>
  <unicode hex="002E"/>
  <outline>
    <contour>
      <point x="136" y="-20"/>
      <point x="182" y="28"/>
      <point x="182" y="92" type="curve" smooth="yes"/>
      <point x="182" y="141"/>
      <point x="151" y="181"/>
      <point x="97" y="181" type="curve" smooth="yes"/>
      <point x="34" y="181"/>
      <point x="-12" y="131"/>
      <point x="-12" y="68" type="curve" smooth="yes"/>
      <point x="-12" y="20"/>
      <point x="19" y="-20"/>
      <point x="73" y="-20" type="curve" smooth="yes"/>
    </contour>
  </outline>
</glyph>
<glyph name="slash" format="1">
  <advance width="427"/>
  <unicode hex="002F"/>
  <outline>
    <contour>
      <point x="-10" y="-77" type="line"/>
      <point x="146" y="-116" type="line"/>
      <point x="462" y="783" type="line"/>
      <point x="307" y="821" type="line"/>
    </contour>
  </outline>
</glyph>
<glyph name="zero" format="1">
  <advance width="523"/>
  <unicode hex="0030"/>
  <outline>
    <contour>
      <point x="444" y="696"/>
      <point x="512" y="610"/>
      <point x="512" y="445" type="curve" smooth="yes"/>
      <point x="512" y="213"/>
      <point x="427" y="-20"/>
      <point x="227" y="-20" type="curve" smooth="yes"/>
      <point x="100" y="-20"/>
      <point x="31" y="60"/>
      <point x="31" y="229" type="curve" smooth="yes"/>
      <point x="31" y="463"/>
      <point x="113" y="696"/>
      <point x="317" y="696" type="curve" smooth="yes"/>
    </contour>
    <contour>
      <point x="244" y="558"/>
      <point x="210" y="295"/>
      <point x="210" y="170" type="curve" smooth="yes"/>
      <point x="210" y="129"/>
      <point x="220" y="118"/>
      <point x="236" y="118" type="curve" smooth="yes"/>
      <point x="296" y="118"/>
      <point x="333" y="368"/>
      <point x="333" y="506" type="curve" smooth="yes"/>
      <point x="333" y="547"/>
      <point x="323" y="558"/>
      <point x="307" y="558" type="curve" smooth="yes"/>
    </contour>
  </outline>
</glyph>
<glyph name="one" format="1">
  <advance width="411"/>
  <unicode hex="0031"/>
  <outline>
    <contour>
      <point x="246" y="680" type="line"/>
      <point x="23" y="536" type="line"/>
      <point x="86" y="410" type="line"/>
      <point x="204" y="488" type="line"/>
      <point x="139" y="0" type="line"/>
      <point x="318" y="0" type="line"/>
      <point x="413" y="680" type="line"/>
    </contour>
  </outline>
</glyph>
<glyph name="two" format="1">
  <advance width="437"/>
  <unicode hex="0032"/>
  <outline>
    <contour>
      <point x="154" y="696"/>
      <point x="82" y="647"/>
      <point x="26" y="573" type="curve"/>
      <point x="120" y="490" type="line"/>
      <point x="159" y="531"/>
      <point x="187" y="553"/>
      <point x="217" y="553" type="curve" smooth="yes"/>
      <point x="241" y="553"/>
      <point x="256" y="539"/>
      <point x="256" y="508" type="curve" smooth="yes"/>
      <point x="256" y="407"/>
      <point x="133" y="281"/>
      <point x="-10" y="132" type="curve"/>
      <point x="-26" y="0" type="line"/>
      <point x="367" y="0" type="line"/>
      <point x="406" y="143" type="line"/>
      <point x="189" y="142" type="line"/>
      <point x="340" y="287"/>
      <point x="447" y="397"/>
      <point x="447" y="522" type="curve" smooth="yes"/>
      <point x="447" y="618"/>
      <point x="384" y="696"/>
      <point x="254" y="696" type="curve" smooth="yes"/>
    </contour>
  </outline>
</glyph>
<glyph name="three" format="1">
  <advance width="442"/>
  <unicode hex="0033"/>
  <outline>
    <contour>
      <point x="161" y="696"/>
      <point x="88" y="663"/>
      <point x="24" y="600" type="curve"/>
      <point x="102" y="503" type="line"/>
      <point x="135" y="536"/>
      <point x="173" y="558"/>
      <point x="208" y="558" type="curve" smooth="yes"/>
      <point x="239" y="558"/>
      <point x="254" y="542"/>
      <point x="254" y="509" type="curve" smooth="yes"/>
      <point x="254" y="454"/>
      <point x="223" y="418"/>
      <point x="176" y="418" type="curve" smooth="yes"/>
      <point x="146" y="418" type="line"/>
      <point x="108" y="291" type="line"/>
      <point x="155" y="291" type="line" smooth="yes"/>
      <point x="197" y="291"/>
      <point x="222" y="272"/>
      <point x="222" y="229" type="curve" smooth="yes"/>
      <point x="222" y="159"/>
      <point x="185" y="122"/>
      <point x="145" y="122" type="curve" smooth="yes"/>
      <point x="109" y="122"/>
      <point x="85" y="140"/>
      <point x="53" y="179" type="curve"/>
      <point x="-55" y="89" type="line"/>
      <point x="-9" y="23"/>
      <point x="50" y="-20"/>
      <point x="149" y="-20" type="curve" smooth="yes"/>
      <point x="299" y="-20"/>
      <point x="412" y="87"/>
      <point x="412" y="226" type="curve" smooth="yes"/>
      <point x="412" y="309"/>
      <point x="360" y="347"/>
      <point x="273" y="358" type="curve"/>
      <point x="380" y="382"/>
      <point x="438" y="442"/>
      <point x="438" y="535" type="curve" smooth="yes"/>
      <point x="438" y="625"/>
      <point x="371" y="696"/>
      <point x="247" y="696" type="curve" smooth="yes"/>
    </contour>
  </outline>
</glyph>
<glyph name="four" format="1">
  <advance width="494"/>
  <unicode hex="0034"/>
  <outline>
    <contour>
      <point x="10" y="261" type="line"/>
      <point x="-7" y="136" type="line"/>
      <point x="467" y="136" type="line"/>
      <point x="487" y="277" type="line"/>
      <point x="203" y="277" type="line"/>
      <point x="372" y="646" type="line"/>
      <point x="222" y="701" type="line"/>
    </contour>
    <contour>
      <point x="302" y="427" type="line"/>
      <point x="253" y="261" type="line"/>
      <point x="219" y="0" type="line"/>
      <point x="395" y="0" type="line"/>
      <point x="455" y="427" type="line"/>
    </contour>
  </outline>
</glyph>
<glyph name="five" format="1">
  <advance width="467"/>
  <unicode hex="0035"/>
  <outline>
    <contour>
      <point x="94" y="680" type="line"/>
      <point x="40" y="301" type="line"/>
      <point x="159" y="300" type="line"/>
      <point x="185" y="318"/>
      <point x="201" y="325"/>
      <point x="220" y="325" type="curve" smooth="yes"/>
      <point x="243" y="325"/>
      <point x="258" y="313"/>
      <point x="258" y="272" type="curve" smooth="yes"/>
      <point x="258" y="202"/>
      <point x="238" y="120"/>
      <point x="171" y="120" type="curve" smooth="yes"/>
      <point x="131" y="120"/>
      <point x="109" y="145"/>
      <point x="86" y="178" type="curve"/>
      <point x="-25" y="91" type="line"/>
      <point x="12" y="28"/>
      <point x="68" y="-20"/>
      <point x="168" y="-20" type="curve" smooth="yes"/>
      <point x="334" y="-20"/>
      <point x="447" y="105"/>
      <point x="447" y="282" type="curve" smooth="yes"/>
      <point x="447" y="397"/>
      <point x="390" y="452"/>
      <point x="316" y="452" type="curve" smooth="yes"/>
      <point x="288" y="452"/>
      <point x="265" y="447"/>
      <point x="231" y="428" type="curve"/>
      <point x="248" y="547" type="line"/>
      <point x="437" y="547" type="line"/>
      <point x="474" y="680" type="line"/>
    </contour>
  </outline>
</glyph>
<glyph name="six" format="1">
  <advance width="497"/>
  <unicode hex="0036"/>
  <outline>
    <contour>
      <point x="146" y="696"/>
      <point x="26" y="452"/>
      <point x="26" y="212" type="curve" smooth="yes"/>
      <point x="26" y="61"/>
      <point x="90" y="-20"/>
      <point x="226" y="-20" type="curve" smooth="yes"/>
      <point x="389" y="-20"/>
      <point x="486" y="112"/>
      <point x="486" y="289" type="curve" smooth="yes"/>
      <point x="486" y="398"/>
      <point x="437" y="462"/>
      <point x="351" y="462" type="curve" smooth="yes"/>
      <point x="307" y="462"/>
      <point x="265" y="444"/>
      <point x="229" y="401" type="curve"/>
      <point x="213" y="287" type="line"/>
      <point x="240" y="321"/>
      <point x="262" y="338"/>
      <point x="280" y="338" type="curve" smooth="yes"/>
      <point x="294" y="338"/>
      <point x="303" y="331"/>
      <point x="303" y="298" type="curve" smooth="yes"/>
      <point x="303" y="236"/>
      <point x="283" y="113"/>
      <point x="235" y="113" type="curve" smooth="yes"/>
      <point x="218" y="113"/>
      <point x="209" y="125"/>
      <point x="209" y="163" type="curve" smooth="yes"/>
      <point x="209" y="194"/>
      <point x="214" y="241"/>
      <point x="223" y="311" type="curve"/>
      <point x="233" y="386" type="line"/>
      <point x="259" y="516"/>
      <point x="305" y="564"/>
      <point x="355" y="564" type="curve" smooth="yes"/>
      <point x="376" y="564"/>
      <point x="395" y="556"/>
      <point x="414" y="545" type="curve"/>
      <point x="491" y="649" type="line"/>
      <point x="461" y="675"/>
      <point x="418" y="696"/>
      <point x="357" y="696" type="curve" smooth="yes"/>
    </contour>
  </outline>
</glyph>
<glyph name="seven" format="1">
  <advance width="399"/>
  <unicode hex="0037"/>
  <outline>
    <contour>
      <point x="60" y="679" type="line"/>
      <point x="40" y="539" type="line"/>
      <point x="245" y="539" type="line"/>
      <point x="8" y="38" type="line"/>
      <point x="165" y="-19" type="line"/>
      <point x="437" y="554" type="line"/>
      <point x="455" y="679" type="line"/>
    </contour>
  </outline>
</glyph>
<glyph name="eight" format="1">
  <advance width="500"/>
  <unicode hex="0038"/>
  <outline>
    <contour>
      <point x="162" y="696"/>
      <point x="64" y="610"/>
      <point x="64" y="477" type="curve" smooth="yes"/>
      <point x="64" y="425"/>
      <point x="84" y="379"/>
      <point x="141" y="336" type="curve"/>
      <point x="219" y="299" type="line"/>
      <point x="243" y="285" type="line" smooth="yes"/>
      <point x="286" y="261"/>
      <point x="298" y="244"/>
      <point x="298" y="208" type="curve" smooth="yes"/>
      <point x="298" y="157"/>
      <point x="277" y="113"/>
      <point x="227" y="113" type="curve" smooth="yes"/>
      <point x="196" y="113"/>
      <point x="179" y="129"/>
      <point x="179" y="169" type="curve" smooth="yes"/>
      <point x="179" y="220"/>
      <point x="203" y="275"/>
      <point x="253" y="311" type="curve"/>
      <point x="145" y="354" type="line"/>
      <point x="51" y="313"/>
      <point x="-1" y="250"/>
      <point x="-1" y="157" type="curve" smooth="yes"/>
      <point x="-1" y="61"/>
      <point x="68" y="-20"/>
      <point x="212" y="-20" type="curve" smooth="yes"/>
      <point x="365" y="-20"/>
      <point x="478" y="67"/>
      <point x="478" y="215" type="curve" smooth="yes"/>
      <point x="478" y="279"/>
      <point x="449" y="328"/>
      <point x="373" y="374" type="curve"/>
      <point x="291" y="408" type="line"/>
      <point x="276" y="417" type="line" smooth="yes"/>
      <point x="247" y="435"/>
      <point x="239" y="451"/>
      <point x="239" y="476" type="curve" smooth="yes"/>
      <point x="239" y="518"/>
      <point x="249" y="571"/>
      <point x="294" y="571" type="curve" smooth="yes"/>
      <point x="316" y="571"/>
      <point x="327" y="559"/>
      <point x="327" y="527" type="curve" smooth="yes"/>
      <point x="327" y="469"/>
      <point x="303" y="428"/>
      <point x="256" y="391" type="curve"/>
      <point x="369" y="354" type="line"/>
      <point x="474" y="408"/>
      <point x="505" y="475"/>
      <point x="505" y="540" type="curve" smooth="yes"/>
      <point x="505" y="635"/>
      <point x="431" y="696"/>
      <point x="305" y="696" type="curve" smooth="yes"/>
    </contour>
  </outline>
</glyph>
<glyph name="nine" format="1">
  <advance width="499"/>
  <unicode hex="0039"/>
  <outline>
    <contour>
      <point x="317" y="412" type="line"/>
      <point x="295" y="378"/>
      <point x="273" y="357"/>
      <point x="252" y="357" type="curve" smooth="yes"/>
      <point x="236" y="357"/>
      <point x="221" y="369"/>
      <point x="221" y="414" type="curve" smooth="yes"/>
      <point x="221" y="477"/>
      <point x="243" y="568"/>
      <point x="291" y="568" type="curve" smooth="yes"/>
      <point x="310" y="568"/>
      <point x="320" y="557"/>
      <point x="320" y="521" type="curve" smooth="yes"/>
      <point x="320" y="491"/>
      <point x="318" y="445"/>
      <point x="308" y="376" type="curve"/>
      <point x="294" y="295" type="line"/>
      <point x="242" y="184"/>
      <point x="172" y="138"/>
      <point x="20" y="97" type="curve"/>
      <point x="44" y="-31" type="line"/>
      <point x="336" y="25"/>
      <point x="508" y="201"/>
      <point x="508" y="486" type="curve" smooth="yes"/>
      <point x="508" y="616"/>
      <point x="440" y="696"/>
      <point x="303" y="696" type="curve" smooth="yes"/>
      <point x="139" y="696"/>
      <point x="34" y="572"/>
      <point x="34" y="409" type="curve" smooth="yes"/>
      <point x="34" y="296"/>
      <point x="94" y="230"/>
      <point x="175" y="230" type="curve" smooth="yes"/>
      <point x="222" y="230"/>
      <point x="256" y="250"/>
      <point x="295" y="290" type="curve"/>
    </contour>
  </outline>
</glyph>
<glyph name="less" format="1">
  <advance width="439"/>
  <unicode hex="003C"/>
  <outline>
    <contour>
      <point x="36" y="414" type="line"/>
      <point x="14" y="253" type="line"/>
      <point x="335" y="78" type="line"/>
      <point x="414" y="202" type="line"/>
      <point x="174" y="328" type="line"/>
      <point x="450" y="453" type="line"/>
      <point x="410" y="588" type="line"/>
    </contour>
  </outline>
</glyph>
<glyph name="greater" format="1">
  <advance width="440"/>
  <unicode hex="003E"/>
  <outline>
    <contour>
      <point x="45" y="464" type="line"/>
      <point x="289" y="340" type="line"/>
      <point x="8" y="215" type="line"/>
      <point x="49" y="78" type="line"/>
      <point x="423" y="252" type="line"/>
      <point x="445" y="413" type="line"/>
      <point x="124" y="588" type="line"/>
    </contour>
  </outline>
</glyph>
<glyph name="question" format="1">
  <advance width="418"/>
  <unicode hex="003F"/>
  <outline>
    <contour>
      <point x="174" y="715"/>
      <point x="103" y="671"/>
      <point x="50" y="605" type="curve"/>
      <point x="146" y="515" type="line"/>
      <point x="179" y="549"/>
      <point x="206" y="567"/>
      <point x="229" y="567" type="curve" smooth="yes"/>
      <point x="247" y="567"/>
      <point x="256" y="558"/>
      <point x="256" y="541" type="curve" smooth="yes"/>
      <point x="256" y="459"/>
      <point x="100" y="457"/>
      <point x="100" y="294" type="curve" smooth="yes"/>
      <point x="100" y="270"/>
      <point x="105" y="253"/>
      <point x="109" y="239" type="curve"/>
      <point x="273" y="264" type="line"/>
      <point x="272" y="269"/>
      <point x="271" y="276"/>
      <point x="271" y="291" type="curve" smooth="yes"/>
      <point x="271" y="385"/>
      <point x="454" y="385"/>
      <point x="454" y="554" type="curve" smooth="yes"/>
      <point x="454" y="643"/>
      <point x="389" y="715"/>
      <point x="268" y="715" type="curve" smooth="yes"/>
    </contour>
    <component base="period" xOffset="100"/>
  </outline>
</glyph>
<glyph name="at" format="1">
  <advance width="847"/>
  <unicode hex="0040"/>
  <outline>
    <contour>
      <point x="209" y="715"/>
      <point x="21" y="444"/>
      <point x="21" y="142" type="curve" smooth="yes"/>
      <point x="21" y="-86"/>
      <point x="141" y="-226"/>
      <point x="371" y="-226" type="curve" smooth="yes"/>
      <point x="441" y="-226"/>
      <point x="524" y="-208"/>
      <point x="580" y="-183" type="curve"/>
      <point x="553" y="-61" type="line"/>
      <point x="512" y="-78"/>
      <point x="447" y="-94"/>
      <point x="387" y="-94" type="curve" smooth="yes"/>
      <point x="248" y="-94"/>
      <point x="180" y="-22"/>
      <point x="180" y="135" type="curve" smooth="yes"/>
      <point x="180" y="368"/>
      <point x="273" y="584"/>
      <point x="487" y="584" type="curve" smooth="yes"/>
      <point x="614" y="584"/>
      <point x="672" y="515"/>
      <point x="672" y="382" type="curve" smooth="yes"/>
      <point x="672" y="276"/>
      <point x="638" y="113"/>
      <point x="590" y="113" type="curve" smooth="yes"/>
      <point x="566" y="113"/>
      <point x="577" y="156"/>
      <point x="586" y="219" type="curve" smooth="yes"/>
      <point x="620" y="459" type="line"/>
      <point x="579" y="487"/>
      <point x="521" y="508"/>
      <point x="465" y="508" type="curve" smooth="yes"/>
      <point x="309" y="508"/>
      <point x="228" y="345"/>
      <point x="228" y="171" type="curve" smooth="yes"/>
      <point x="228" y="69"/>
      <point x="271" y="6"/>
      <point x="356" y="6" type="curve" smooth="yes"/>
      <point x="420" y="6"/>
      <point x="458" y="40"/>
      <point x="484" y="95" type="curve"/>
      <point x="487" y="43"/>
      <point x="524" y="2"/>
      <point x="585" y="2" type="curve" smooth="yes"/>
      <point x="724" y="2"/>
      <point x="826" y="172"/>
      <point x="826" y="378" type="curve" smooth="yes"/>
      <point x="826" y="561"/>
      <point x="710" y="715"/>
      <point x="495" y="715" type="curve" smooth="yes"/>
    </contour>
    <contour>
      <point x="387" y="116"/>
      <point x="383" y="124"/>
      <point x="383" y="153" type="curve" smooth="yes"/>
      <point x="383" y="242"/>
      <point x="408" y="397"/>
      <point x="451" y="397" type="curve" smooth="yes"/>
      <point x="457" y="397"/>
      <point x="460" y="396"/>
      <point x="463" y="395" type="curve"/>
      <point x="427" y="138" type="line"/>
      <point x="419" y="125"/>
      <point x="409" y="116"/>
      <point x="398" y="116" type="curve" smooth="yes"/>
    </contour>
  </outline>
</glyph>
<glyph name="A" format="1">
  <advance width="506"/>
  <unicode hex="0041"/>
  <outline>
    <contour>
      <point x="197" y="696" type="line"/>
      <point x="-58" y="0" type="line"/>
      <point x="143" y="0" type="line"/>
      <point x="290" y="570" type="line"/>
      <point x="290" y="0" type="line"/>
      <point x="488" y="0" type="line"/>
      <point x="428" y="696" type="line"/>
    </contour>
    <contour>
      <point x="213" y="276" type="line"/>
      <point x="166" y="138" type="line"/>
      <point x="300" y="138" type="line"/>
      <point x="298" y="276" type="line"/>
    </contour>
    <contour>
      <point x="400" y="0" type="move" name="ogonek"/>
    </contour>
    <contour>
      <point x="313" y="696" type="move" name="top"/>
    </contour>
    <contour>
      <point x="178" y="696" type="move" name="topleft"/>
    </contour>
    <contour>
      <point x="213" y="0" type="move" name="bottom"/>
    </contour>
  </outline>
</glyph>
<glyph name="B" format="1">
  <advance width="512"/>
  <unicode hex="0042"/>
  <outline>
    <contour>
      <point x="88" y="696" type="line"/>
      <point x="-10" y="0" type="line"/>
      <point x="201" y="0" type="line" smooth="yes"/>
      <point x="371" y="0"/>
      <point x="500" y="72"/>
      <point x="500" y="230" type="curve" smooth="yes"/>
      <point x="500" y="315"/>
      <point x="447" y="353"/>
      <point x="378" y="368" type="curve"/>
      <point x="454" y="388"/>
      <point x="520" y="442"/>
      <point x="520" y="538" type="curve" smooth="yes"/>
      <point x="520" y="642"/>
      <point x="425" y="696"/>
      <point x="274" y="696" type="curve" smooth="yes"/>
    </contour>
    <contour>
      <point x="310" y="560"/>
      <point x="323" y="543"/>
      <point x="323" y="515" type="curve" smooth="yes"/>
      <point x="323" y="465"/>
      <point x="305" y="425"/>
      <point x="254" y="425" type="curve" smooth="yes"/>
      <point x="230" y="425" type="line"/>
      <point x="212" y="299" type="line"/>
      <point x="247" y="299" type="line" smooth="yes"/>
      <point x="289" y="299"/>
      <point x="304" y="279"/>
      <point x="304" y="242" type="curve" smooth="yes"/>
      <point x="304" y="189"/>
      <point x="279" y="140"/>
      <point x="221" y="140" type="curve" smooth="yes"/>
      <point x="204" y="140" type="line"/>
      <point x="262" y="560" type="line"/>
      <point x="275" y="560" type="line" smooth="yes"/>
    </contour>
    <contour>
      <point x="294" y="696" type="move" name="top"/>
    </contour>
    <contour>
      <point x="217" y="0" type="move" name="bottom"/>
    </contour>
  </outline>
</glyph>
<glyph name="C" format="1">
  <advance width="488"/>
  <unicode hex="0043"/>
  <outline>
    <contour>
      <point x="133" y="716"/>
      <point x="23" y="505"/>
      <point x="23" y="252" type="curve" smooth="yes"/>
      <point x="23" y="66"/>
      <point x="114" y="-20"/>
      <point x="249" y="-20" type="curve" smooth="yes"/>
      <point x="341" y="-20"/>
      <point x="414" y="24"/>
      <point x="466" y="74" type="curve"/>
      <point x="397" y="180" type="line"/>
      <point x="357" y="150"/>
      <point x="326" y="129"/>
      <point x="290" y="129" type="curve" smooth="yes"/>
      <point x="246" y="129"/>
      <point x="223" y="160"/>
      <point x="223" y="240" type="curve" smooth="yes"/>
      <point x="223" y="380"/>
      <point x="256" y="573"/>
      <point x="355" y="573" type="curve" smooth="yes"/>
      <point x="387" y="573"/>
      <point x="415" y="558"/>
      <point x="439" y="534" type="curve"/>
      <point x="537" y="634" type="line"/>
      <point x="494" y="684"/>
      <point x="436" y="716"/>
      <point x="357" y="716" type="curve" smooth="yes"/>
    </contour>
    <contour>
      <point x="352" y="696" type="move" name="top"/>
    </contour>
    <contour>
      <point x="235" y="0" type="move" name="bottom"/>
    </contour>
  </outline>
</glyph>
<glyph name="D" format="1">
  <advance width="550"/>
  <unicode hex="0044"/>
  <outline>
    <contour>
      <point x="88" y="696" type="line"/>
      <point x="-10" y="0" type="line"/>
      <point x="198" y="0" type="line" smooth="yes"/>
      <point x="449" y="0"/>
      <point x="549" y="182"/>
      <point x="549" y="445" type="curve" smooth="yes"/>
      <point x="549" y="653"/>
      <point x="424" y="696"/>
      <point x="285" y="696" type="curve" smooth="yes"/>
    </contour>
    <contour>
      <point x="332" y="557"/>
      <point x="353" y="528"/>
      <point x="353" y="452" type="curve" smooth="yes"/>
      <point x="353" y="329"/>
      <point x="326" y="140"/>
      <point x="227" y="140" type="curve" smooth="yes"/>
      <point x="204" y="140" type="line"/>
      <point x="262" y="557" type="line"/>
      <point x="289" y="557" type="line" smooth="yes"/>
    </contour>
    <contour>
      <point x="284" y="348" type="move" name="center"/>
    </contour>
    <contour>
      <point x="211" y="0" type="move" name="bottom"/>
    </contour>
    <contour>
      <point x="298" y="696" type="move" name="top"/>
    </contour>
  </outline>
</glyph>
<glyph name="E" format="1">
  <advance width="421"/>
  <unicode hex="0045"/>
  <outline>
    <contour>
      <point x="88" y="696" type="line"/>
      <point x="-10" y="0" type="line"/>
      <point x="372" y="0" type="line"/>
      <point x="392" y="139" type="line"/>
      <point x="204" y="139" type="line"/>
      <point x="224" y="286" type="line"/>
      <point x="377" y="286" type="line"/>
      <point x="397" y="420" type="line"/>
      <point x="243" y="420" type="line"/>
      <point x="263" y="559" type="line"/>
      <point x="434" y="559" type="line"/>
      <point x="476" y="696" type="line"/>
    </contour>
    <contour>
      <point x="347" y="0" type="move" name="ogonek"/>
    </contour>
    <contour>
      <point x="281" y="696" type="move" name="top"/>
    </contour>
    <contour>
      <point x="92" y="696" type="move" name="topleft"/>
    </contour>
    <contour>
      <point x="181" y="0" type="move" name="bottom"/>
    </contour>
  </outline>
</glyph>
<glyph name="F" format="1">
  <advance width="397"/>
  <unicode hex="0046"/>
  <outline>
    <contour>
      <point x="88" y="696" type="line"/>
      <point x="-10" y="0" type="line"/>
      <point x="184" y="0" type="line"/>
      <point x="221" y="261" type="line"/>
      <point x="361" y="261" type="line"/>
      <point x="383" y="399" type="line"/>
      <point x="241" y="399" type="line"/>
      <point x="263" y="559" type="line"/>
      <point x="419" y="559" type="line"/>
      <point x="462" y="696" type="line"/>
    </contour>
    <contour>
      <point x="274" y="696" type="move" name="top"/>
    </contour>
    <contour>
      <point x="162" y="0" type="move" name="bottom"/>
    </contour>
  </outline>
</glyph>
<glyph name="G" format="1">
  <advance width="547"/>
  <unicode hex="0047"/>
  <outline>
    <contour>
      <point x="146" y="716"/>
      <point x="21" y="498"/>
      <point x="21" y="244" type="curve" smooth="yes"/>
      <point x="21" y="73"/>
      <point x="96" y="-19"/>
      <point x="257" y="-19" type="curve" smooth="yes"/>
      <point x="330" y="-19"/>
      <point x="421" y="8"/>
      <point x="492" y="58" type="curve"/>
      <point x="540" y="407" type="line"/>
      <point x="294" y="407" type="line"/>
      <point x="293" y="273" type="line"/>
      <point x="341" y="273" type="line"/>
      <point x="322" y="141" type="line"/>
      <point x="306" y="129"/>
      <point x="288" y="121"/>
      <point x="267" y="121" type="curve" smooth="yes"/>
      <point x="235" y="121"/>
      <point x="217" y="145"/>
      <point x="217" y="213" type="curve" smooth="yes"/>
      <point x="217" y="369"/>
      <point x="252" y="577"/>
      <point x="372" y="577" type="curve" smooth="yes"/>
      <point x="411" y="577"/>
      <point x="438" y="563"/>
      <point x="471" y="532" type="curve"/>
      <point x="572" y="625" type="line"/>
      <point x="530" y="676"/>
      <point x="465" y="716"/>
      <point x="375" y="716" type="curve" smooth="yes"/>
    </contour>
    <contour>
      <point x="360" y="696" type="move" name="top"/>
    </contour>
    <contour>
      <point x="256" y="0" type="move" name="bottom"/>
    </contour>
  </outline>
</glyph>
<glyph name="H" format="1">
  <advance width="536"/>
  <unicode hex="0048"/>
  <outline>
    <contour>
      <point x="224" y="284" type="line"/>
      <point x="316" y="284" type="line"/>
      <point x="276" y="0" type="line"/>
      <point x="470" y="0" type="line"/>
      <point x="567" y="696" type="line"/>
      <point x="373" y="696" type="line"/>
      <point x="337" y="436" type="line"/>
      <point x="245" y="436" type="line"/>
      <point x="282" y="696" type="line"/>
      <point x="88" y="696" type="line"/>
      <point x="-10" y="0" type="line"/>
      <point x="184" y="0" type="line"/>
    </contour>
    <contour>
      <point x="227" y="0" type="move" name="bottom"/>
    </contour>
    <contour>
      <point x="328" y="696" type="move" name="top"/>
    </contour>
    <contour>
      <point x="95" y="696" type="move" name="topleft"/>
    </contour>
    <contour>
      <point x="478" y="0" type="move" name="bottomright"/>
    </contour>
    <contour>
      <point x="280" y="348" type="move" name="center"/>
    </contour>
  </outline>
</glyph>
<glyph name="I" format="1">
  <advance width="250"/>
  <unicode hex="0049"/>
  <outline>
    <contour>
      <point x="88" y="696" type="line"/>
      <point x="-10" y="0" type="line"/>
      <point x="184" y="0" type="line"/>
      <point x="282" y="696" type="line"/>
    </contour>
    <contour>
      <point x="143" y="0" type="move" name="ogonek"/>
    </contour>
    <contour>
      <point x="185" y="696" type="move" name="top"/>
    </contour>
    <contour>
      <point x="92" y="696" type="move" name="topleft"/>
    </contour>
    <contour>
      <point x="87" y="0" type="move" name="bottom"/>
    </contour>
  </outline>
</glyph>
<glyph name="J" format="1">
  <advance width="278"/>
  <unicode hex="004A"/>
  <outline>
    <contour>
      <point x="117" y="696" type="line"/>
      <point x="36" y="118" type="line" smooth="yes"/>
      <point x="24" y="30"/>
      <point x="5" y="-16"/>
      <point x="-65" y="-49" type="curve"/>
      <point x="-33" y="-185" type="line"/>
      <point x="83" y="-146"/>
      <point x="200" y="-93"/>
      <point x="228" y="104" type="curve" smooth="yes"/>
      <point x="311" y="696" type="line"/>
    </contour>
    <contour>
      <point x="213" y="696" type="move" name="top"/>
    </contour>
  </outline>
</glyph>
<glyph name="K" format="1">
  <advance width="566"/>
  <unicode hex="004B"/>
  <outline>
    <contour>
      <point x="538" y="0" type="line"/>
      <point x="435" y="376" type="line"/>
      <point x="620" y="696" type="line"/>
      <point x="428" y="696" type="line"/>
      <point x="241" y="371" type="line"/>
      <point x="329" y="0" type="line"/>
    </contour>
    <contour>
      <point x="184" y="0" type="line"/>
      <point x="282" y="696" type="line"/>
      <point x="88" y="696" type="line"/>
      <point x="-10" y="0" type="line"/>
    </contour>
    <contour>
      <point x="333" y="696" type="move" name="top"/>
    </contour>
    <contour>
      <point x="239" y="0" type="move" name="bottom"/>
    </contour>
  </outline>
</glyph>
<glyph name="M" format="1">
  <advance width="662"/>
  <unicode hex="004D"/>
  <outline>
    <contour>
      <point x="425" y="696" type="line"/>
      <point x="322" y="223" type="line"/>
      <point x="338" y="696" type="line"/>
      <point x="109" y="696" type="line"/>
      <point x="-26" y="0" type="line"/>
      <point x="161" y="0" type="line"/>
      <point x="193" y="251" type="line" smooth="yes"/>
      <point x="205" y="346"/>
      <point x="210" y="424"/>
      <point x="217" y="553" type="curve"/>
      <point x="210" y="71" type="line"/>
      <point x="394" y="71" type="line"/>
      <point x="508" y="555" type="line"/>
      <point x="487" y="436"/>
      <point x="469" y="344"/>
      <point x="457" y="253" type="curve" smooth="yes"/>
      <point x="425" y="0" type="line"/>
      <point x="612" y="0" type="line"/>
      <point x="671" y="696" type="line"/>
    </contour>
    <contour>
      <point x="383" y="696" type="move" name="top"/>
    </contour>
    <contour>
      <point x="290" y="0" type="move" name="bottom"/>
    </contour>
    <contour>
      <point x="622" y="0" type="move" name="bottomright"/>
    </contour>
  </outline>
</glyph>
<glyph name="N" format="1">
  <advance width="530"/>
  <unicode hex="004E"/>
  <outline>
    <contour>
      <point x="395" y="696" type="line"/>
      <point x="367" y="472" type="line" smooth="yes"/>
      <point x="352" y="349"/>
      <point x="355" y="272"/>
      <point x="359" y="162" type="curve"/>
      <point x="316" y="696" type="line"/>
      <point x="88" y="696" type="line"/>
      <point x="-9" y="0" type="line"/>
      <point x="158" y="0" type="line"/>
      <point x="184" y="213" type="line" smooth="yes"/>
      <point x="200" y="341"/>
      <point x="196" y="436"/>
      <point x="192" y="533" type="curve"/>
      <point x="237" y="0" type="line"/>
      <point x="464" y="0" type="line"/>
      <point x="561" y="696" type="line"/>
    </contour>
    <contour>
      <point x="322" y="696" type="move" name="top"/>
    </contour>
    <contour>
      <point x="228" y="0" type="move" name="bottom"/>
    </contour>
  </outline>
</glyph>
<glyph name="O" format="1">
  <advance width="581"/>
  <unicode hex="004F"/>
  <outline>
    <contour>
      <point x="124" y="716"/>
      <point x="23" y="496"/>
      <point x="23" y="246" type="curve" smooth="yes"/>
      <point x="23" y="68"/>
      <point x="101" y="-20"/>
      <point x="254" y="-20" type="curve" smooth="yes"/>
      <point x="478" y="-20"/>
      <point x="581" y="201"/>
      <point x="581" y="451" type="curve" smooth="yes"/>
      <point x="581" y="629"/>
      <point x="502" y="716"/>
      <point x="349" y="716" type="curve" smooth="yes"/>
    </contour>
    <contour>
      <point x="369" y="575"/>
      <point x="384" y="551"/>
      <point x="384" y="489" type="curve" smooth="yes"/>
      <point x="384" y="352"/>
      <point x="354" y="120"/>
      <point x="266" y="120" type="curve" smooth="yes"/>
      <point x="234" y="120"/>
      <point x="219" y="142"/>
      <point x="219" y="202" type="curve" smooth="yes"/>
      <point x="219" y="334"/>
      <point x="251" y="575"/>
      <point x="337" y="575" type="curve" smooth="yes"/>
    </contour>
    <contour>
      <point x="369" y="0" type="move" name="ogonek"/>
    </contour>
    <contour>
      <point x="347" y="696" type="move" name="top"/>
    </contour>
    <contour>
      <point x="558" y="696" type="move" name="topright"/>
    </contour>
    <contour>
      <point x="136" y="696" type="move" name="topleft"/>
    </contour>
    <contour>
      <point x="255" y="0" type="move" name="bottom"/>
    </contour>
  </outline>
</glyph>
<glyph name="P" format="1">
  <advance width="505"/>
  <unicode hex="0050"/>
  <outline>
    <contour>
      <point x="-10" y="0" type="line"/>
      <point x="184" y="0" type="line"/>
      <point x="262" y="559" type="line"/>
      <point x="276" y="559" type="line" smooth="yes"/>
      <point x="315" y="559"/>
      <point x="332" y="542"/>
      <point x="332" y="496" type="curve" smooth="yes"/>
      <point x="332" y="422"/>
      <point x="311" y="359"/>
      <point x="243" y="359" type="curve" smooth="yes"/>
      <point x="221" y="359" type="line"/>
      <point x="201" y="220" type="line"/>
      <point x="245" y="220" type="line" smooth="yes"/>
      <point x="421" y="220"/>
      <point x="529" y="332"/>
      <point x="529" y="499" type="curve" smooth="yes"/>
      <point x="529" y="629"/>
      <point x="444" y="696"/>
      <point x="286" y="696" type="curve" smooth="yes"/>
      <point x="88" y="696" type="line"/>
    </contour>
    <contour>
      <point x="311" y="696" type="move" name="top"/>
    </contour>
    <contour>
      <point x="212" y="0" type="move" name="bottom"/>
    </contour>
    <contour>
      <point x="86" y="696" type="move" name="topleft"/>
    </contour>
  </outline>
</glyph>
<glyph name="Q" format="1">
  <advance width="579"/>
  <unicode hex="0051"/>
  <outline>
    <contour>
      <point x="282" y="-16"/>
      <point x="309" y="-16"/>
      <point x="333" y="-10" type="curve"/>
      <point x="362" y="29" type="line"/>
      <point x="517" y="87"/>
      <point x="581" y="256"/>
      <point x="581" y="451" type="curve" smooth="yes"/>
      <point x="581" y="629"/>
      <point x="502" y="716"/>
      <point x="349" y="716" type="curve" smooth="yes"/>
      <point x="124" y="716"/>
      <point x="23" y="496"/>
      <point x="23" y="246" type="curve" smooth="yes"/>
      <point x="23" y="68"/>
      <point x="101" y="-16"/>
      <point x="254" y="-16" type="curve" smooth="yes"/>
    </contour>
    <contour>
      <point x="572" y="-26" type="line"/>
      <point x="524" y="26"/>
      <point x="468" y="47"/>
      <point x="378" y="47" type="curve"/>
      <point x="254" y="-16" type="line"/>
      <point x="347" y="-16"/>
      <point x="405" y="-94"/>
      <point x="436" y="-167" type="curve"/>
    </contour>
    <contour>
      <point x="234" y="120"/>
      <point x="219" y="142"/>
      <point x="219" y="202" type="curve" smooth="yes"/>
      <point x="219" y="334"/>
      <point x="251" y="575"/>
      <point x="337" y="575" type="curve" smooth="yes"/>
      <point x="369" y="575"/>
      <point x="384" y="551"/>
      <point x="384" y="489" type="curve" smooth="yes"/>
      <point x="384" y="352"/>
      <point x="354" y="120"/>
      <point x="266" y="120" type="curve" smooth="yes"/>
    </contour>
    <contour>
      <point x="345" y="696" type="move" name="top"/>
    </contour>
    <contour>
      <point x="247" y="0" type="move" name="bottom"/>
    </contour>
  </outline>
</glyph>
<glyph name="R" format="1">
  <advance width="518"/>
  <unicode hex="0052"/>
  <outline>
    <contour>
      <point x="88" y="696" type="line"/>
      <point x="-10" y="0" type="line"/>
      <point x="184" y="0" type="line"/>
      <point x="263" y="561" type="line"/>
      <point x="279" y="561" type="line" smooth="yes"/>
      <point x="318" y="561"/>
      <point x="338" y="545"/>
      <point x="338" y="501" type="curve" smooth="yes"/>
      <point x="338" y="442"/>
      <point x="316" y="384"/>
      <point x="255" y="384" type="curve" smooth="yes"/>
      <point x="226" y="384" type="line"/>
      <point x="207" y="251" type="line"/>
      <point x="332" y="250" type="line"/>
      <point x="466" y="309"/>
      <point x="534" y="373"/>
      <point x="534" y="506" type="curve" smooth="yes"/>
      <point x="534" y="627"/>
      <point x="459" y="696"/>
      <point x="286" y="696" type="curve" smooth="yes"/>
    </contour>
    <contour>
      <point x="234" y="265" type="line"/>
      <point x="305" y="0" type="line"/>
      <point x="505" y="0" type="line"/>
      <point x="407" y="301" type="line"/>
    </contour>
    <contour>
      <point x="307" y="696" type="move" name="top"/>
    </contour>
    <contour>
      <point x="243" y="0" type="move" name="bottom"/>
    </contour>
  </outline>
</glyph>
<glyph name="S" format="1">
  <advance width="488"/>
  <unicode hex="0053"/>
  <outline>
    <contour>
      <point x="163" y="716"/>
      <point x="51" y="626"/>
      <point x="51" y="480" type="curve" smooth="yes"/>
      <point x="51" y="390"/>
      <point x="90" y="343"/>
      <point x="177" y="299" type="curve" smooth="yes"/>
      <point x="250" y="262"/>
      <point x="276" y="240"/>
      <point x="276" y="196" type="curve" smooth="yes"/>
      <point x="276" y="153"/>
      <point x="247" y="122"/>
      <point x="197" y="122" type="curve" smooth="yes"/>
      <point x="144" y="122"/>
      <point x="108" y="146"/>
      <point x="69" y="183" type="curve"/>
      <point x="-34" y="84" type="line"/>
      <point x="10" y="29"/>
      <point x="80" y="-20"/>
      <point x="197" y="-20" type="curve" smooth="yes"/>
      <point x="356" y="-20"/>
      <point x="473" y="84"/>
      <point x="473" y="234" type="curve" smooth="yes"/>
      <point x="473" y="332"/>
      <point x="427" y="383"/>
      <point x="345" y="426" type="curve" smooth="yes"/>
      <point x="266" y="467"/>
      <point x="247" y="484"/>
      <point x="247" y="517" type="curve" smooth="yes"/>
      <point x="247" y="548"/>
      <point x="270" y="575"/>
      <point x="318" y="575" type="curve" smooth="yes"/>
      <point x="361" y="575"/>
      <point x="395" y="557"/>
      <point x="427" y="523" type="curve"/>
      <point x="521" y="621" type="line"/>
      <point x="472" y="681"/>
      <point x="406" y="716"/>
      <point x="308" y="716" type="curve" smooth="yes"/>
    </contour>
    <contour>
      <point x="307" y="696" type="move" name="top"/>
    </contour>
    <contour>
      <point x="198" y="0" type="move" name="bottom"/>
    </contour>
  </outline>
</glyph>
<glyph name="U" format="1">
  <advance width="524"/>
  <unicode hex="0055"/>
  <outline>
    <contour>
      <point x="371" y="696" type="line"/>
      <point x="300" y="187" type="line" smooth="yes"/>
      <point x="295" y="153"/>
      <point x="279" y="123"/>
      <point x="241" y="123" type="curve" smooth="yes"/>
      <point x="204" y="123"/>
      <point x="196" y="151"/>
      <point x="201" y="185" type="curve" smooth="yes"/>
      <point x="272" y="696" type="line"/>
      <point x="78" y="696" type="line"/>
      <point x="10" y="210" type="line" smooth="yes"/>
      <point x="-8" y="85"/>
      <point x="57" y="-19"/>
      <point x="229" y="-19" type="curve" smooth="yes"/>
      <point x="389" y="-19"/>
      <point x="479" y="80"/>
      <point x="497" y="204" type="curve" smooth="yes"/>
      <point x="566" y="696" type="line"/>
    </contour>
    <contour>
      <point x="345" y="0" type="move" name="ogonek"/>
    </contour>
    <contour>
      <point x="321" y="696" type="move" name="top"/>
    </contour>
    <contour>
      <point x="573" y="696" type="move" name="topright"/>
    </contour>
    <contour>
      <point x="224" y="0" type="move" name="bottom"/>
    </contour>
  </outline>
</glyph>
<glyph name="V" format="1">
  <advance width="486"/>
  <unicode hex="0056"/>
  <outline>
    <contour>
      <point x="369" y="696" type="line"/>
      <point x="233" y="140" type="line"/>
      <point x="237" y="696" type="line"/>
      <point x="40" y="696" type="line"/>
      <point x="84" y="0" type="line"/>
      <point x="341" y="0" type="line"/>
      <point x="566" y="696" type="line"/>
    </contour>
    <contour>
      <point x="302" y="696" type="move" name="top"/>
    </contour>
    <contour>
      <point x="212" y="0" type="move" name="bottom"/>
    </contour>
  </outline>
</glyph>
<glyph name="W" format="1">
  <advance width="710"/>
  <unicode hex="0057"/>
  <outline>
    <contour>
      <point x="583" y="696" type="line"/>
      <point x="473" y="144" type="line"/>
      <point x="513" y="696" type="line"/>
      <point x="319" y="696" type="line"/>
      <point x="196" y="144" type="line"/>
      <point x="250" y="696" type="line"/>
      <point x="60" y="696" type="line"/>
      <point x="30" y="0" type="line"/>
      <point x="283" y="0" type="line"/>
      <point x="386" y="511" type="line"/>
      <point x="347" y="0" type="line"/>
      <point x="602" y="0" type="line"/>
      <point x="770" y="696" type="line"/>
    </contour>
    <contour>
      <point x="418" y="696" type="move" name="top"/>
    </contour>
    <contour>
      <point x="317" y="0" type="move" name="bottom"/>
    </contour>
  </outline>
</glyph>
<glyph name="X" format="1">
  <advance width="503"/>
  <unicode hex="0058"/>
  <outline>
    <contour>
      <point x="56" y="696" type="line"/>
      <point x="145" y="369" type="line"/>
      <point x="246" y="255" type="line"/>
      <point x="274" y="0" type="line"/>
      <point x="477" y="0" type="line"/>
      <point x="378" y="375" type="line"/>
      <point x="275" y="476" type="line"/>
      <point x="259" y="696" type="line"/>
    </contour>
    <contour>
      <point x="356" y="696" type="line"/>
      <point x="275" y="476" type="line"/>
      <point x="145" y="369" type="line"/>
      <point x="-50" y="0" type="line"/>
      <point x="160" y="0" type="line"/>
      <point x="246" y="255" type="line"/>
      <point x="378" y="375" type="line"/>
      <point x="564" y="696" type="line"/>
    </contour>
    <contour>
      <point x="311" y="696" type="move" name="top"/>
    </contour>
    <contour>
      <point x="213" y="0" type="move" name="bottom"/>
    </contour>
    <contour>
      <point x="423" y="0" type="move" name="bottomright"/>
    </contour>
  </outline>
</glyph>
<glyph name="Y" format="1">
  <advance width="514"/>
  <unicode hex="0059"/>
  <outline>
    <contour>
      <point x="386" y="696" type="line"/>
      <point x="279" y="402" type="line"/>
      <point x="246" y="696" type="line"/>
      <point x="42" y="696" type="line"/>
      <point x="159" y="257" type="line"/>
      <point x="123" y="0" type="line"/>
      <point x="317" y="0" type="line"/>
      <point x="353" y="257" type="line"/>
      <point x="592" y="696" type="line"/>
    </contour>
    <contour>
      <point x="314" y="696" type="move" name="top"/>
    </contour>
    <contour>
      <point x="220" y="0" type="move" name="bottom"/>
    </contour>
    <contour>
      <point x="43" y="696" type="move" name="topleft"/>
    </contour>
  </outline>
</glyph>
<glyph name="Z" format="1">
  <advance width="457"/>
  <unicode hex="005A"/>
  <outline>
    <contour>
      <point x="395" y="0" type="line"/>
      <point x="438" y="155" type="line"/>
      <point x="198" y="155" type="line"/>
      <point x="477" y="549" type="line"/>
      <point x="499" y="696" type="line"/>
      <point x="82" y="696" type="line"/>
      <point x="59" y="546" type="line"/>
      <point x="265" y="546" type="line"/>
      <point x="-14" y="145" type="line"/>
      <point x="-35" y="0" type="line"/>
    </contour>
    <contour>
      <point x="285" y="696" type="move" name="top"/>
    </contour>
    <contour>
      <point x="180" y="0" type="move" name="bottom"/>
    </contour>
  </outline>
</glyph>
<glyph name="bracketleft" format="1">
  <advance width="274"/>
  <unicode hex="005B"/>
  <outline>
    <contour>
      <point x="85" y="826" type="line"/>
      <point x="-51" y="-126" type="line"/>
      <point x="214" y="-126" type="line"/>
      <point x="234" y="11" type="line"/>
      <point x="149" y="11" type="line"/>
      <point x="239" y="688" type="line"/>
      <point x="327" y="688" type="line"/>
      <point x="346" y="826" type="line"/>
    </contour>
  </outline>
</glyph>
<glyph name="bracketright" format="1">
  <advance width="272"/>
  <unicode hex="005D"/>
  <outline>
    <contour>
      <point x="83" y="826" type="line"/>
      <point x="65" y="689" type="line"/>
      <point x="148" y="689" type="line"/>
      <point x="58" y="12" type="line"/>
      <point x="-29" y="12" type="line"/>
      <point x="-49" y="-126" type="line"/>
      <point x="212" y="-126" type="line"/>
      <point x="347" y="826" type="line"/>
    </contour>
  </outline>
</glyph>
<glyph name="a" format="1">
  <advance width="483"/>
  <unicode hex="0061"/>
  <outline>
    <contour>
      <point x="82" y="554"/>
      <point x="7" y="365"/>
      <point x="7" y="172" type="curve" smooth="yes"/>
      <point x="7" y="55"/>
      <point x="53" y="-20"/>
      <point x="144" y="-20" type="curve" smooth="yes"/>
      <point x="204" y="-20"/>
      <point x="242" y="9"/>
      <point x="277" y="58" type="curve"/>
      <point x="297" y="11"/>
      <point x="350" y="-11"/>
      <point x="405" y="-16" type="curve"/>
      <point x="462" y="106" type="line"/>
      <point x="442" y="116"/>
      <point x="441" y="133"/>
      <point x="446" y="168" type="curve" smooth="yes"/>
      <point x="493" y="499" type="line"/>
      <point x="435" y="533"/>
      <point x="368" y="554"/>
      <point x="298" y="554" type="curve" smooth="yes"/>
    </contour>
    <contour>
      <point x="285" y="423"/>
      <point x="291" y="422"/>
      <point x="297" y="420" type="curve"/>
      <point x="261" y="164" type="line"/>
      <point x="246" y="138"/>
      <point x="231" y="117"/>
      <point x="215" y="117" type="curve" smooth="yes"/>
      <point x="202" y="117"/>
      <point x="194" y="127"/>
      <point x="194" y="167" type="curve" smooth="yes"/>
      <point x="194" y="288"/>
      <point x="221" y="423"/>
      <point x="279" y="423" type="curve" smooth="yes"/>
    </contour>
    <contour>
      <point x="412" y="-16" type="move" name="ogonek"/>
    </contour>
    <contour>
      <point x="222" y="0" type="move" name="bottom"/>
    </contour>
    <contour>
      <point x="303" y="534" type="move" name="top"/>
    </contour>
  </outline>
</glyph>
<glyph name="b" format="1">
  <advance width="495"/>
  <unicode hex="0062"/>
  <outline>
    <contour>
      <point x="312" y="554"/>
      <point x="269" y="530"/>
      <point x="242" y="497" type="curve"/>
      <point x="279" y="764" type="line"/>
      <point x="91" y="744" type="line"/>
      <point x="-9" y="26" type="line"/>
      <point x="57" y="-2"/>
      <point x="131" y="-20"/>
      <point x="192" y="-20" type="curve" smooth="yes"/>
      <point x="412" y="-20"/>
      <point x="487" y="145"/>
      <point x="487" y="376" type="curve" smooth="yes"/>
      <point x="487" y="491"/>
      <point x="442" y="554"/>
      <point x="361" y="554" type="curve" smooth="yes"/>
    </contour>
    <contour>
      <point x="288" y="417"/>
      <point x="298" y="410"/>
      <point x="298" y="362" type="curve" smooth="yes"/>
      <point x="298" y="262"/>
      <point x="276" y="115"/>
      <point x="219" y="115" type="curve" smooth="yes"/>
      <point x="208" y="115"/>
      <point x="200" y="118"/>
      <point x="191" y="122" type="curve"/>
      <point x="226" y="377" type="line"/>
      <point x="244" y="404"/>
      <point x="261" y="417"/>
      <point x="275" y="417" type="curve" smooth="yes"/>
    </contour>
    <contour>
      <point x="339" y="744" type="move" name="top"/>
    </contour>
    <contour>
      <point x="201" y="0" type="move" name="bottom"/>
    </contour>
  </outline>
</glyph>
<glyph name="c" format="1">
  <advance width="402"/>
  <unicode hex="0063"/>
  <outline>
    <contour>
      <point x="117" y="554"/>
      <point x="11" y="407"/>
      <point x="11" y="204" type="curve" smooth="yes"/>
      <point x="11" y="63"/>
      <point x="88" y="-20"/>
      <point x="215" y="-20" type="curve" smooth="yes"/>
      <point x="285" y="-20"/>
      <point x="339" y="5"/>
      <point x="385" y="44" type="curve"/>
      <point x="321" y="152" type="line"/>
      <point x="292" y="134"/>
      <point x="272" y="125"/>
      <point x="251" y="125" type="curve" smooth="yes"/>
      <point x="224" y="125"/>
      <point x="204" y="136"/>
      <point x="204" y="201" type="curve" smooth="yes"/>
      <point x="204" y="296"/>
      <point x="226" y="412"/>
      <point x="294" y="412" type="curve" smooth="yes"/>
      <point x="317" y="412"/>
      <point x="336" y="403"/>
      <point x="359" y="384" type="curve"/>
      <point x="447" y="483" type="line"/>
      <point x="409" y="527"/>
      <point x="359" y="554"/>
      <point x="286" y="554" type="curve" smooth="yes"/>
    </contour>
    <contour>
      <point x="280" y="534" type="move" name="top"/>
    </contour>
    <contour>
      <point x="197" y="0" type="move" name="bottom"/>
    </contour>
  </outline>
</glyph>
<glyph name="d" format="1">
  <advance width="495"/>
  <unicode hex="0064"/>
  <outline>
    <contour>
      <point x="318" y="511" type="line"/>
      <point x="298" y="538"/>
      <point x="269" y="554"/>
      <point x="229" y="554" type="curve" smooth="yes"/>
      <point x="86" y="554"/>
      <point x="7" y="364"/>
      <point x="7" y="171" type="curve" smooth="yes"/>
      <point x="7" y="45"/>
      <point x="57" y="-20"/>
      <point x="141" y="-20" type="curve" smooth="yes"/>
      <point x="200" y="-20"/>
      <point x="236" y="8"/>
      <point x="270" y="56" type="curve"/>
      <point x="268" y="0" type="line"/>
      <point x="433" y="0" type="line"/>
      <point x="537" y="744" type="line"/>
      <point x="353" y="763" type="line"/>
    </contour>
    <contour>
      <point x="285" y="418"/>
      <point x="294" y="411"/>
      <point x="302" y="398" type="curve"/>
      <point x="269" y="163" type="line"/>
      <point x="253" y="135"/>
      <point x="235" y="116"/>
      <point x="220" y="116" type="curve" smooth="yes"/>
      <point x="207" y="116"/>
      <point x="197" y="123"/>
      <point x="197" y="174" type="curve" smooth="yes"/>
      <point x="197" y="264"/>
      <point x="222" y="418"/>
      <point x="272" y="418" type="curve" smooth="yes"/>
    </contour>
    <contour>
      <point x="228" y="0" type="move" name="bottom"/>
    </contour>
    <contour>
      <point x="311" y="744" type="move" name="top"/>
    </contour>
    <contour>
      <point x="546" y="744" type="move" name="topright"/>
    </contour>
    <contour>
      <point x="249" y="267" type="move" name="center"/>
    </contour>
  </outline>
</glyph>
<glyph name="e" format="1">
  <advance width="469"/>
  <unicode hex="0065"/>
  <outline>
    <contour>
      <point x="106" y="554"/>
      <point x="13" y="398"/>
      <point x="9" y="196" type="curve" smooth="yes"/>
      <point x="6" y="46"/>
      <point x="89" y="-21"/>
      <point x="216" y="-20" type="curve"/>
      <point x="299" y="-20"/>
      <point x="366" y="13"/>
      <point x="416" y="56" type="curve"/>
      <point x="355" y="162" type="line"/>
      <point x="314" y="133"/>
      <point x="284" y="116"/>
      <point x="247" y="116" type="curve" smooth="yes"/>
      <point x="209" y="116"/>
      <point x="191" y="138"/>
      <point x="191" y="177" type="curve" smooth="yes"/>
      <point x="191" y="267"/>
      <point x="215" y="432"/>
      <point x="274" y="432" type="curve" smooth="yes"/>
      <point x="290" y="432"/>
      <point x="298" y="422"/>
      <point x="298" y="404" type="curve" smooth="yes"/>
      <point x="298" y="366"/>
      <point x="277" y="303"/>
      <point x="196" y="299" type="curve"/>
      <point x="179" y="190" type="line"/>
      <point x="313" y="203"/>
      <point x="470" y="250"/>
      <point x="476" y="403" type="curve" smooth="yes"/>
      <point x="479" y="491"/>
      <point x="410" y="554"/>
      <point x="297" y="554" type="curve" smooth="yes"/>
    </contour>
    <contour>
      <point x="355" y="11" type="move" name="ogonek"/>
    </contour>
    <contour>
      <point x="216" y="0" type="move" name="bottom"/>
    </contour>
    <contour>
      <point x="288" y="534" type="move" name="top"/>
    </contour>
  </outline>
</glyph>
<glyph name="f" format="1">
  <advance width="316"/>
  <unicode hex="0066"/>
  <outline>
    <contour>
      <point x="182" y="764"/>
      <point x="108" y="679"/>
      <point x="93" y="569" type="curve" smooth="yes"/>
      <point x="25" y="63" type="line" smooth="yes"/>
      <point x="12" y="-30"/>
      <point x="-20" y="-63"/>
      <point x="-86" y="-90" type="curve"/>
      <point x="-45" y="-226" type="line"/>
      <point x="71" y="-184"/>
      <point x="185" y="-128"/>
      <point x="212" y="73" type="curve" smooth="yes"/>
      <point x="277" y="558" type="line" smooth="yes"/>
      <point x="284" y="608"/>
      <point x="302" y="627"/>
      <point x="333" y="627" type="curve" smooth="yes"/>
      <point x="352" y="627"/>
      <point x="369" y="622"/>
      <point x="389" y="610" type="curve"/>
      <point x="454" y="718" type="line"/>
      <point x="424" y="742"/>
      <point x="375" y="764"/>
      <point x="312" y="764" type="curve" smooth="yes"/>
    </contour>
    <contour>
      <point x="37" y="534" type="line"/>
      <point x="19" y="405" type="line"/>
      <point x="335" y="405" type="line"/>
      <point x="375" y="534" type="line"/>
    </contour>
    <contour>
      <point x="297" y="744" type="move" name="top"/>
    </contour>
    <contour>
      <point x="77" y="-215" type="move" name="bottom"/>
    </contour>
  </outline>
</glyph>
<glyph name="g" format="1">
  <advance width="485"/>
  <unicode hex="0067"/>
  <outline>
    <contour>
      <point x="84" y="554"/>
      <point x="10" y="384"/>
      <point x="10" y="191" type="curve" smooth="yes"/>
      <point x="10" y="74"/>
      <point x="56" y="-1"/>
      <point x="143" y="-1" type="curve" smooth="yes"/>
      <point x="195" y="-1"/>
      <point x="230" y="25"/>
      <point x="255" y="63" type="curve"/>
      <point x="246" y="0" type="line" smooth="yes"/>
      <point x="236" y="-70"/>
      <point x="202" y="-86"/>
      <point x="162" y="-86" type="curve" smooth="yes"/>
      <point x="125" y="-86"/>
      <point x="93" y="-76"/>
      <point x="49" y="-50" type="curve"/>
      <point x="-15" y="-169" type="line"/>
      <point x="36" y="-204"/>
      <point x="97" y="-226"/>
      <point x="169" y="-226" type="curve" smooth="yes"/>
      <point x="329" y="-226"/>
      <point x="406" y="-140"/>
      <point x="431" y="35" type="curve" smooth="yes"/>
      <point x="496" y="499" type="line"/>
      <point x="438" y="533"/>
      <point x="369" y="554"/>
      <point x="299" y="554" type="curve" smooth="yes"/>
    </contour>
    <contour>
      <point x="286" y="423"/>
      <point x="293" y="422"/>
      <point x="299" y="420" type="curve"/>
      <point x="267" y="183" type="line"/>
      <point x="252" y="157"/>
      <point x="233" y="136"/>
      <point x="218" y="136" type="curve" smooth="yes"/>
      <point x="205" y="136"/>
      <point x="197" y="146"/>
      <point x="197" y="186" type="curve" smooth="yes"/>
      <point x="197" y="308"/>
      <point x="223" y="423"/>
      <point x="280" y="423" type="curve" smooth="yes"/>
    </contour>
    <contour>
      <point x="290" y="534" type="move" name="top"/>
    </contour>
    <contour>
      <point x="163" y="-215" type="move" name="bottom"/>
    </contour>
  </outline>
</glyph>
<glyph name="h" format="1">
  <advance width="465"/>
  <unicode hex="0068"/>
  <outline>
    <contour>
      <point x="305" y="554"/>
      <point x="262" y="505"/>
      <point x="238" y="464" type="curve"/>
      <point x="279" y="763" type="line"/>
      <point x="91" y="744" type="line"/>
      <point x="-13" y="0" type="line"/>
      <point x="173" y="0" type="line"/>
      <point x="214" y="294" type="line"/>
      <point x="243" y="359"/>
      <point x="254" y="383"/>
      <point x="264" y="383" type="curve" smooth="yes"/>
      <point x="270" y="383"/>
      <point x="271" y="376"/>
      <point x="269" y="358" type="curve" smooth="yes"/>
      <point x="220" y="0" type="line"/>
      <point x="406" y="0" type="line"/>
      <point x="462" y="395" type="line" smooth="yes"/>
      <point x="476" y="493"/>
      <point x="439" y="554"/>
      <point x="367" y="554" type="curve" smooth="yes"/>
    </contour>
    <contour>
      <point x="232" y="267" type="move" name="center"/>
    </contour>
    <contour>
      <point x="197" y="0" type="move" name="bottom"/>
    </contour>
    <contour>
      <point x="299" y="744" type="move" name="top"/>
    </contour>
  </outline>
</glyph>
<glyph name="k" format="1">
  <advance width="499"/>
  <unicode hex="006B"/>
  <outline>
    <contour>
      <point x="91" y="744" type="line"/>
      <point x="-13" y="0" type="line"/>
      <point x="174" y="0" type="line"/>
      <point x="221" y="345" type="line"/>
      <point x="256" y="400"/>
      <point x="283" y="424"/>
      <point x="306" y="424" type="curve" smooth="yes"/>
      <point x="321" y="424"/>
      <point x="331" y="413"/>
      <point x="331" y="390" type="curve" smooth="yes"/>
      <point x="331" y="345"/>
      <point x="312" y="298"/>
      <point x="222" y="256" type="curve"/>
      <point x="269" y="0" type="line"/>
      <point x="461" y="0" type="line"/>
      <point x="404" y="243" type="line"/>
      <point x="481" y="297"/>
      <point x="518" y="348"/>
      <point x="518" y="430" type="curve" smooth="yes"/>
      <point x="518" y="503"/>
      <point x="468" y="553"/>
      <point x="391" y="553" type="curve" smooth="yes"/>
      <point x="332" y="553"/>
      <point x="286" y="531"/>
      <point x="242" y="480" type="curve"/>
      <point x="280" y="763" type="line"/>
    </contour>
    <contour>
      <point x="346" y="744" type="move" name="top"/>
    </contour>
    <contour>
      <point x="222" y="0" type="move" name="bottom"/>
    </contour>
  </outline>
</glyph>
<glyph name="l" format="1">
  <advance width="251"/>
  <unicode hex="006C"/>
  <outline>
    <contour>
      <point x="86" y="744" type="line"/>
      <point x="2" y="140" type="line" smooth="yes"/>
      <point x="-12" y="42"/>
      <point x="31" y="-19"/>
      <point x="128" y="-19" type="curve" smooth="yes"/>
      <point x="165" y="-19"/>
      <point x="203" y="-10"/>
      <point x="229" y="1" type="curve"/>
      <point x="218" y="132" type="line"/>
      <point x="214" y="131"/>
      <point x="210" y="130"/>
      <point x="205" y="130" type="curve" smooth="yes"/>
      <point x="193" y="130"/>
      <point x="188" y="137"/>
      <point x="191" y="156" type="curve" smooth="yes"/>
      <point x="273" y="763" type="line"/>
    </contour>
    <contour>
      <point x="118" y="0" type="move" name="bottom"/>
    </contour>
    <contour>
      <point x="178" y="744" type="move" name="top"/>
    </contour>
    <contour>
      <point x="289" y="744" type="move" name="topright"/>
    </contour>
    <contour>
      <point x="352" y="374" type="move" name="center"/>
    </contour>
  </outline>
</glyph>
<glyph name="m" format="1">
  <advance width="679"/>
  <unicode hex="006D"/>
  <outline>
    <contour>
      <point x="300" y="554"/>
      <point x="258" y="513"/>
      <point x="225" y="460" type="curve"/>
      <point x="224" y="534" type="line"/>
      <point x="62" y="534" type="line"/>
      <point x="-12" y="0" type="line"/>
      <point x="174" y="0" type="line"/>
      <point x="215" y="297" type="line"/>
      <point x="239" y="367"/>
      <point x="248" y="388"/>
      <point x="256" y="388" type="curve" smooth="yes"/>
      <point x="261" y="388"/>
      <point x="263" y="381"/>
      <point x="260" y="358" type="curve" smooth="yes"/>
      <point x="211" y="0" type="line"/>
      <point x="397" y="0" type="line"/>
      <point x="453" y="395" type="line" smooth="yes"/>
      <point x="467" y="493"/>
      <point x="430" y="554"/>
      <point x="357" y="554" type="curve" smooth="yes"/>
    </contour>
    <contour>
      <point x="523" y="554"/>
      <point x="481" y="513"/>
      <point x="448" y="460" type="curve"/>
      <point x="438" y="297" type="line"/>
      <point x="462" y="367"/>
      <point x="471" y="388"/>
      <point x="479" y="388" type="curve" smooth="yes"/>
      <point x="484" y="388"/>
      <point x="486" y="381"/>
      <point x="483" y="358" type="curve" smooth="yes"/>
      <point x="434" y="0" type="line"/>
      <point x="620" y="0" type="line"/>
      <point x="676" y="395" type="line" smooth="yes"/>
      <point x="690" y="493"/>
      <point x="653" y="554"/>
      <point x="580" y="554" type="curve" smooth="yes"/>
    </contour>
    <contour>
      <point x="382" y="534" type="move" name="top"/>
    </contour>
    <contour>
      <point x="304" y="0" type="move" name="bottom"/>
    </contour>
  </outline>
</glyph>
<glyph name="n" format="1">
  <advance width="466"/>
  <unicode hex="006E"/>
  <outline>
    <contour>
      <point x="305" y="554"/>
      <point x="259" y="510"/>
      <point x="225" y="457" type="curve"/>
      <point x="224" y="534" type="line"/>
      <point x="62" y="534" type="line"/>
      <point x="-12" y="0" type="line"/>
      <point x="174" y="0" type="line"/>
      <point x="215" y="294" type="line"/>
      <point x="244" y="359"/>
      <point x="255" y="383"/>
      <point x="265" y="383" type="curve" smooth="yes"/>
      <point x="271" y="383"/>
      <point x="272" y="376"/>
      <point x="270" y="358" type="curve" smooth="yes"/>
      <point x="221" y="0" type="line"/>
      <point x="407" y="0" type="line"/>
      <point x="463" y="395" type="line" smooth="yes"/>
      <point x="477" y="493"/>
      <point x="440" y="554"/>
      <point x="367" y="554" type="curve" smooth="yes"/>
    </contour>
    <contour>
      <point x="275" y="534" type="move" name="top"/>
    </contour>
    <contour>
      <point x="198" y="0" type="move" name="bottom"/>
    </contour>
    <contour>
      <point x="56" y="534" type="move" name="topleft"/>
    </contour>
  </outline>
</glyph>
<glyph name="o" format="1">
  <advance width="494"/>
  <unicode hex="006F"/>
  <outline>
    <contour>
      <point x="392" y="-20"/>
      <point x="484" y="144"/>
      <point x="484" y="337" type="curve" smooth="yes"/>
      <point x="484" y="485"/>
      <point x="405" y="554"/>
      <point x="284" y="554" type="curve" smooth="yes"/>
      <point x="101" y="554"/>
      <point x="10" y="388"/>
      <point x="10" y="196" type="curve" smooth="yes"/>
      <point x="10" y="48"/>
      <point x="88" y="-20"/>
      <point x="210" y="-20" type="curve" smooth="yes"/>
    </contour>
    <contour>
      <point x="206" y="116"/>
      <point x="197" y="128"/>
      <point x="197" y="167" type="curve" smooth="yes"/>
      <point x="197" y="257"/>
      <point x="217" y="417"/>
      <point x="270" y="417" type="curve" smooth="yes"/>
      <point x="288" y="417"/>
      <point x="297" y="405"/>
      <point x="297" y="367" type="curve" smooth="yes"/>
      <point x="297" y="277"/>
      <point x="276" y="116"/>
      <point x="224" y="116" type="curve" smooth="yes"/>
    </contour>
    <contour>
      <point x="318" y="0" type="move" name="ogonek"/>
    </contour>
    <contour>
      <point x="282" y="534" type="move" name="top"/>
    </contour>
    <contour>
      <point x="466" y="534" type="move" name="topright"/>
    </contour>
    <contour>
      <point x="212" y="0" type="move" name="bottom"/>
    </contour>
  </outline>
</glyph>
<glyph name="p" format="1">
  <advance width="494"/>
  <unicode hex="0070"/>
  <outline>
    <contour>
      <point x="144" y="-208" type="line"/>
      <point x="171" y="-12" type="line"/>
      <point x="191" y="-17"/>
      <point x="214" y="-20"/>
      <point x="237" y="-20" type="curve" smooth="yes"/>
      <point x="410" y="-20"/>
      <point x="487" y="150"/>
      <point x="487" y="376" type="curve" smooth="yes"/>
      <point x="487" y="491"/>
      <point x="442" y="554"/>
      <point x="361" y="554" type="curve" smooth="yes"/>
      <point x="308" y="554"/>
      <point x="263" y="531"/>
      <point x="228" y="486" type="curve"/>
      <point x="228" y="534" type="line"/>
      <point x="62" y="534" type="line"/>
      <point x="-44" y="-227" type="line"/>
    </contour>
    <contour>
      <point x="209" y="114"/>
      <point x="202" y="116"/>
      <point x="191" y="121" type="curve"/>
      <point x="227" y="378" type="line"/>
      <point x="244" y="404"/>
      <point x="261" y="417"/>
      <point x="275" y="417" type="curve" smooth="yes"/>
      <point x="288" y="417"/>
      <point x="299" y="410"/>
      <point x="299" y="367" type="curve" smooth="yes"/>
      <point x="299" y="283"/>
      <point x="278" y="114"/>
      <point x="218" y="114" type="curve" smooth="yes"/>
    </contour>
    <contour>
      <point x="283" y="534" type="move" name="top"/>
    </contour>
    <contour>
      <point x="178" y="-215" type="move" name="bottom"/>
    </contour>
  </outline>
</glyph>
<glyph name="q" format="1">
  <advance width="491"/>
  <unicode hex="0071"/>
  <outline>
    <contour>
      <point x="403" y="-208" type="line"/>
      <point x="499" y="499" type="line"/>
      <point x="441" y="533"/>
      <point x="373" y="554"/>
      <point x="299" y="554" type="curve" smooth="yes"/>
      <point x="85" y="554"/>
      <point x="8" y="372"/>
      <point x="8" y="172" type="curve" smooth="yes"/>
      <point x="8" y="55"/>
      <point x="56" y="-20"/>
      <point x="145" y="-20" type="curve" smooth="yes"/>
      <point x="191" y="-20"/>
      <point x="222" y="0"/>
      <point x="251" y="32" type="curve"/>
      <point x="215" y="-227" type="line"/>
    </contour>
    <contour>
      <point x="203" y="117"/>
      <point x="195" y="129"/>
      <point x="195" y="167" type="curve" smooth="yes"/>
      <point x="195" y="301"/>
      <point x="224" y="423"/>
      <point x="282" y="423" type="curve" smooth="yes"/>
      <point x="290" y="423"/>
      <point x="298" y="422"/>
      <point x="304" y="420" type="curve"/>
      <point x="268" y="164" type="line"/>
      <point x="253" y="138"/>
      <point x="235" y="117"/>
      <point x="217" y="117" type="curve" smooth="yes"/>
    </contour>
    <contour>
      <point x="287" y="534" type="move" name="top"/>
    </contour>
    <contour>
      <point x="182" y="-215" type="move" name="bottom"/>
    </contour>
  </outline>
</glyph>
<glyph name="r" format="1">
  <advance width="340"/>
  <unicode hex="0072"/>
  <outline>
    <contour>
      <point x="290" y="551"/>
      <point x="249" y="507"/>
      <point x="221" y="448" type="curve"/>
      <point x="221" y="534" type="line"/>
      <point x="62" y="534" type="line"/>
      <point x="-12" y="0" type="line"/>
      <point x="174" y="0" type="line"/>
      <point x="206" y="229" type="line"/>
      <point x="225" y="303"/>
      <point x="250" y="366"/>
      <point x="297" y="366" type="curve" smooth="yes"/>
      <point x="310" y="366"/>
      <point x="323" y="363"/>
      <point x="334" y="360" type="curve"/>
      <point x="391" y="542" type="line"/>
      <point x="377" y="548"/>
      <point x="366" y="551"/>
      <point x="348" y="551" type="curve" smooth="yes"/>
    </contour>
    <contour>
      <point x="225" y="534" type="move" name="top"/>
    </contour>
    <contour>
      <point x="81" y="0" type="move" name="bottom"/>
    </contour>
  </outline>
</glyph>
<glyph name="s" format="1">
  <advance width="408"/>
  <unicode hex="0073"/>
  <outline>
    <contour>
      <point x="116" y="554"/>
      <point x="26" y="474"/>
      <point x="26" y="361" type="curve" smooth="yes"/>
      <point x="26" y="286"/>
      <point x="61" y="250"/>
      <point x="130" y="218" type="curve" smooth="yes"/>
      <point x="184" y="193"/>
      <point x="202" y="177"/>
      <point x="202" y="151" type="curve" smooth="yes"/>
      <point x="202" y="125"/>
      <point x="184" y="111"/>
      <point x="154" y="111" type="curve" smooth="yes"/>
      <point x="118" y="111"/>
      <point x="86" y="132"/>
      <point x="57" y="159" type="curve"/>
      <point x="-39" y="64" type="line"/>
      <point x="10" y="12"/>
      <point x="73" y="-20"/>
      <point x="161" y="-20" type="curve" smooth="yes"/>
      <point x="284" y="-20"/>
      <point x="389" y="56"/>
      <point x="389" y="180" type="curve" smooth="yes"/>
      <point x="389" y="256"/>
      <point x="350" y="294"/>
      <point x="287" y="324" type="curve" smooth="yes"/>
      <point x="223" y="355"/>
      <point x="208" y="369"/>
      <point x="208" y="389" type="curve" smooth="yes"/>
      <point x="208" y="408"/>
      <point x="224" y="422"/>
      <point x="251" y="422" type="curve" smooth="yes"/>
      <point x="280" y="422"/>
      <point x="310" y="408"/>
      <point x="338" y="387" type="curve"/>
      <point x="416" y="485" type="line"/>
      <point x="375" y="526"/>
      <point x="311" y="554"/>
      <point x="239" y="554" type="curve" smooth="yes"/>
    </contour>
    <contour>
      <point x="238" y="534" type="move" name="top"/>
    </contour>
    <contour>
      <point x="165" y="0" type="move" name="bottom"/>
    </contour>
  </outline>
</glyph>
<glyph name="t" format="1">
  <advance width="333"/>
  <unicode hex="0074"/>
  <outline>
    <contour>
      <point x="118" y="650" type="line"/>
      <point x="72" y="477" type="line"/>
      <point x="30" y="174" type="line" smooth="yes"/>
      <point x="14" y="55"/>
      <point x="63" y="-20"/>
      <point x="176" y="-20" type="curve" smooth="yes"/>
      <point x="222" y="-20"/>
      <point x="275" y="-7"/>
      <point x="316" y="21" type="curve"/>
      <point x="275" y="138" type="line"/>
      <point x="263" y="132"/>
      <point x="254" y="129"/>
      <point x="242" y="129" type="curve" smooth="yes"/>
      <point x="223" y="129"/>
      <point x="213" y="143"/>
      <point x="217" y="174" type="curve" smooth="yes"/>
      <point x="285" y="669" type="line"/>
    </contour>
    <contour>
      <point x="32" y="534" type="line"/>
      <point x="14" y="405" type="line"/>
      <point x="320" y="405" type="line"/>
      <point x="360" y="534" type="line"/>
    </contour>
    <contour>
      <point x="161" y="0" type="move" name="bottom"/>
    </contour>
    <contour>
      <point x="198" y="650" type="move" name="top"/>
    </contour>
    <contour>
      <point x="306" y="805" type="move" name="topright"/>
    </contour>
    <contour>
      <point x="165" y="267" type="move" name="center"/>
    </contour>
  </outline>
</glyph>
<glyph name="u" format="1">
  <advance width="460"/>
  <unicode hex="0075"/>
  <outline>
    <contour>
      <point x="168" y="-20"/>
      <point x="207" y="21"/>
      <point x="238" y="67" type="curve"/>
      <point x="236" y="0" type="line"/>
      <point x="398" y="0" type="line"/>
      <point x="473" y="534" type="line"/>
      <point x="287" y="534" type="line"/>
      <point x="240" y="193" type="line"/>
      <point x="224" y="160"/>
      <point x="211" y="147"/>
      <point x="202" y="147" type="curve" smooth="yes"/>
      <point x="195" y="147"/>
      <point x="193" y="154"/>
      <point x="195" y="172" type="curve" smooth="yes"/>
      <point x="245" y="534" type="line"/>
      <point x="59" y="534" type="line"/>
      <point x="4" y="139" type="line" smooth="yes"/>
      <point x="-10" y="42"/>
      <point x="29" y="-20"/>
      <point x="103" y="-20" type="curve" smooth="yes"/>
    </contour>
    <contour>
      <point x="405" y="0" type="move" name="ogonek"/>
    </contour>
    <contour>
      <point x="266" y="534" type="move" name="top"/>
    </contour>
    <contour>
      <point x="483" y="534" type="move" name="topright"/>
    </contour>
    <contour>
      <point x="407" y="0" type="move" name="bottomright"/>
    </contour>
    <contour>
      <point x="202" y="0" type="move" name="bottom"/>
    </contour>
  </outline>
</glyph>
<glyph name="v" format="1">
  <advance width="438"/>
  <unicode hex="0076"/>
  <outline>
    <contour>
      <point x="299" y="534" type="line"/>
      <point x="207" y="138" type="line"/>
      <point x="218" y="534" type="line"/>
      <point x="23" y="534" type="line"/>
      <point x="75" y="0" type="line"/>
      <point x="300" y="0" type="line"/>
      <point x="491" y="534" type="line"/>
    </contour>
    <contour>
      <point x="259" y="534" type="move" name="top"/>
    </contour>
    <contour>
      <point x="187" y="0" type="move" name="bottom"/>
    </contour>
  </outline>
</glyph>
<glyph name="w" format="1">
  <advance width="643"/>
  <unicode hex="0077"/>
  <outline>
    <contour>
      <point x="505" y="534" type="line"/>
      <point x="432" y="144" type="line"/>
      <point x="448" y="534" type="line"/>
      <point x="279" y="534" type="line"/>
      <point x="181" y="144" type="line"/>
      <point x="222" y="534" type="line"/>
      <point x="35" y="534" type="line"/>
      <point x="42" y="0" type="line"/>
      <point x="252" y="0" type="line"/>
      <point x="333" y="364" type="line"/>
      <point x="324" y="0" type="line"/>
      <point x="529" y="0" type="line"/>
      <point x="684" y="534" type="line"/>
    </contour>
    <contour>
      <point x="359" y="534" type="move" name="top"/>
    </contour>
    <contour>
      <point x="289" y="0" type="move" name="bottom"/>
    </contour>
  </outline>
</glyph>
<glyph name="x" format="1">
  <advance width="438"/>
  <unicode hex="0078"/>
  <outline>
    <contour>
      <point x="24" y="534" type="line"/>
      <point x="106" y="283" type="line"/>
      <point x="200" y="181" type="line"/>
      <point x="227" y="0" type="line"/>
      <point x="420" y="0" type="line"/>
      <point x="335" y="281" type="line"/>
      <point x="235" y="374" type="line"/>
      <point x="219" y="534" type="line"/>
    </contour>
    <contour>
      <point x="286" y="534" type="line"/>
      <point x="235" y="374" type="line"/>
      <point x="106" y="283" type="line"/>
      <point x="-58" y="0" type="line"/>
      <point x="130" y="0" type="line"/>
      <point x="200" y="181" type="line"/>
      <point x="335" y="281" type="line"/>
      <point x="469" y="534" type="line"/>
    </contour>
    <contour>
      <point x="252" y="534" type="move" name="top"/>
    </contour>
    <contour>
      <point x="179" y="0" type="move" name="bottom"/>
    </contour>
    <contour>
      <point x="358" y="0" type="move" name="bottomright"/>
    </contour>
  </outline>
</glyph>
<glyph name="y" format="1">
  <advance width="445"/>
  <unicode hex="0079"/>
  <outline>
    <contour>
      <point x="302" y="534" type="line"/>
      <point x="198" y="118" type="line"/>
      <point x="215" y="534" type="line"/>
      <point x="23" y="534" type="line"/>
      <point x="64" y="0" type="line"/>
      <point x="130" y="0" type="line"/>
      <point x="97" y="-68"/>
      <point x="57" y="-89"/>
      <point x="-27" y="-100" type="curve"/>
      <point x="-25" y="-227" type="line"/>
      <point x="127" y="-221"/>
      <point x="237" y="-162"/>
      <point x="298" y="0" type="curve" smooth="yes"/>
      <point x="498" y="534" type="line"/>
    </contour>
    <contour>
      <point x="260" y="534" type="move" name="top"/>
    </contour>
    <contour>
      <point x="164" y="-215" type="move" name="bottom"/>
    </contour>
  </outline>
</glyph>
<glyph name="z" format="1">
  <advance width="394"/>
  <unicode hex="007A"/>
  <outline>
    <contour>
      <point x="54" y="534" type="line"/>
      <point x="33" y="395" type="line"/>
      <point x="179" y="395" type="line"/>
      <point x="-16" y="133" type="line"/>
      <point x="-35" y="0" type="line"/>
      <point x="336" y="0" type="line"/>
      <point x="373" y="141" type="line"/>
      <point x="204" y="141" type="line"/>
      <point x="399" y="403" type="line"/>
      <point x="418" y="534" type="line"/>
    </contour>
    <contour>
      <point x="237" y="534" type="move" name="top"/>
    </contour>
    <contour>
      <point x="150" y="0" type="move" name="bottom"/>
    </contour>
  </outline>
</glyph>
<glyph name="braceleft" format="1">
  <advance width="268"/>
  <unicode hex="007B"/>
  <outline>
    <contour>
      <point x="167" y="842"/>
      <point x="121" y="781"/>
      <point x="106" y="660" type="curve" smooth="yes"/>
      <point x="86" y="502" type="line" smooth="yes"/>
      <point x="79" y="448"/>
      <point x="63" y="428"/>
      <point x="23" y="428" type="curve"/>
      <point x="1" y="272" type="line"/>
      <point x="37" y="272"/>
      <point x="46" y="255"/>
      <point x="39" y="200" type="curve" smooth="yes"/>
      <point x="19" y="41" type="line" smooth="yes"/>
      <point x="3" y="-83"/>
      <point x="53" y="-142"/>
      <point x="210" y="-142" type="curve"/>
      <point x="229" y="-12" type="line"/>
      <point x="189" y="-12"/>
      <point x="183" y="2"/>
      <point x="188" y="42" type="curve" smooth="yes"/>
      <point x="209" y="202" type="line" smooth="yes"/>
      <point x="222" y="298"/>
      <point x="194" y="336"/>
      <point x="127" y="348" type="curve"/>
      <point x="197" y="366"/>
      <point x="244" y="399"/>
      <point x="255" y="496" type="curve" smooth="yes"/>
      <point x="275" y="657" type="line" smooth="yes"/>
      <point x="280" y="700"/>
      <point x="290" y="712"/>
      <point x="326" y="712" type="curve"/>
      <point x="343" y="842" type="line"/>
    </contour>
  </outline>
</glyph>
<glyph name="braceright" format="1">
  <advance width="268"/>
  <unicode hex="007D"/>
  <outline>
    <contour>
      <point x="125" y="-142"/>
      <point x="171" y="-81"/>
      <point x="186" y="40" type="curve" smooth="yes"/>
      <point x="206" y="198" type="line" smooth="yes"/>
      <point x="213" y="252"/>
      <point x="229" y="272"/>
      <point x="269" y="272" type="curve"/>
      <point x="291" y="428" type="line"/>
      <point x="255" y="428"/>
      <point x="246" y="445"/>
      <point x="253" y="500" type="curve" smooth="yes"/>
      <point x="273" y="659" type="line" smooth="yes"/>
      <point x="289" y="783"/>
      <point x="239" y="842"/>
      <point x="82" y="842" type="curve"/>
      <point x="63" y="712" type="line"/>
      <point x="103" y="712"/>
      <point x="109" y="698"/>
      <point x="104" y="658" type="curve" smooth="yes"/>
      <point x="83" y="498" type="line" smooth="yes"/>
      <point x="70" y="402"/>
      <point x="98" y="364"/>
      <point x="165" y="352" type="curve"/>
      <point x="95" y="334"/>
      <point x="48" y="301"/>
      <point x="37" y="204" type="curve" smooth="yes"/>
      <point x="17" y="43" type="line" smooth="yes"/>
      <point x="12" y="0"/>
      <point x="2" y="-12"/>
      <point x="-34" y="-12" type="curve"/>
      <point x="-51" y="-142" type="line"/>
    </contour>
  </outline>
</glyph>
<glyph name="asciitilde" format="1">
  <advance width="449"/>
  <unicode hex="007E"/>
  <outline>
    <contour>
      <point x="367" y="223"/>
      <point x="416" y="292"/>
      <point x="460" y="363" type="curve"/>
      <point x="376" y="412" type="line"/>
      <point x="355" y="382"/>
      <point x="341" y="363"/>
      <point x="311" y="363" type="curve" smooth="yes"/>
      <point x="268" y="363"/>
      <point x="244" y="423"/>
      <point x="173" y="423" type="curve" smooth="yes"/>
      <point x="97" y="423"/>
      <point x="48" y="354"/>
      <point x="4" y="283" type="curve"/>
      <point x="85" y="232" type="line"/>
      <point x="108" y="263"/>
      <point x="124" y="283"/>
      <point x="150" y="283" type="curve" smooth="yes"/>
      <point x="194" y="283"/>
      <point x="220" y="223"/>
      <point x="290" y="223" type="curve" smooth="yes"/>
    </contour>
  </outline>
</glyph>
<glyph name="exclamdown" format="1">
  <advance width="231"/>
  <unicode hex="00A1"/>
  <outline>
    <contour>
      <point x="32" y="229" type="line"/>
      <point x="-55" y="-207" type="line"/>
      <point x="139" y="-207" type="line"/>
      <point x="175" y="229" type="line"/>
    </contour>
    <component base="period" xOffset="53" yOffset="335"/>
  </outline>
</glyph>
<glyph name="cent" format="1">
  <advance width="402"/>
  <unicode hex="00A2"/>
  <outline>
    <contour>
      <point x="238" y="696" type="line"/>
      <point x="214" y="535" type="line"/>
      <point x="337" y="538" type="line"/>
      <point x="359" y="696" type="line"/>
    </contour>
    <contour>
      <point x="115" y="-164" type="line"/>
      <point x="238" y="-164" type="line"/>
      <point x="262" y="-5" type="line"/>
      <point x="140" y="-1" type="line"/>
    </contour>
    <component base="c"/>
  </outline>
</glyph>
<glyph name="sterling" format="1">
  <advance width="458"/>
  <unicode hex="00A3"/>
  <outline>
    <contour>
      <point x="297" y="484" type="line" smooth="yes"/>
      <point x="304" y="535"/>
      <point x="312" y="557"/>
      <point x="343" y="557" type="curve" smooth="yes"/>
      <point x="363" y="557"/>
      <point x="377" y="547"/>
      <point x="392" y="514" type="curve"/>
      <point x="508" y="588" type="line"/>
      <point x="476" y="658"/>
      <point x="420" y="696"/>
      <point x="336" y="696" type="curve" smooth="yes"/>
      <point x="204" y="696"/>
      <point x="134" y="613"/>
      <point x="115" y="488" type="curve" smooth="yes"/>
      <point x="84" y="248" type="line" smooth="yes"/>
      <point x="79" y="193"/>
      <point x="71" y="155"/>
      <point x="0" y="134" type="curve"/>
      <point x="-20" y="0" type="line"/>
      <point x="390" y="0" type="line"/>
      <point x="431" y="140" type="line"/>
      <point x="189" y="140" type="line"/>
      <point x="249" y="170"/>
      <point x="264" y="206"/>
      <point x="269" y="257" type="curve" smooth="yes"/>
    </contour>
    <contour>
      <point x="399" y="305" type="line"/>
      <point x="412" y="398" type="line"/>
      <point x="46" y="398" type="line"/>
      <point x="33" y="305" type="line"/>
    </contour>
  </outline>
</glyph>
<glyph name="currency" format="1">
  <advance width="460"/>
  <unicode hex="00A4"/>
  <outline>
    <contour>
      <point x="132" y="563"/>
      <point x="51" y="476"/>
      <point x="51" y="342" type="curve" smooth="yes"/>
      <point x="51" y="207"/>
      <point x="132" y="121"/>
      <point x="241" y="121" type="curve" smooth="yes"/>
      <point x="347" y="121"/>
      <point x="429" y="207"/>
      <point x="429" y="342" type="curve" smooth="yes"/>
      <point x="429" y="476"/>
      <point x="347" y="563"/>
      <point x="241" y="563" type="curve" smooth="yes"/>
    </contour>
    <contour>
      <point x="4" y="139" type="line"/>
      <point x="81" y="72" type="line"/>
      <point x="152" y="159" type="line"/>
      <point x="83" y="236" type="line"/>
    </contour>
    <contour>
      <point x="324" y="160" type="line"/>
      <point x="393" y="72" type="line"/>
      <point x="476" y="138" type="line"/>
      <point x="395" y="237" type="line"/>
    </contour>
    <contour>
      <point x="4" y="546" type="line"/>
      <point x="85" y="447" type="line"/>
      <point x="156" y="524" type="line"/>
      <point x="87" y="612" type="line"/>
    </contour>
    <contour>
      <point x="328" y="525" type="line"/>
      <point x="397" y="448" type="line"/>
      <point x="476" y="545" type="line"/>
      <point x="399" y="612" type="line"/>
    </contour>
    <contour>
      <point x="278" y="445"/>
      <point x="296" y="420"/>
      <point x="296" y="342" type="curve" smooth="yes"/>
      <point x="296" y="265"/>
      <point x="278" y="239"/>
      <point x="240" y="239" type="curve" smooth="yes"/>
      <point x="202" y="239"/>
      <point x="183" y="265"/>
      <point x="183" y="342" type="curve" smooth="yes"/>
      <point x="183" y="420"/>
      <point x="202" y="445"/>
      <point x="240" y="445" type="curve" smooth="yes"/>
    </contour>
  </outline>
</glyph>
<glyph name="yen" format="1">
  <advance width="483"/>
  <unicode hex="00A5"/>
  <outline>
    <contour>
      <point x="366" y="679" type="line"/>
      <point x="260" y="405" type="line"/>
      <point x="225" y="679" type="line"/>
      <point x="40" y="679" type="line"/>
      <point x="150" y="279" type="line"/>
      <point x="114" y="0" type="line"/>
      <point x="297" y="0" type="line"/>
      <point x="335" y="279" type="line"/>
      <point x="559" y="679" type="line"/>
    </contour>
    <contour>
      <point x="41" y="200" type="line"/>
      <point x="26" y="108" type="line"/>
      <point x="412" y="108" type="line"/>
      <point x="428" y="200" type="line"/>
    </contour>
    <contour>
      <point x="62" y="355" type="line"/>
      <point x="48" y="263" type="line"/>
      <point x="435" y="263" type="line"/>
      <point x="449" y="355" type="line"/>
    </contour>
  </outline>
</glyph>
<glyph name="brokenbar" format="1">
  <advance width="285"/>
  <unicode hex="00A6"/>
  <outline>
    <contour>
      <point x="131" y="812" type="line"/>
      <point x="79" y="443" type="line"/>
      <point x="255" y="443" type="line"/>
      <point x="307" y="812" type="line"/>
    </contour>
    <contour>
      <point x="54" y="262" type="line"/>
      <point x="3" y="-107" type="line"/>
      <point x="178" y="-107" type="line"/>
      <point x="230" y="262" type="line"/>
    </contour>
  </outline>
</glyph>
<glyph name="section" format="1">
  <advance width="466"/>
  <unicode hex="00A7"/>
  <outline>
    <contour>
      <point x="167" y="696"/>
      <point x="87" y="605"/>
      <point x="87" y="508" type="curve" smooth="yes"/>
      <point x="87" y="441"/>
      <point x="124" y="396"/>
      <point x="223" y="358" type="curve" smooth="yes"/>
      <point x="270" y="339"/>
      <point x="287" y="322"/>
      <point x="287" y="296" type="curve" smooth="yes"/>
      <point x="287" y="265"/>
      <point x="273" y="246"/>
      <point x="258" y="223" type="curve"/>
      <point x="332" y="179" type="line"/>
      <point x="403" y="213"/>
      <point x="444" y="261"/>
      <point x="444" y="333" type="curve" smooth="yes"/>
      <point x="444" y="400"/>
      <point x="398" y="435"/>
      <point x="340" y="461" type="curve" smooth="yes"/>
      <point x="273" y="491"/>
      <point x="257" y="501"/>
      <point x="257" y="528" type="curve" smooth="yes"/>
      <point x="257" y="552"/>
      <point x="274" y="568"/>
      <point x="313" y="568" type="curve" smooth="yes"/>
      <point x="344" y="568"/>
      <point x="378" y="557"/>
      <point x="404" y="538" type="curve"/>
      <point x="477" y="638" type="line"/>
      <point x="433" y="674"/>
      <point x="377" y="696"/>
      <point x="309" y="696" type="curve" smooth="yes"/>
    </contour>
    <contour>
      <point x="79" y="395"/>
      <point x="32" y="346"/>
      <point x="32" y="270" type="curve" smooth="yes"/>
      <point x="32" y="204"/>
      <point x="70" y="172"/>
      <point x="136" y="146" type="curve" smooth="yes"/>
      <point x="204" y="117"/>
      <point x="220" y="104"/>
      <point x="220" y="79" type="curve" smooth="yes"/>
      <point x="220" y="54"/>
      <point x="200" y="38"/>
      <point x="163" y="38" type="curve" smooth="yes"/>
      <point x="130" y="38"/>
      <point x="104" y="46"/>
      <point x="69" y="70" type="curve"/>
      <point x="-3" y="-32" type="line"/>
      <point x="38" y="-67"/>
      <point x="93" y="-89"/>
      <point x="165" y="-89" type="curve" smooth="yes"/>
      <point x="299" y="-89"/>
      <point x="391" y="-7"/>
      <point x="391" y="96" type="curve" smooth="yes"/>
      <point x="391" y="166"/>
      <point x="349" y="197"/>
      <point x="231" y="256" type="curve" smooth="yes"/>
      <point x="200" y="271"/>
      <point x="188" y="286"/>
      <point x="188" y="310" type="curve" smooth="yes"/>
      <point x="188" y="341"/>
      <point x="199" y="359"/>
      <point x="215" y="384" type="curve"/>
      <point x="149" y="425" type="line"/>
    </contour>
  </outline>
</glyph>
<glyph name="copyright" format="1">
  <advance width="670"/>
  <unicode hex="00A9"/>
  <outline>
    <contour>
      <point x="192" y="775"/>
      <point x="58" y="639"/>
      <point x="58" y="431" type="curve" smooth="yes"/>
      <point x="58" y="224"/>
      <point x="192" y="89"/>
      <point x="359" y="89" type="curve" smooth="yes"/>
      <point x="527" y="89"/>
      <point x="658" y="224"/>
      <point x="658" y="431" type="curve" smooth="yes"/>
      <point x="658" y="639"/>
      <point x="527" y="775"/>
      <point x="359" y="775" type="curve" smooth="yes"/>
    </contour>
    <contour>
      <point x="267" y="632"/>
      <point x="206" y="554"/>
      <point x="206" y="432" type="curve" smooth="yes"/>
      <point x="206" y="303"/>
      <point x="262" y="231"/>
      <point x="361" y="231" type="curve" smooth="yes"/>
      <point x="404" y="231"/>
      <point x="450" y="252"/>
      <point x="484" y="287" type="curve"/>
      <point x="435" y="357" type="line"/>
      <point x="416" y="340"/>
      <point x="402" y="331"/>
      <point x="381" y="331" type="curve" smooth="yes"/>
      <point x="352" y="331"/>
      <point x="330" y="352"/>
      <point x="330" y="432" type="curve" smooth="yes"/>
      <point x="330" y="507"/>
      <point x="351" y="533"/>
      <point x="377" y="533" type="curve" smooth="yes"/>
      <point x="395" y="533"/>
      <point x="407" y="529"/>
      <point x="431" y="512" type="curve"/>
      <point x="480" y="577" type="line"/>
      <point x="450" y="612"/>
      <point x="409" y="632"/>
      <point x="365" y="632" type="curve" smooth="yes"/>
    </contour>
    <contour>
      <point x="471" y="682"/>
      <point x="555" y="590"/>
      <point x="555" y="431" type="curve" smooth="yes"/>
      <point x="555" y="273"/>
      <point x="471" y="181"/>
      <point x="359" y="181" type="curve" smooth="yes"/>
      <point x="245" y="181"/>
      <point x="162" y="273"/>
      <point x="162" y="431" type="curve" smooth="yes"/>
      <point x="162" y="590"/>
      <point x="245" y="682"/>
      <point x="359" y="682" type="curve" smooth="yes"/>
    </contour>
  </outline>
</glyph>
<glyph name="ordfeminine" format="1">
  <advance width="404"/>
  <unicode hex="00AA"/>
  <outline>
    <contour>
      <point x="178" y="261"/>
      <point x="216" y="275"/>
      <point x="248" y="319" type="curve"/>
      <point x="262" y="283"/>
      <point x="306" y="267"/>
      <point x="351" y="265" type="curve"/>
      <point x="399" y="371" type="line"/>
      <point x="382" y="379"/>
      <point x="380" y="389"/>
      <point x="383" y="408" type="curve" smooth="yes"/>
      <point x="400" y="529" type="line" smooth="yes"/>
      <point x="417" y="651"/>
      <point x="363" y="696"/>
      <point x="253" y="696" type="curve" smooth="yes"/>
      <point x="208" y="696"/>
      <point x="148" y="685"/>
      <point x="102" y="664" type="curve"/>
      <point x="125" y="568" type="line"/>
      <point x="162" y="579"/>
      <point x="192" y="585"/>
      <point x="217" y="585" type="curve" smooth="yes"/>
      <point x="245" y="585"/>
      <point x="254" y="576"/>
      <point x="249" y="538" type="curve" smooth="yes"/>
      <point x="248" y="530" type="line"/>
      <point x="222" y="530" type="line" smooth="yes"/>
      <point x="84" y="530"/>
      <point x="37" y="452"/>
      <point x="37" y="375" type="curve" smooth="yes"/>
      <point x="37" y="307"/>
      <point x="74" y="261"/>
      <point x="140" y="261" type="curve" smooth="yes"/>
    </contour>
    <contour>
      <point x="197" y="374"/>
      <point x="194" y="381"/>
      <point x="194" y="396" type="curve" smooth="yes"/>
      <point x="194" y="428"/>
      <point x="202" y="444"/>
      <point x="223" y="444" type="curve" smooth="yes"/>
      <point x="236" y="444" type="line"/>
      <point x="228" y="383" type="line"/>
      <point x="222" y="378"/>
      <point x="215" y="374"/>
      <point x="207" y="374" type="curve" smooth="yes"/>
    </contour>
    <component base="minus" xOffset="-45" yOffset="-260" xScale="0.95"/>
  </outline>
</glyph>
<glyph name="registered" format="1">
  <advance width="521"/>
  <unicode hex="00AE"/>
  <outline>
    <contour>
      <point x="150" y="764"/>
      <point x="46" y="653"/>
      <point x="46" y="480" type="curve" smooth="yes"/>
      <point x="46" y="309"/>
      <point x="150" y="199"/>
      <point x="293" y="199" type="curve" smooth="yes"/>
      <point x="433" y="199"/>
      <point x="535" y="309"/>
      <point x="535" y="480" type="curve" smooth="yes"/>
      <point x="535" y="653"/>
      <point x="433" y="764"/>
      <point x="293" y="764" type="curve" smooth="yes"/>
    </contour>
    <contour>
      <point x="279" y="463" type="line"/>
      <point x="327" y="348" type="line"/>
      <point x="408" y="348" type="line"/>
      <point x="342" y="480" type="line"/>
    </contour>
    <contour>
      <point x="385" y="689"/>
      <point x="451" y="617"/>
      <point x="451" y="480" type="curve" smooth="yes"/>
      <point x="451" y="344"/>
      <point x="385" y="274"/>
      <point x="293" y="274" type="curve" smooth="yes"/>
      <point x="198" y="274"/>
      <point x="130" y="344"/>
      <point x="130" y="480" type="curve" smooth="yes"/>
      <point x="130" y="617"/>
      <point x="198" y="689"/>
      <point x="293" y="689" type="curve" smooth="yes"/>
    </contour>
    <contour>
      <point x="195" y="633" type="line"/>
      <point x="195" y="348" type="line"/>
      <point x="267" y="348" type="line"/>
      <point x="267" y="575" type="line"/>
      <point x="290" y="575" type="line" smooth="yes"/>
      <point x="305" y="575"/>
      <point x="316" y="566"/>
      <point x="316" y="546" type="curve" smooth="yes"/>
      <point x="316" y="523"/>
      <point x="303" y="514"/>
      <point x="290" y="514" type="curve" smooth="yes"/>
      <point x="252" y="514" type="line"/>
      <point x="252" y="449" type="line"/>
      <point x="296" y="449" type="line"/>
      <point x="330" y="460" type="line"/>
      <point x="356" y="473"/>
      <point x="390" y="498"/>
      <point x="390" y="541" type="curve" smooth="yes"/>
      <point x="390" y="602"/>
      <point x="348" y="633"/>
      <point x="270" y="633" type="curve" smooth="yes"/>
    </contour>
  </outline>
</glyph>
<glyph name="degree" format="1">
  <advance width="413"/>
  <unicode hex="00B0"/>
  <outline>
    <contour>
      <point x="298" y="363"/>
      <point x="373" y="451"/>
      <point x="373" y="569" type="curve" smooth="yes"/>
      <point x="373" y="665"/>
      <point x="312" y="716"/>
      <point x="237" y="716" type="curve"/>
      <point x="132" y="716"/>
      <point x="58" y="628"/>
      <point x="58" y="510" type="curve" smooth="yes"/>
      <point x="58" y="414"/>
      <point x="118" y="363"/>
      <point x="193" y="363" type="curve"/>
    </contour>
    <contour>
      <point x="184" y="466"/>
      <point x="175" y="480"/>
      <point x="175" y="513" type="curve" smooth="yes"/>
      <point x="175" y="558"/>
      <point x="187" y="613"/>
      <point x="227" y="613" type="curve"/>
      <point x="247" y="613"/>
      <point x="256" y="599"/>
      <point x="256" y="566" type="curve" smooth="yes"/>
      <point x="256" y="521"/>
      <point x="244" y="466"/>
      <point x="204" y="466" type="curve"/>
    </contour>
  </outline>
</glyph>
<glyph name="paragraph" format="1">
  <advance width="683"/>
  <unicode hex="00B6"/>
  <outline>
    <contour>
      <point x="334" y="696" type="line"/>
      <point x="299" y="661" type="line"/>
      <point x="174" y="-227" type="line"/>
      <point x="331" y="-207" type="line"/>
      <point x="438" y="568" type="line"/>
      <point x="501" y="568" type="line"/>
      <point x="393" y="-227" type="line"/>
      <point x="550" y="-207" type="line"/>
      <point x="677" y="696" type="line"/>
    </contour>
    <contour>
      <point x="170" y="696"/>
      <point x="63" y="595"/>
      <point x="63" y="433" type="curve" smooth="yes"/>
      <point x="63" y="322"/>
      <point x="131" y="250"/>
      <point x="255" y="254" type="curve"/>
      <point x="334" y="696" type="line"/>
    </contour>
  </outline>
</glyph>
<glyph name="ordmasculine" format="1">
  <advance width="418"/>
  <unicode hex="00BA"/>
  <outline>
    <contour>
      <point x="120" y="696"/>
      <point x="45" y="580"/>
      <point x="45" y="428" type="curve" smooth="yes"/>
      <point x="45" y="311"/>
      <point x="109" y="261"/>
      <point x="210" y="261" type="curve" smooth="yes"/>
      <point x="355" y="261"/>
      <point x="430" y="379"/>
      <point x="430" y="529" type="curve" smooth="yes"/>
      <point x="430" y="646"/>
      <point x="366" y="696"/>
      <point x="265" y="696" type="curve" smooth="yes"/>
    </contour>
    <contour>
      <point x="266" y="580"/>
      <point x="273" y="573"/>
      <point x="273" y="551" type="curve" smooth="yes"/>
      <point x="273" y="490"/>
      <point x="258" y="377"/>
      <point x="221" y="377" type="curve"/>
      <point x="210" y="377"/>
      <point x="204" y="384"/>
      <point x="204" y="406" type="curve" smooth="yes"/>
      <point x="204" y="469"/>
      <point x="216" y="580"/>
      <point x="255" y="580" type="curve"/>
    </contour>
    <component base="minus" xOffset="-49" yOffset="-260"/>
  </outline>
</glyph>
<glyph name="questiondown" format="1">
  <advance width="417"/>
  <unicode hex="00BF"/>
  <outline>
    <contour>
      <point x="237" y="-227"/>
      <point x="308" y="-183"/>
      <point x="361" y="-117" type="curve"/>
      <point x="265" y="-27" type="line"/>
      <point x="232" y="-61"/>
      <point x="205" y="-79"/>
      <point x="182" y="-79" type="curve" smooth="yes"/>
      <point x="164" y="-79"/>
      <point x="155" y="-70"/>
      <point x="155" y="-53" type="curve" smooth="yes"/>
      <point x="155" y="29"/>
      <point x="311" y="31"/>
      <point x="311" y="194" type="curve" smooth="yes"/>
      <point x="311" y="218"/>
      <point x="306" y="235"/>
      <point x="302" y="249" type="curve"/>
      <point x="138" y="224" type="line"/>
      <point x="139" y="219"/>
      <point x="140" y="212"/>
      <point x="140" y="197" type="curve" smooth="yes"/>
      <point x="140" y="103"/>
      <point x="-43" y="103"/>
      <point x="-43" y="-66" type="curve" smooth="yes"/>
      <point x="-43" y="-155"/>
      <point x="22" y="-227"/>
      <point x="143" y="-227" type="curve" smooth="yes"/>
    </contour>
    <component base="period" xOffset="311" yOffset="489" xScale="-1" yScale="-1"/>
  </outline>
</glyph>
<glyph name="AE" format="1">
  <advance width="713"/>
  <unicode hex="00C6"/>
  <outline>
    <contour>
      <point x="247" y="696" type="line"/>
      <point x="-56" y="0" type="line"/>
      <point x="155" y="0" type="line"/>
      <point x="349" y="555" type="line"/>
      <point x="324" y="0" type="line"/>
      <point x="668" y="0" type="line"/>
      <point x="690" y="139" type="line"/>
      <point x="503" y="139" type="line"/>
      <point x="515" y="559" type="line"/>
      <point x="698" y="559" type="line"/>
      <point x="739" y="696" type="line"/>
    </contour>
    <contour>
      <point x="248" y="277" type="line"/>
      <point x="187" y="138" type="line"/>
      <point x="336" y="138" type="line"/>
      <point x="343" y="277" type="line"/>
    </contour>
    <contour>
      <point x="495" y="418" type="line"/>
      <point x="497" y="284" type="line"/>
      <point x="673" y="284" type="line"/>
      <point x="694" y="418" type="line"/>
    </contour>
    <contour>
      <point x="464" y="696" type="move" name="top"/>
    </contour>
    <contour>
      <point x="322" y="0" type="move" name="bottom"/>
    </contour>
  </outline>
</glyph>
<glyph name="multiply" format="1">
  <advance width="443"/>
  <unicode hex="00D7"/>
  <outline>
    <contour>
      <point x="238" y="397" type="line"/>
      <point x="158" y="522" type="line"/>
      <point x="44" y="433" type="line"/>
      <point x="133" y="304" type="line"/>
      <point x="18" y="182" type="line"/>
      <point x="110" y="90" type="line"/>
      <point x="214" y="211" type="line"/>
      <point x="296" y="90" type="line"/>
      <point x="410" y="179" type="line"/>
      <point x="319" y="304" type="line"/>
      <point x="438" y="430" type="line"/>
      <point x="346" y="522" type="line"/>
    </contour>
  </outline>
</glyph>
<glyph name="Oslash" format="1">
  <advance width="581"/>
  <unicode hex="00D8"/>
  <outline>
    <contour>
      <point x="368" y="707" type="line"/>
      <point x="344" y="596" type="line"/>
      <point x="200" y="163" type="line"/>
      <point x="101" y="33" type="line"/>
      <point x="54" y="-100" type="line"/>
      <point x="188" y="-138" type="line"/>
      <point x="232" y="-11" type="line"/>
      <point x="263" y="108" type="line"/>
      <point x="407" y="538" type="line"/>
      <point x="500" y="663" type="line"/>
      <point x="545" y="793" type="line"/>
      <point x="413" y="832" type="line"/>
    </contour>
    <contour>
      <point x="124" y="716"/>
      <point x="23" y="496"/>
      <point x="23" y="246" type="curve" smooth="yes"/>
      <point x="23" y="78"/>
      <point x="106" y="-20"/>
      <point x="254" y="-20" type="curve" smooth="yes"/>
      <point x="478" y="-20"/>
      <point x="581" y="201"/>
      <point x="581" y="451" type="curve" smooth="yes"/>
      <point x="581" y="619"/>
      <point x="497" y="716"/>
      <point x="349" y="716" type="curve" smooth="yes"/>
    </contour>
    <contour>
      <point x="379" y="578"/>
      <point x="394" y="554"/>
      <point x="394" y="489" type="curve" smooth="yes"/>
      <point x="394" y="352"/>
      <point x="364" y="117"/>
      <point x="266" y="117" type="curve" smooth="yes"/>
      <point x="224" y="117"/>
      <point x="209" y="139"/>
      <point x="209" y="202" type="curve" smooth="yes"/>
      <point x="209" y="334"/>
      <point x="241" y="578"/>
      <point x="337" y="578" type="curve" smooth="yes"/>
    </contour>
    <contour>
      <point x="328" y="738" type="move" name="top"/>
    </contour>
    <contour>
      <point x="251" y="0" type="move" name="bottom"/>
    </contour>
  </outline>
</glyph>
<glyph name="Thorn" format="1">
  <advance width="507"/>
  <unicode hex="00DE"/>
  <outline>
    <contour>
      <point x="151" y="591" type="line"/>
      <point x="143" y="454" type="line"/>
      <point x="263" y="454" type="line" smooth="yes"/>
      <point x="302" y="454"/>
      <point x="319" y="437"/>
      <point x="319" y="387" type="curve" smooth="yes"/>
      <point x="319" y="310"/>
      <point x="298" y="247"/>
      <point x="230" y="247" type="curve" smooth="yes"/>
      <point x="208" y="247" type="line"/>
      <point x="188" y="108" type="line"/>
      <point x="232" y="108" type="line" smooth="yes"/>
      <point x="408" y="108"/>
      <point x="516" y="220"/>
      <point x="516" y="390" type="curve" smooth="yes"/>
      <point x="516" y="524"/>
      <point x="431" y="591"/>
      <point x="273" y="591" type="curve" smooth="yes"/>
    </contour>
    <contour>
      <point x="88" y="696" type="line"/>
      <point x="-9" y="0" type="line"/>
      <point x="185" y="0" type="line"/>
      <point x="282" y="696" type="line"/>
    </contour>
    <contour>
      <point x="317" y="696" type="move" name="top"/>
    </contour>
    <contour>
      <point x="219" y="0" type="move" name="bottom"/>
    </contour>
  </outline>
</glyph>
<glyph name="germandbls" format="1">
  <advance width="505"/>
  <unicode hex="00DF"/>
  <outline>
    <contour>
      <point x="43" y="-182"/>
      <point x="157" y="-112"/>
      <point x="183" y="73" type="curve" smooth="yes"/>
      <point x="245" y="536" type="line" smooth="yes"/>
      <point x="253" y="598"/>
      <point x="262" y="633"/>
      <point x="287" y="633" type="curve" smooth="yes"/>
      <point x="298" y="633"/>
      <point x="307" y="625"/>
      <point x="307" y="604" type="curve" smooth="yes"/>
      <point x="307" y="512"/>
      <point x="245" y="484"/>
      <point x="245" y="387" type="curve" smooth="yes"/>
      <point x="245" y="286"/>
      <point x="302" y="258"/>
      <point x="302" y="180" type="curve" smooth="yes"/>
      <point x="302" y="146"/>
      <point x="294" y="125"/>
      <point x="275" y="125" type="curve" smooth="yes"/>
      <point x="267" y="125"/>
      <point x="261" y="127"/>
      <point x="252" y="132" type="curve"/>
      <point x="193" y="3" type="line"/>
      <point x="219" y="-11"/>
      <point x="251" y="-19"/>
      <point x="286" y="-19" type="curve" smooth="yes"/>
      <point x="436" y="-19"/>
      <point x="492" y="89"/>
      <point x="492" y="195" type="curve" smooth="yes"/>
      <point x="492" y="342"/>
      <point x="404" y="360"/>
      <point x="404" y="423" type="curve" smooth="yes"/>
      <point x="404" y="491"/>
      <point x="480" y="514"/>
      <point x="480" y="620" type="curve" smooth="yes"/>
      <point x="480" y="700"/>
      <point x="423" y="764"/>
      <point x="309" y="764" type="curve" smooth="yes"/>
      <point x="166" y="764"/>
      <point x="79" y="676"/>
      <point x="59" y="531" type="curve" smooth="yes"/>
      <point x="-7" y="43" type="line" smooth="yes"/>
      <point x="-18" y="-33"/>
      <point x="-55" y="-65"/>
      <point x="-114" y="-90" type="curve"/>
      <point x="-73" y="-226" type="line"/>
    </contour>
  </outline>
</glyph>
<glyph name="ae" format="1">
  <advance width="713"/>
  <unicode hex="00E6"/>
  <outline>
    <contour>
      <point x="208" y="553"/>
      <point x="144" y="539"/>
      <point x="82" y="513" type="curve"/>
      <point x="104" y="391" type="line"/>
      <point x="150" y="409"/>
      <point x="188" y="416"/>
      <point x="220" y="416" type="curve" smooth="yes"/>
      <point x="253" y="416"/>
      <point x="280" y="403"/>
      <point x="285" y="373" type="curve"/>
      <point x="279" y="359"/>
      <point x="274" y="344"/>
      <point x="270" y="328" type="curve"/>
      <point x="244" y="328" type="line" smooth="yes"/>
      <point x="38" y="328"/>
      <point x="-6" y="219"/>
      <point x="-6" y="123" type="curve" smooth="yes"/>
      <point x="-6" y="38"/>
      <point x="49" y="-19"/>
      <point x="134" y="-19" type="curve" smooth="yes"/>
      <point x="186" y="-19"/>
      <point x="238" y="-3"/>
      <point x="287" y="56" type="curve"/>
      <point x="323" y="4"/>
      <point x="383" y="-21"/>
      <point x="460" y="-20" type="curve" smooth="yes"/>
      <point x="543" y="-20"/>
      <point x="610" y="13"/>
      <point x="660" y="56" type="curve"/>
      <point x="599" y="162" type="line"/>
      <point x="558" y="133"/>
      <point x="528" y="116"/>
      <point x="491" y="116" type="curve" smooth="yes"/>
      <point x="448" y="116"/>
      <point x="435" y="139"/>
      <point x="435" y="191" type="curve"/>
      <point x="566" y="206"/>
      <point x="714" y="255"/>
      <point x="720" y="403" type="curve" smooth="yes"/>
      <point x="723" y="491"/>
      <point x="654" y="554"/>
      <point x="541" y="554" type="curve" smooth="yes"/>
      <point x="474" y="554"/>
      <point x="419" y="535"/>
      <point x="376" y="501" type="curve"/>
      <point x="348" y="533"/>
      <point x="314" y="553"/>
      <point x="255" y="553" type="curve" smooth="yes"/>
    </contour>
    <contour>
      <point x="254" y="212"/>
      <point x="252" y="180"/>
      <point x="254" y="157" type="curve"/>
      <point x="239" y="132"/>
      <point x="226" y="114"/>
      <point x="212" y="114" type="curve" smooth="yes"/>
      <point x="194" y="114"/>
      <point x="189" y="131"/>
      <point x="189" y="153" type="curve" smooth="yes"/>
      <point x="189" y="200"/>
      <point x="210" y="224"/>
      <point x="240" y="224" type="curve" smooth="yes"/>
      <point x="254" y="224" type="line"/>
    </contour>
    <contour>
      <point x="534" y="432"/>
      <point x="542" y="422"/>
      <point x="542" y="404" type="curve" smooth="yes"/>
      <point x="542" y="367"/>
      <point x="522" y="306"/>
      <point x="446" y="299" type="curve"/>
      <point x="458" y="369"/>
      <point x="482" y="432"/>
      <point x="518" y="432" type="curve" smooth="yes"/>
    </contour>
    <contour>
      <point x="392" y="534" type="move" name="top"/>
    </contour>
    <contour>
      <point x="291" y="0" type="move" name="bottom"/>
    </contour>
  </outline>
</glyph>
<glyph name="eth" format="1">
  <advance width="495"/>
  <unicode hex="00F0"/>
  <outline>
    <contour>
      <point x="102" y="646" type="line"/>
      <point x="123" y="641"/>
      <point x="177" y="627"/>
      <point x="220" y="607" type="curve"/>
      <point x="283" y="551"/>
      <point x="302" y="509"/>
      <point x="309" y="432" type="curve"/>
      <point x="299" y="343" type="line"/>
      <point x="285" y="216"/>
      <point x="276" y="116"/>
      <point x="223" y="116" type="curve" smooth="yes"/>
      <point x="202" y="116"/>
      <point x="190" y="128"/>
      <point x="190" y="171" type="curve" smooth="yes"/>
      <point x="190" y="233"/>
      <point x="208" y="352"/>
      <point x="261" y="352" type="curve" smooth="yes"/>
      <point x="278" y="352"/>
      <point x="293" y="340"/>
      <point x="305" y="317" type="curve"/>
      <point x="314" y="434" type="line"/>
      <point x="288" y="463"/>
      <point x="260" y="481"/>
      <point x="211" y="481" type="curve" smooth="yes"/>
      <point x="94" y="481"/>
      <point x="6" y="321"/>
      <point x="6" y="188" type="curve" smooth="yes"/>
      <point x="6" y="56"/>
      <point x="87" y="-19"/>
      <point x="204" y="-19" type="curve" smooth="yes"/>
      <point x="390" y="-19"/>
      <point x="485" y="168"/>
      <point x="485" y="383" type="curve" smooth="yes"/>
      <point x="485" y="515"/>
      <point x="440" y="621"/>
      <point x="324" y="705" type="curve"/>
      <point x="236" y="741"/>
      <point x="196" y="754"/>
      <point x="151" y="762" type="curve"/>
    </contour>
    <contour>
      <point x="261" y="719" type="line"/>
      <point x="175" y="637" type="line"/>
      <point x="114" y="575" type="line"/>
      <point x="210" y="522" type="line"/>
      <point x="265" y="580" type="line"/>
      <point x="362" y="665" type="line"/>
      <point x="424" y="736" type="line"/>
      <point x="344" y="808" type="line"/>
    </contour>
    <contour>
      <point x="258" y="744" type="move" name="top"/>
    </contour>
    <contour>
      <point x="204" y="0" type="move" name="bottom"/>
    </contour>
  </outline>
</glyph>
<glyph name="oslash" format="1">
  <advance width="494"/>
  <unicode hex="00F8"/>
  <outline>
    <contour>
      <point x="392" y="-20"/>
      <point x="484" y="144"/>
      <point x="484" y="337" type="curve" smooth="yes"/>
      <point x="484" y="477"/>
      <point x="405" y="554"/>
      <point x="284" y="554" type="curve" smooth="yes"/>
      <point x="101" y="554"/>
      <point x="10" y="388"/>
      <point x="10" y="196" type="curve" smooth="yes"/>
      <point x="10" y="56"/>
      <point x="88" y="-20"/>
      <point x="210" y="-20" type="curve" smooth="yes"/>
    </contour>
    <contour>
      <point x="186" y="101"/>
      <point x="177" y="118"/>
      <point x="177" y="167" type="curve" smooth="yes"/>
      <point x="177" y="292"/>
      <point x="207" y="432"/>
      <point x="270" y="432" type="curve" smooth="yes"/>
      <point x="308" y="432"/>
      <point x="317" y="415"/>
      <point x="317" y="367" type="curve" smooth="yes"/>
      <point x="317" y="242"/>
      <point x="286" y="101"/>
      <point x="224" y="101" type="curve" smooth="yes"/>
    </contour>
    <contour>
      <point x="31" y="-98" type="line"/>
      <point x="154" y="-137" type="line"/>
      <point x="200" y="-18" type="line"/>
      <point x="235" y="118" type="line"/>
      <point x="318" y="370" type="line"/>
      <point x="412" y="506" type="line"/>
      <point x="462" y="632" type="line"/>
      <point x="338" y="672" type="line"/>
      <point x="294" y="552" type="line"/>
      <point x="261" y="416" type="line"/>
      <point x="175" y="156" type="line"/>
      <point x="82" y="27" type="line"/>
    </contour>
    <contour>
      <point x="286" y="554" type="move" name="top"/>
    </contour>
    <contour>
      <point x="211" y="0" type="move" name="bottom"/>
    </contour>
  </outline>
</glyph>
<glyph name="thorn" format="1">
  <advance width="493"/>
  <unicode hex="00FE"/>
  <outline>
    <contour>
      <point x="311" y="554"/>
      <point x="266" y="531"/>
      <point x="242" y="496" type="curve"/>
      <point x="280" y="763" type="line"/>
      <point x="91" y="744" type="line"/>
      <point x="-45" y="-226" type="line"/>
      <point x="143" y="-207" type="line"/>
      <point x="171" y="-12" type="line"/>
      <point x="191" y="-17"/>
      <point x="213" y="-20"/>
      <point x="236" y="-20" type="curve" smooth="yes"/>
      <point x="409" y="-20"/>
      <point x="486" y="150"/>
      <point x="486" y="376" type="curve" smooth="yes"/>
      <point x="486" y="491"/>
      <point x="441" y="554"/>
      <point x="359" y="554" type="curve" smooth="yes"/>
    </contour>
    <contour>
      <point x="208" y="114"/>
      <point x="200" y="116"/>
      <point x="189" y="121" type="curve"/>
      <point x="226" y="378" type="line"/>
      <point x="243" y="404"/>
      <point x="260" y="417"/>
      <point x="274" y="417" type="curve" smooth="yes"/>
      <point x="287" y="417"/>
      <point x="298" y="410"/>
      <point x="298" y="367" type="curve" smooth="yes"/>
      <point x="298" y="283"/>
      <point x="277" y="114"/>
      <point x="217" y="114" type="curve" smooth="yes"/>
    </contour>
    <contour>
      <point x="314" y="744" type="move" name="top"/>
    </contour>
  </outline>
</glyph>
<glyph name="dcroat" format="1">
  <advance width="505"/>
  <unicode hex="0111"/>
  <outline>
    <contour>
      <point x="250" y="694" type="line"/>
      <point x="246" y="591" type="line"/>
      <point x="516" y="591" type="line"/>
      <point x="551" y="591" type="line"/>
      <point x="567" y="694" type="line"/>
    </contour>
    <component base="d"/>
  </outline>
</glyph>
<glyph name="Hbar" format="1">
  <advance width="552"/>
  <unicode hex="0126"/>
  <outline>
    <contour>
      <point x="563" y="599" type="line"/>
      <point x="47" y="599" type="line"/>
      <point x="33" y="496" type="line"/>
      <point x="69" y="496" type="line"/>
      <point x="584" y="496" type="line"/>
      <point x="599" y="599" type="line"/>
    </contour>
    <component base="H" xOffset="10"/>
  </outline>
</glyph>
<glyph name="hbar" format="1">
  <advance width="474"/>
  <unicode hex="0127"/>
  <outline>
    <contour>
      <point x="58" y="694" type="line"/>
      <point x="44" y="591" type="line"/>
      <point x="79" y="591" type="line"/>
      <point x="350" y="591" type="line"/>
      <point x="378" y="694" type="line"/>
    </contour>
    <component base="h" xOffset="9"/>
  </outline>
</glyph>
<glyph name="dotlessi" format="1">
  <advance width="236"/>
  <unicode hex="0131"/>
  <outline>
    <contour>
      <point x="62" y="534" type="line"/>
      <point x="-12" y="0" type="line"/>
      <point x="174" y="0" type="line"/>
      <point x="248" y="534" type="line"/>
    </contour>
    <contour>
      <point x="138" y="0" type="move" name="ogonek"/>
    </contour>
    <contour>
      <point x="81" y="0" type="move" name="bottom"/>
    </contour>
    <contour>
      <point x="155" y="534" type="move" name="top"/>
    </contour>
  </outline>
</glyph>
<glyph name="kgreenlandic" format="1">
  <advance width="482"/>
  <unicode hex="0138"/>
  <outline>
    <contour>
      <point x="348" y="534" type="line"/>
      <point x="217" y="282" type="line"/>
      <point x="269" y="0" type="line"/>
      <point x="464" y="0" type="line"/>
      <point x="402" y="284" type="line"/>
      <point x="535" y="534" type="line"/>
    </contour>
    <contour>
      <point x="62" y="534" type="line"/>
      <point x="-12" y="0" type="line"/>
      <point x="175" y="0" type="line"/>
      <point x="249" y="534" type="line"/>
    </contour>
    <contour>
      <point x="279" y="534" type="move" name="top"/>
    </contour>
    <contour>
      <point x="204" y="0" type="move" name="bottom"/>
    </contour>
  </outline>
</glyph>
<glyph name="Lslash" format="1">
  <advance width="476"/>
  <unicode hex="0141"/>
  <outline>
    <contour>
      <point x="425" y="439" type="line"/>
      <point x="379" y="528" type="line"/>
      <point x="-4" y="281" type="line"/>
      <point x="42" y="192" type="line"/>
      <point x="67" y="209" type="line"/>
    </contour>
    <component base="L" xOffset="48"/>
  </outline>
</glyph>
<glyph name="lslash" format="1">
  <advance width="317"/>
  <unicode hex="0142"/>
  <outline>
    <contour>
      <point x="-6" y="333" type="line"/>
      <point x="23" y="231" type="line"/>
      <point x="350" y="434" type="line"/>
      <point x="324" y="539" type="line"/>
    </contour>
    <component base="l" xOffset="42"/>
  </outline>
</glyph>
<glyph name="napostrophe" format="1">
  <advance width="586"/>
  <unicode hex="0149"/>
  <outline>
    <contour>
      <point x="117" y="763"/>
      <point x="84" y="729"/>
      <point x="84" y="679" type="curve" smooth="yes"/>
      <point x="84" y="657"/>
      <point x="93" y="642"/>
      <point x="108" y="632" type="curve"/>
      <point x="77" y="535" type="line"/>
      <point x="148" y="535" type="line"/>
      <point x="194" y="615" type="line" smooth="yes"/>
      <point x="213" y="650"/>
      <point x="224" y="671"/>
      <point x="224" y="700" type="curve" smooth="yes"/>
      <point x="224" y="737"/>
      <point x="198" y="763"/>
      <point x="160" y="763" type="curve" smooth="yes"/>
    </contour>
    <component base="n" xOffset="120"/>
  </outline>
</glyph>
<glyph name="OE" format="1">
  <advance width="744"/>
  <unicode hex="0152"/>
  <outline>
    <contour>
      <point x="124" y="716"/>
      <point x="23" y="496"/>
      <point x="23" y="246" type="curve" smooth="yes"/>
      <point x="23" y="68"/>
      <point x="101" y="-20"/>
      <point x="236" y="-20" type="curve" smooth="yes"/>
      <point x="314" y="-20"/>
      <point x="370" y="8"/>
      <point x="420" y="65" type="curve"/>
      <point x="518" y="151"/>
      <point x="561" y="290"/>
      <point x="561" y="451" type="curve" smooth="yes"/>
      <point x="561" y="545"/>
      <point x="529" y="604"/>
      <point x="477" y="658" type="curve"/>
      <point x="460" y="697"/>
      <point x="406" y="716"/>
      <point x="339" y="716" type="curve" smooth="yes"/>
    </contour>
    <contour>
      <point x="353" y="575"/>
      <point x="364" y="551"/>
      <point x="364" y="489" type="curve" smooth="yes"/>
      <point x="364" y="352"/>
      <point x="334" y="120"/>
      <point x="256" y="120" type="curve" smooth="yes"/>
      <point x="231" y="120"/>
      <point x="219" y="142"/>
      <point x="219" y="202" type="curve" smooth="yes"/>
      <point x="219" y="334"/>
      <point x="251" y="575"/>
      <point x="327" y="575" type="curve" smooth="yes"/>
    </contour>
    <contour>
      <point x="475" y="139" type="line"/>
      <point x="323" y="0" type="line"/>
      <point x="695" y="0" type="line"/>
      <point x="718" y="139" type="line"/>
    </contour>
    <contour>
      <point x="543" y="420" type="line"/>
      <point x="533" y="286" type="line"/>
      <point x="701" y="286" type="line"/>
      <point x="721" y="420" type="line"/>
    </contour>
    <contour>
      <point x="377" y="696" type="line"/>
      <point x="492" y="559" type="line"/>
      <point x="758" y="559" type="line"/>
      <point x="799" y="696" type="line"/>
    </contour>
    <contour>
      <point x="436" y="696" type="move" name="top"/>
    </contour>
    <contour>
      <point x="338" y="0" type="move" name="bottom"/>
    </contour>
  </outline>
</glyph>
<glyph name="oe" format="1">
  <advance width="747"/>
  <unicode hex="0153"/>
  <outline>
    <contour>
      <point x="101" y="554"/>
      <point x="10" y="388"/>
      <point x="10" y="196" type="curve" smooth="yes"/>
      <point x="10" y="46"/>
      <point x="91" y="-20"/>
      <point x="197" y="-20" type="curve" smooth="yes"/>
      <point x="362" y="-20"/>
      <point x="444" y="144"/>
      <point x="464" y="337" type="curve"/>
      <point x="444" y="497"/>
      <point x="382" y="554"/>
      <point x="279" y="554" type="curve" smooth="yes"/>
    </contour>
    <contour>
      <point x="288" y="417"/>
      <point x="297" y="405"/>
      <point x="297" y="367" type="curve" smooth="yes"/>
      <point x="297" y="277"/>
      <point x="276" y="116"/>
      <point x="224" y="116" type="curve" smooth="yes"/>
      <point x="206" y="116"/>
      <point x="197" y="128"/>
      <point x="197" y="167" type="curve" smooth="yes"/>
      <point x="197" y="257"/>
      <point x="217" y="417"/>
      <point x="270" y="417" type="curve" smooth="yes"/>
    </contour>
    <contour>
      <point x="404" y="554"/>
      <point x="341" y="398"/>
      <point x="297" y="196" type="curve"/>
      <point x="314" y="56"/>
      <point x="387" y="-21"/>
      <point x="500" y="-20" type="curve"/>
      <point x="577" y="-20"/>
      <point x="644" y="13"/>
      <point x="694" y="56" type="curve"/>
      <point x="633" y="162" type="line"/>
      <point x="592" y="133"/>
      <point x="562" y="116"/>
      <point x="525" y="116" type="curve" smooth="yes"/>
      <point x="487" y="116"/>
      <point x="469" y="138"/>
      <point x="469" y="177" type="curve" smooth="yes"/>
      <point x="469" y="287"/>
      <point x="493" y="432"/>
      <point x="552" y="432" type="curve" smooth="yes"/>
      <point x="568" y="432"/>
      <point x="576" y="422"/>
      <point x="576" y="404" type="curve" smooth="yes"/>
      <point x="576" y="366"/>
      <point x="555" y="303"/>
      <point x="474" y="299" type="curve"/>
      <point x="457" y="190" type="line"/>
      <point x="591" y="203"/>
      <point x="748" y="250"/>
      <point x="754" y="403" type="curve" smooth="yes"/>
      <point x="757" y="491"/>
      <point x="688" y="554"/>
      <point x="581" y="554" type="curve" smooth="yes"/>
    </contour>
    <contour>
      <point x="408" y="534" type="move" name="top"/>
    </contour>
    <contour>
      <point x="355" y="0" type="move" name="bottom"/>
    </contour>
  </outline>
</glyph>
<glyph name="Tbar" format="1">
  <advance width="457"/>
  <unicode hex="0166"/>
  <outline>
    <contour>
      <point x="343" y="391" type="line"/>
      <point x="63" y="391" type="line"/>
      <point x="48" y="288" type="line"/>
      <point x="134" y="288" type="line"/>
      <point x="414" y="288" type="line"/>
      <point x="429" y="391" type="line"/>
    </contour>
    <component base="T"/>
  </outline>
</glyph>
<glyph name="longs" format="1">
  <advance width="316"/>
  <unicode hex="017F"/>
  <outline>
    <contour>
      <point x="182" y="764"/>
      <point x="108" y="679"/>
      <point x="93" y="569" type="curve" smooth="yes"/>
      <point x="15" y="0" type="line"/>
      <point x="202" y="0" type="line"/>
      <point x="277" y="558" type="line" smooth="yes"/>
      <point x="284" y="608"/>
      <point x="302" y="627"/>
      <point x="333" y="627" type="curve" smooth="yes"/>
      <point x="352" y="627"/>
      <point x="369" y="622"/>
      <point x="389" y="610" type="curve"/>
      <point x="454" y="718" type="line"/>
      <point x="424" y="742"/>
      <point x="375" y="764"/>
      <point x="312" y="764" type="curve" smooth="yes"/>
    </contour>
    <contour>
      <point x="37" y="534" type="line"/>
      <point x="19" y="405" type="line"/>
      <point x="135" y="405" type="line"/>
      <point x="175" y="534" type="line"/>
    </contour>
  </outline>
</glyph>
<glyph name="uni0180" format="1">
  <advance width="504"/>
  <unicode hex="0180"/>
  <outline>
    <contour>
      <point x="60" y="696" type="line"/>
      <point x="44" y="593" type="line"/>
      <point x="79" y="593" type="line"/>
      <point x="350" y="593" type="line"/>
      <point x="380" y="696" type="line"/>
    </contour>
    <component base="b" xOffset="9"/>
  </outline>
</glyph>
<glyph name="uni0183" format="1">
  <advance width="496"/>
  <unicode hex="0183"/>
  <outline>
    <contour>
      <point x="412" y="-20"/>
      <point x="484" y="135"/>
      <point x="486" y="341" type="curve" smooth="yes"/>
      <point x="487" y="471"/>
      <point x="441" y="534"/>
      <point x="360" y="534" type="curve" smooth="yes"/>
      <point x="311" y="534"/>
      <point x="266" y="510"/>
      <point x="239" y="477" type="curve"/>
      <point x="276" y="744" type="line"/>
      <point x="91" y="744" type="line"/>
      <point x="-9" y="26" type="line"/>
      <point x="57" y="-2"/>
      <point x="131" y="-20"/>
      <point x="192" y="-20" type="curve" smooth="yes"/>
    </contour>
    <contour>
      <point x="208" y="115"/>
      <point x="200" y="118"/>
      <point x="191" y="122" type="curve"/>
      <point x="223" y="357" type="line"/>
      <point x="241" y="384"/>
      <point x="260" y="397"/>
      <point x="274" y="397" type="curve" smooth="yes"/>
      <point x="287" y="397"/>
      <point x="298" y="390"/>
      <point x="298" y="337" type="curve" smooth="yes"/>
      <point x="298" y="262"/>
      <point x="276" y="115"/>
      <point x="219" y="115" type="curve" smooth="yes"/>
    </contour>
    <contour>
      <point x="409" y="610" type="line"/>
      <point x="450" y="744" type="line"/>
      <point x="91" y="744" type="line"/>
      <point x="255" y="610" type="line"/>
    </contour>
    <contour>
      <point x="312" y="744" type="move" name="top"/>
    </contour>
    <contour>
      <point x="208" y="0" type="move" name="bottom"/>
    </contour>
  </outline>
</glyph>
<glyph name="uni0184" format="1">
  <advance width="529"/>
  <unicode hex="0184"/>
  <outline>
    <contour>
      <point x="254" y="0" type="line" smooth="yes"/>
      <point x="449" y="0"/>
      <point x="524" y="140"/>
      <point x="524" y="270" type="curve" smooth="yes"/>
      <point x="524" y="402"/>
      <point x="436" y="467"/>
      <point x="304" y="467" type="curve" smooth="yes"/>
      <point x="263" y="467" type="line"/>
      <point x="242" y="333" type="line"/>
      <point x="275" y="333" type="line" smooth="yes"/>
      <point x="310" y="333"/>
      <point x="321" y="311"/>
      <point x="321" y="264" type="curve" smooth="yes"/>
      <point x="321" y="199"/>
      <point x="299" y="140"/>
      <point x="245" y="140" type="curve" smooth="yes"/>
      <point x="228" y="140" type="line"/>
      <point x="306" y="696" type="line"/>
      <point x="150" y="696" type="line"/>
      <point x="81" y="475" type="line"/>
      <point x="15" y="0" type="line"/>
    </contour>
    <contour>
      <point x="150" y="696" type="line"/>
      <point x="114" y="635"/>
      <point x="72" y="577"/>
      <point x="22" y="531" type="curve"/>
      <point x="81" y="475" type="line"/>
    </contour>
    <contour>
      <point x="331" y="696" type="move" name="top"/>
    </contour>
    <contour>
      <point x="232" y="0" type="move" name="bottom"/>
    </contour>
  </outline>
</glyph>
<glyph name="uni0185" format="1">
  <advance width="478"/>
  <unicode hex="0185"/>
  <outline>
    <contour>
      <point x="408" y="-19"/>
      <point x="466" y="96"/>
      <point x="466" y="201" type="curve" smooth="yes"/>
      <point x="466" y="317"/>
      <point x="392" y="370"/>
      <point x="259" y="370" type="curve" smooth="yes"/>
      <point x="247" y="370" type="line"/>
      <point x="229" y="254" type="line"/>
      <point x="252" y="254" type="line" smooth="yes"/>
      <point x="272" y="254"/>
      <point x="282" y="239"/>
      <point x="282" y="205" type="curve" smooth="yes"/>
      <point x="282" y="144"/>
      <point x="266" y="100"/>
      <point x="237" y="100" type="curve" smooth="yes"/>
      <point x="233" y="100"/>
      <point x="231" y="100"/>
      <point x="226" y="101" type="curve"/>
      <point x="286" y="534" type="line"/>
      <point x="138" y="534" type="line"/>
      <point x="70" y="323" type="line"/>
      <point x="29" y="18" type="line"/>
      <point x="91" y="-7"/>
      <point x="146" y="-19"/>
      <point x="216" y="-19" type="curve" smooth="yes"/>
    </contour>
    <contour>
      <point x="138" y="534" type="line"/>
      <point x="99" y="472"/>
      <point x="60" y="425"/>
      <point x="11" y="379" type="curve"/>
      <point x="70" y="323" type="line"/>
    </contour>
    <contour>
      <point x="278" y="534" type="move" name="top"/>
    </contour>
    <contour>
      <point x="203" y="0" type="move" name="bottom"/>
    </contour>
  </outline>
</glyph>
<glyph name="uni0186" format="1">
  <advance width="488"/>
  <unicode hex="0186"/>
  <outline>
    <contour>
      <point x="174" y="716"/>
      <point x="109" y="686"/>
      <point x="52" y="636" type="curve"/>
      <point x="131" y="531" type="line"/>
      <point x="162" y="555"/>
      <point x="191" y="573"/>
      <point x="230" y="573" type="curve" smooth="yes"/>
      <point x="269" y="573"/>
      <point x="290" y="548"/>
      <point x="290" y="454" type="curve" smooth="yes"/>
      <point x="290" y="330"/>
      <point x="258" y="130"/>
      <point x="160" y="130" type="curve" smooth="yes"/>
      <point x="121" y="130"/>
      <point x="96" y="151"/>
      <point x="66" y="179" type="curve"/>
      <point x="-32" y="77" type="line"/>
      <point x="6" y="27"/>
      <point x="69" y="-19"/>
      <point x="160" y="-19" type="curve" smooth="yes"/>
      <point x="381" y="-19"/>
      <point x="487" y="187"/>
      <point x="487" y="444" type="curve" smooth="yes"/>
      <point x="487" y="631"/>
      <point x="395" y="716"/>
      <point x="256" y="716" type="curve" smooth="yes"/>
    </contour>
    <contour>
      <point x="267" y="696" type="move" name="top"/>
    </contour>
    <contour>
      <point x="169" y="0" type="move" name="bottom"/>
    </contour>
  </outline>
</glyph>
<glyph name="uni0187" format="1">
  <advance width="490"/>
  <unicode hex="0187"/>
  <outline>
    <contour>
      <point x="537" y="634" type="line"/>
      <point x="541" y="667" type="line" smooth="yes"/>
      <point x="546" y="705"/>
      <point x="557" y="724"/>
      <point x="580" y="724" type="curve" smooth="yes"/>
      <point x="594" y="724"/>
      <point x="609" y="719"/>
      <point x="625" y="709" type="curve"/>
      <point x="689" y="823" type="line"/>
      <point x="662" y="842"/>
      <point x="624" y="861"/>
      <point x="567" y="861" type="curve" smooth="yes"/>
      <point x="459" y="861"/>
      <point x="406" y="794"/>
      <point x="394" y="715" type="curve" smooth="yes"/>
      <point x="381" y="634" type="line"/>
    </contour>
    <contour>
      <point x="143" y="716"/>
      <point x="23" y="505"/>
      <point x="23" y="252" type="curve" smooth="yes"/>
      <point x="23" y="66"/>
      <point x="114" y="-20"/>
      <point x="249" y="-20" type="curve" smooth="yes"/>
      <point x="341" y="-20"/>
      <point x="414" y="24"/>
      <point x="466" y="74" type="curve"/>
      <point x="397" y="180" type="line"/>
      <point x="357" y="150"/>
      <point x="326" y="129"/>
      <point x="290" y="129" type="curve" smooth="yes"/>
      <point x="246" y="129"/>
      <point x="223" y="160"/>
      <point x="223" y="240" type="curve" smooth="yes"/>
      <point x="223" y="380"/>
      <point x="256" y="573"/>
      <point x="355" y="573" type="curve" smooth="yes"/>
      <point x="387" y="573"/>
      <point x="414" y="559"/>
      <point x="443" y="538" type="curve"/>
      <point x="537" y="634" type="line"/>
      <point x="511" y="664"/>
      <point x="480" y="687"/>
      <point x="443" y="671" type="curve"/>
      <point x="407" y="701"/>
      <point x="369" y="716"/>
      <point x="324" y="716" type="curve" smooth="yes"/>
    </contour>
    <contour>
      <point x="301" y="744" type="move" name="top"/>
    </contour>
    <contour>
      <point x="217" y="0" type="move" name="bottom"/>
    </contour>
  </outline>
</glyph>
<glyph name="uni0188" format="1">
  <advance width="400"/>
  <unicode hex="0188"/>
  <outline>
    <contour>
      <point x="285" y="-20"/>
      <point x="339" y="5"/>
      <point x="385" y="44" type="curve"/>
      <point x="321" y="152" type="line"/>
      <point x="292" y="134"/>
      <point x="272" y="125"/>
      <point x="251" y="125" type="curve" smooth="yes"/>
      <point x="224" y="125"/>
      <point x="204" y="136"/>
      <point x="204" y="201" type="curve" smooth="yes"/>
      <point x="204" y="296"/>
      <point x="226" y="412"/>
      <point x="294" y="412" type="curve" smooth="yes"/>
      <point x="315" y="412"/>
      <point x="338" y="405"/>
      <point x="364" y="388" type="curve"/>
      <point x="447" y="483" type="line"/>
      <point x="427" y="506"/>
      <point x="404" y="504"/>
      <point x="376" y="517" type="curve"/>
      <point x="330" y="538"/>
      <point x="301" y="554"/>
      <point x="263" y="554" type="curve" smooth="yes"/>
      <point x="117" y="554"/>
      <point x="11" y="407"/>
      <point x="11" y="204" type="curve" smooth="yes"/>
      <point x="11" y="63"/>
      <point x="88" y="-20"/>
      <point x="215" y="-20" type="curve" smooth="yes"/>
    </contour>
    <contour>
      <point x="381" y="763"/>
      <point x="329" y="707"/>
      <point x="314" y="617" type="curve" smooth="yes"/>
      <point x="300" y="531" type="line"/>
      <point x="447" y="483" type="line"/>
      <point x="460" y="569" type="line" smooth="yes"/>
      <point x="466" y="607"/>
      <point x="471" y="626"/>
      <point x="496" y="626" type="curve" smooth="yes"/>
      <point x="509" y="626"/>
      <point x="525" y="621"/>
      <point x="542" y="612" type="curve"/>
      <point x="605" y="725" type="line"/>
      <point x="576" y="746"/>
      <point x="535" y="763"/>
      <point x="481" y="763" type="curve" smooth="yes"/>
    </contour>
    <contour>
      <point x="273" y="744" type="move" name="top"/>
    </contour>
    <contour>
      <point x="168" y="0" type="move" name="bottom"/>
    </contour>
  </outline>
</glyph>
<glyph name="uni018B" format="1">
  <advance width="506"/>
  <unicode hex="018B"/>
  <outline>
    <contour>
      <point x="122" y="549" type="line"/>
      <point x="332" y="549" type="line"/>
      <point x="537" y="696" type="line"/>
      <point x="142" y="696" type="line"/>
    </contour>
    <component base="uni0500" xOffset="3"/>
    <contour>
      <point x="310" y="696" type="move" name="top"/>
    </contour>
    <contour>
      <point x="212" y="0" type="move" name="bottom"/>
    </contour>
  </outline>
</glyph>
<glyph name="uni018C" format="1">
  <advance width="494"/>
  <unicode hex="018C"/>
  <outline>
    <contour>
      <point x="331" y="610" type="line"/>
      <point x="536" y="744" type="line"/>
      <point x="186" y="744" type="line"/>
      <point x="168" y="610" type="line"/>
    </contour>
    <contour>
      <point x="315" y="491" type="line"/>
      <point x="295" y="518"/>
      <point x="266" y="534"/>
      <point x="226" y="534" type="curve" smooth="yes"/>
      <point x="83" y="534"/>
      <point x="6" y="344"/>
      <point x="6" y="171" type="curve" smooth="yes"/>
      <point x="6" y="45"/>
      <point x="56" y="-20"/>
      <point x="140" y="-20" type="curve" smooth="yes"/>
      <point x="199" y="-20"/>
      <point x="235" y="8"/>
      <point x="269" y="56" type="curve"/>
      <point x="267" y="0" type="line"/>
      <point x="432" y="0" type="line"/>
      <point x="536" y="744" type="line"/>
      <point x="349" y="744" type="line"/>
    </contour>
    <contour>
      <point x="282" y="398"/>
      <point x="291" y="391"/>
      <point x="299" y="378" type="curve"/>
      <point x="268" y="163" type="line"/>
      <point x="252" y="135"/>
      <point x="234" y="116"/>
      <point x="219" y="116" type="curve" smooth="yes"/>
      <point x="206" y="116"/>
      <point x="196" y="123"/>
      <point x="196" y="174" type="curve" smooth="yes"/>
      <point x="196" y="244"/>
      <point x="219" y="398"/>
      <point x="269" y="398" type="curve" smooth="yes"/>
    </contour>
    <contour>
      <point x="319" y="744" type="move" name="top"/>
    </contour>
    <contour>
      <point x="215" y="0" type="move" name="bottom"/>
    </contour>
  </outline>
</glyph>
<glyph name="uni018D" format="1">
  <advance width="488"/>
  <unicode hex="018D"/>
  <outline>
    <contour>
      <point x="311" y="-226"/>
      <point x="379" y="-137"/>
      <point x="379" y="-52" type="curve" smooth="yes"/>
      <point x="379" y="-16"/>
      <point x="363" y="27"/>
      <point x="315" y="63" type="curve"/>
      <point x="446" y="126"/>
      <point x="480" y="231"/>
      <point x="480" y="348" type="curve" smooth="yes"/>
      <point x="480" y="459"/>
      <point x="411" y="553"/>
      <point x="282" y="553" type="curve" smooth="yes"/>
      <point x="81" y="553"/>
      <point x="11" y="355"/>
      <point x="11" y="218" type="curve" smooth="yes"/>
      <point x="11" y="114"/>
      <point x="54" y="59"/>
      <point x="151" y="6" type="curve" smooth="yes"/>
      <point x="198" y="-20"/>
      <point x="205" y="-34"/>
      <point x="205" y="-53" type="curve" smooth="yes"/>
      <point x="205" y="-80"/>
      <point x="193" y="-101"/>
      <point x="161" y="-101" type="curve" smooth="yes"/>
      <point x="132" y="-101"/>
      <point x="107" y="-86"/>
      <point x="86" y="-63" type="curve"/>
      <point x="-9" y="-147" type="line"/>
      <point x="21" y="-190"/>
      <point x="78" y="-226"/>
      <point x="168" y="-226" type="curve" smooth="yes"/>
    </contour>
    <contour>
      <point x="205" y="143"/>
      <point x="199" y="167"/>
      <point x="199" y="212" type="curve" smooth="yes"/>
      <point x="199" y="329"/>
      <point x="222" y="416"/>
      <point x="263" y="416" type="curve" smooth="yes"/>
      <point x="282" y="416"/>
      <point x="292" y="398"/>
      <point x="292" y="350" type="curve" smooth="yes"/>
      <point x="292" y="258"/>
      <point x="282" y="181"/>
      <point x="234" y="116" type="curve"/>
    </contour>
    <contour>
      <point x="286" y="534" type="move" name="top"/>
    </contour>
  </outline>
</glyph>
<glyph name="uni018E" format="1">
  <advance width="415"/>
  <unicode hex="018E"/>
  <outline>
    <contour>
      <point x="46" y="559" type="line"/>
      <point x="233" y="559" type="line"/>
      <point x="214" y="420" type="line"/>
      <point x="60" y="420" type="line"/>
      <point x="40" y="286" type="line"/>
      <point x="195" y="286" type="line"/>
      <point x="174" y="139" type="line"/>
      <point x="-13" y="139" type="line"/>
      <point x="-33" y="0" type="line"/>
      <point x="349" y="0" type="line"/>
      <point x="446" y="696" type="line"/>
      <point x="66" y="696" type="line"/>
    </contour>
  </outline>
</glyph>
<glyph name="uni0190" format="1">
  <advance width="454"/>
  <unicode hex="0190"/>
  <outline>
    <contour>
      <point x="185" y="715"/>
      <point x="62" y="635"/>
      <point x="62" y="504" type="curve" smooth="yes"/>
      <point x="62" y="439"/>
      <point x="92" y="388"/>
      <point x="189" y="367" type="curve"/>
      <point x="65" y="355"/>
      <point x="-7" y="294"/>
      <point x="-7" y="166" type="curve" smooth="yes"/>
      <point x="-7" y="52"/>
      <point x="77" y="-19"/>
      <point x="211" y="-19" type="curve" smooth="yes"/>
      <point x="308" y="-19"/>
      <point x="381" y="17"/>
      <point x="438" y="79" type="curve"/>
      <point x="355" y="176" type="line"/>
      <point x="315" y="142"/>
      <point x="285" y="122"/>
      <point x="248" y="122" type="curve" smooth="yes"/>
      <point x="211" y="122"/>
      <point x="192" y="142"/>
      <point x="192" y="191" type="curve" smooth="yes"/>
      <point x="192" y="259"/>
      <point x="231" y="297"/>
      <point x="296" y="297" type="curve" smooth="yes"/>
      <point x="329" y="297" type="line"/>
      <point x="370" y="434" type="line"/>
      <point x="316" y="434" type="line" smooth="yes"/>
      <point x="275" y="434"/>
      <point x="256" y="453"/>
      <point x="256" y="490" type="curve" smooth="yes"/>
      <point x="256" y="541"/>
      <point x="280" y="576"/>
      <point x="319" y="576" type="curve" smooth="yes"/>
      <point x="350" y="576"/>
      <point x="376" y="560"/>
      <point x="403" y="527" type="curve"/>
      <point x="503" y="619" type="line"/>
      <point x="457" y="681"/>
      <point x="402" y="715"/>
      <point x="305" y="715" type="curve" smooth="yes"/>
    </contour>
    <contour>
      <point x="314" y="696" type="move" name="top"/>
    </contour>
    <contour>
      <point x="201" y="0" type="move" name="bottom"/>
    </contour>
  </outline>
</glyph>
<glyph name="uni0193" format="1">
  <advance width="527"/>
  <unicode hex="0193"/>
  <outline>
    <contour>
      <point x="146" y="716"/>
      <point x="21" y="498"/>
      <point x="21" y="244" type="curve" smooth="yes"/>
      <point x="21" y="73"/>
      <point x="96" y="-19"/>
      <point x="257" y="-19" type="curve" smooth="yes"/>
      <point x="330" y="-19"/>
      <point x="421" y="8"/>
      <point x="492" y="58" type="curve"/>
      <point x="540" y="407" type="line"/>
      <point x="294" y="407" type="line"/>
      <point x="293" y="273" type="line"/>
      <point x="341" y="273" type="line"/>
      <point x="322" y="141" type="line"/>
      <point x="306" y="129"/>
      <point x="288" y="121"/>
      <point x="267" y="121" type="curve" smooth="yes"/>
      <point x="235" y="121"/>
      <point x="217" y="145"/>
      <point x="217" y="213" type="curve" smooth="yes"/>
      <point x="217" y="369"/>
      <point x="252" y="577"/>
      <point x="372" y="577" type="curve" smooth="yes"/>
      <point x="411" y="577"/>
      <point x="444" y="566"/>
      <point x="480" y="537" type="curve"/>
      <point x="572" y="625" type="line"/>
      <point x="551" y="651"/>
      <point x="520" y="674"/>
      <point x="477" y="660" type="curve"/>
      <point x="450" y="696"/>
      <point x="409" y="716"/>
      <point x="351" y="716" type="curve" smooth="yes"/>
    </contour>
    <contour>
      <point x="572" y="625" type="line"/>
      <point x="578" y="667" type="line" smooth="yes"/>
      <point x="583" y="705"/>
      <point x="594" y="724"/>
      <point x="617" y="724" type="curve" smooth="yes"/>
      <point x="631" y="724"/>
      <point x="646" y="719"/>
      <point x="662" y="709" type="curve"/>
      <point x="726" y="823" type="line"/>
      <point x="699" y="842"/>
      <point x="661" y="861"/>
      <point x="604" y="861" type="curve" smooth="yes"/>
      <point x="496" y="861"/>
      <point x="444" y="794"/>
      <point x="431" y="715" type="curve" smooth="yes"/>
      <point x="418" y="634" type="line"/>
    </contour>
    <contour>
      <point x="334" y="744" type="move" name="top"/>
    </contour>
    <contour>
      <point x="235" y="0" type="move" name="bottom"/>
    </contour>
  </outline>
</glyph>
<glyph name="uni0194" format="1">
  <advance width="488"/>
  <unicode hex="0194"/>
  <outline>
    <contour>
      <point x="288" y="-226"/>
      <point x="351" y="-168"/>
      <point x="351" y="-58" type="curve" smooth="yes"/>
      <point x="351" y="-7"/>
      <point x="333" y="40"/>
      <point x="312" y="95" type="curve"/>
      <point x="245" y="229" type="line"/>
      <point x="237" y="696" type="line"/>
      <point x="40" y="696" type="line"/>
      <point x="131" y="103" type="line"/>
      <point x="211" y="7" type="line"/>
      <point x="218" y="-20"/>
      <point x="221" y="-42"/>
      <point x="221" y="-63" type="curve" smooth="yes"/>
      <point x="221" y="-94"/>
      <point x="212" y="-109"/>
      <point x="195" y="-109" type="curve" smooth="yes"/>
      <point x="184" y="-109"/>
      <point x="178" y="-102"/>
      <point x="178" y="-86" type="curve" smooth="yes"/>
      <point x="178" y="-61"/>
      <point x="194" y="-24"/>
      <point x="211" y="7" type="curve"/>
      <point x="312" y="95" type="line"/>
      <point x="568" y="696" type="line"/>
      <point x="371" y="696" type="line"/>
      <point x="245" y="229" type="line"/>
      <point x="131" y="103" type="line"/>
      <point x="79" y="32"/>
      <point x="48" y="-32"/>
      <point x="48" y="-103" type="curve" smooth="yes"/>
      <point x="48" y="-177"/>
      <point x="91" y="-226"/>
      <point x="181" y="-226" type="curve" smooth="yes"/>
    </contour>
    <contour>
      <point x="303" y="696" type="move" name="top"/>
    </contour>
  </outline>
</glyph>
<glyph name="uni0195" format="1">
  <advance width="702"/>
  <unicode hex="0195"/>
  <outline>
    <contour>
      <point x="661" y="-19"/>
      <point x="696" y="189"/>
      <point x="696" y="446" type="curve" smooth="yes"/>
      <point x="696" y="474"/>
      <point x="694" y="502"/>
      <point x="691" y="534" type="curve"/>
      <point x="516" y="534" type="line"/>
      <point x="517" y="506"/>
      <point x="518" y="474"/>
      <point x="518" y="447" type="curve" smooth="yes"/>
      <point x="518" y="328"/>
      <point x="501" y="117"/>
      <point x="444" y="117" type="curve" smooth="yes"/>
      <point x="428" y="117"/>
      <point x="425" y="129"/>
      <point x="429" y="158" type="curve" smooth="yes"/>
      <point x="462" y="395" type="line" smooth="yes"/>
      <point x="476" y="493"/>
      <point x="439" y="554"/>
      <point x="367" y="554" type="curve" smooth="yes"/>
      <point x="305" y="554"/>
      <point x="262" y="505"/>
      <point x="238" y="464" type="curve"/>
      <point x="279" y="763" type="line"/>
      <point x="91" y="744" type="line"/>
      <point x="-13" y="0" type="line"/>
      <point x="173" y="0" type="line"/>
      <point x="214" y="294" type="line"/>
      <point x="243" y="359"/>
      <point x="254" y="383"/>
      <point x="264" y="383" type="curve" smooth="yes"/>
      <point x="270" y="383"/>
      <point x="271" y="376"/>
      <point x="269" y="358" type="curve" smooth="yes"/>
      <point x="243" y="168" type="line" smooth="yes"/>
      <point x="231" y="79"/>
      <point x="276" y="-19"/>
      <point x="420" y="-19" type="curve" smooth="yes"/>
    </contour>
    <contour>
      <point x="414" y="744" type="move" name="top"/>
    </contour>
    <contour>
      <point x="310" y="0" type="move" name="bottom"/>
    </contour>
  </outline>
</glyph>
<glyph name="uni0196" format="1">
  <advance width="345"/>
  <unicode hex="0196"/>
  <outline>
    <contour>
      <point x="79" y="696" type="line"/>
      <point x="10" y="207" type="line"/>
      <point x="204" y="207" type="line"/>
      <point x="272" y="696" type="line"/>
    </contour>
    <component base="hookHELPERright.case" xOffset="11" yOffset="207"/>
    <contour>
      <point x="175" y="696" type="move" name="top"/>
    </contour>
    <contour>
      <point x="129" y="0" type="move" name="bottom"/>
    </contour>
  </outline>
</glyph>
<glyph name="uni0198" format="1">
  <advance width="572"/>
  <unicode hex="0198"/>
  <outline>
    <contour>
      <point x="538" y="0" type="line"/>
      <point x="436" y="377" type="line"/>
      <point x="520" y="552" type="line" smooth="yes"/>
      <point x="529" y="570"/>
      <point x="540" y="578"/>
      <point x="557" y="578" type="curve" smooth="yes"/>
      <point x="569" y="578"/>
      <point x="579" y="573"/>
      <point x="583" y="571" type="curve"/>
      <point x="640" y="679" type="line"/>
      <point x="618" y="698"/>
      <point x="586" y="715"/>
      <point x="535" y="715" type="curve" smooth="yes"/>
      <point x="457" y="715"/>
      <point x="410" y="684"/>
      <point x="363" y="597" type="curve" smooth="yes"/>
      <point x="241" y="371" type="line"/>
      <point x="329" y="0" type="line"/>
    </contour>
    <contour>
      <point x="184" y="0" type="line"/>
      <point x="282" y="696" type="line"/>
      <point x="88" y="696" type="line"/>
      <point x="-10" y="0" type="line"/>
    </contour>
    <contour>
      <point x="343" y="696" type="move" name="top"/>
    </contour>
    <contour>
      <point x="245" y="0" type="move" name="bottom"/>
    </contour>
  </outline>
</glyph>
<glyph name="uni0199" format="1">
  <advance width="498"/>
  <unicode hex="0199"/>
  <outline>
    <contour>
      <point x="61" y="533" type="line"/>
      <point x="-14" y="0" type="line"/>
      <point x="173" y="0" type="line"/>
      <point x="220" y="345" type="line"/>
      <point x="255" y="400"/>
      <point x="282" y="424"/>
      <point x="305" y="424" type="curve" smooth="yes"/>
      <point x="320" y="424"/>
      <point x="330" y="413"/>
      <point x="330" y="390" type="curve" smooth="yes"/>
      <point x="330" y="345"/>
      <point x="311" y="298"/>
      <point x="221" y="256" type="curve"/>
      <point x="268" y="0" type="line"/>
      <point x="460" y="0" type="line"/>
      <point x="403" y="243" type="line"/>
      <point x="480" y="297"/>
      <point x="517" y="348"/>
      <point x="517" y="430" type="curve" smooth="yes"/>
      <point x="517" y="503"/>
      <point x="467" y="553"/>
      <point x="390" y="553" type="curve" smooth="yes"/>
      <point x="331" y="553"/>
      <point x="285" y="531"/>
      <point x="241" y="480" type="curve"/>
      <point x="247" y="533" type="line"/>
    </contour>
    <component base="hookaboveHELPER" xOffset="-11"/>
  </outline>
</glyph>
<glyph name="uni019B" format="1">
  <advance width="455"/>
  <unicode hex="019B"/>
  <outline>
    <contour>
      <point x="240" y="560" type="line"/>
      <point x="350" y="629" type="line"/>
      <point x="410" y="680" type="line"/>
      <point x="362" y="768" type="line"/>
      <point x="268" y="693" type="line"/>
      <point x="173" y="632" type="line"/>
      <point x="109" y="574" type="line"/>
      <point x="189" y="511" type="line"/>
    </contour>
    <contour>
      <point x="102" y="649" type="line"/>
      <point x="207" y="631"/>
      <point x="233" y="600"/>
      <point x="235" y="470" type="curve"/>
      <point x="163" y="484" type="line"/>
      <point x="-34" y="26" type="line"/>
      <point x="158" y="-19" type="line"/>
      <point x="238" y="344" type="line"/>
      <point x="236" y="198"/>
      <point x="242" y="86"/>
      <point x="274" y="-18" type="curve"/>
      <point x="448" y="38" type="line"/>
      <point x="407" y="138"/>
      <point x="397" y="243"/>
      <point x="388" y="399" type="curve" smooth="yes"/>
      <point x="370" y="687"/>
      <point x="290" y="733"/>
      <point x="135" y="763" type="curve"/>
    </contour>
    <contour>
      <point x="302" y="744" type="move" name="top"/>
    </contour>
    <contour>
      <point x="197" y="0" type="move" name="bottom"/>
    </contour>
  </outline>
</glyph>
<glyph name="uni019C" format="1">
  <advance width="733"/>
  <unicode hex="019C"/>
  <outline>
    <contour>
      <point x="174" y="-19"/>
      <point x="221" y="7"/>
      <point x="267" y="71" type="curve"/>
      <point x="257" y="181" type="line"/>
      <point x="241" y="143"/>
      <point x="225" y="124"/>
      <point x="212" y="124" type="curve" smooth="yes"/>
      <point x="201" y="124"/>
      <point x="195" y="135"/>
      <point x="198" y="160" type="curve" smooth="yes"/>
      <point x="273" y="696" type="line"/>
      <point x="79" y="696" type="line"/>
      <point x="2" y="153" type="line" smooth="yes"/>
      <point x="-11" y="61"/>
      <point x="30" y="-19"/>
      <point x="117" y="-19" type="curve" smooth="yes"/>
    </contour>
    <contour>
      <point x="417" y="-19"/>
      <point x="456" y="7"/>
      <point x="512" y="80" type="curve"/>
      <point x="502" y="182" type="line"/>
      <point x="486" y="143"/>
      <point x="470" y="124"/>
      <point x="457" y="124" type="curve" smooth="yes"/>
      <point x="446" y="124"/>
      <point x="441" y="135"/>
      <point x="444" y="160" type="curve" smooth="yes"/>
      <point x="518" y="696" type="line"/>
      <point x="325" y="696" type="line"/>
      <point x="248" y="153" type="line" smooth="yes"/>
      <point x="235" y="61"/>
      <point x="275" y="-19"/>
      <point x="362" y="-19" type="curve" smooth="yes"/>
    </contour>
    <contour>
      <point x="667" y="0" type="line"/>
      <point x="764" y="696" type="line"/>
      <point x="570" y="696" type="line"/>
      <point x="486" y="101" type="line"/>
      <point x="496" y="0" type="line"/>
    </contour>
    <contour>
      <point x="426" y="696" type="move" name="top"/>
    </contour>
    <contour>
      <point x="328" y="0" type="move" name="bottom"/>
    </contour>
  </outline>
</glyph>
<glyph name="uni019D" format="1">
  <advance width="530"/>
  <unicode hex="019D"/>
  <outline>
    <contour>
      <point x="64" y="-226"/>
      <point x="136" y="-160"/>
      <point x="152" y="-42" type="curve" smooth="yes"/>
      <point x="158" y="0" type="line"/>
      <point x="-9" y="0" type="line"/>
      <point x="-14" y="-40" type="line" smooth="yes"/>
      <point x="-18" y="-74"/>
      <point x="-34" y="-93"/>
      <point x="-58" y="-93" type="curve" smooth="yes"/>
      <point x="-78" y="-93"/>
      <point x="-90" y="-87"/>
      <point x="-107" y="-77" type="curve"/>
      <point x="-184" y="-180" type="line"/>
      <point x="-154" y="-205"/>
      <point x="-116" y="-226"/>
      <point x="-52" y="-226" type="curve" smooth="yes"/>
    </contour>
    <component base="N"/>
  </outline>
</glyph>
<glyph name="uni019E" format="1">
  <advance width="466"/>
  <unicode hex="019E"/>
  <outline>
    <contour>
      <point x="305" y="554"/>
      <point x="259" y="510"/>
      <point x="225" y="457" type="curve"/>
      <point x="224" y="534" type="line"/>
      <point x="62" y="534" type="line"/>
      <point x="-12" y="0" type="line"/>
      <point x="174" y="0" type="line"/>
      <point x="215" y="294" type="line"/>
      <point x="244" y="359"/>
      <point x="255" y="383"/>
      <point x="265" y="383" type="curve" smooth="yes"/>
      <point x="271" y="383"/>
      <point x="273" y="376"/>
      <point x="270" y="358" type="curve" smooth="yes"/>
      <point x="186" y="-227" type="line"/>
      <point x="376" y="-207" type="line"/>
      <point x="463" y="395" type="line" smooth="yes"/>
      <point x="477" y="493"/>
      <point x="440" y="554"/>
      <point x="367" y="554" type="curve" smooth="yes"/>
    </contour>
  </outline>
</glyph>
<glyph name="uni01A2" format="1">
  <advance width="822"/>
  <unicode hex="01A2"/>
  <outline>
    <contour>
      <point x="597" y="715"/>
      <point x="536" y="696"/>
      <point x="487" y="652" type="curve"/>
      <point x="560" y="561" type="line"/>
      <point x="578" y="574"/>
      <point x="591" y="580"/>
      <point x="609" y="580" type="curve" smooth="yes"/>
      <point x="634" y="580"/>
      <point x="640" y="561"/>
      <point x="637" y="536" type="curve" smooth="yes"/>
      <point x="533" y="-215" type="line"/>
      <point x="726" y="-215" type="line"/>
      <point x="830" y="527" type="line" smooth="yes"/>
      <point x="847" y="645"/>
      <point x="777" y="715"/>
      <point x="658" y="715" type="curve" smooth="yes"/>
    </contour>
    <contour>
      <point x="124" y="716"/>
      <point x="23" y="496"/>
      <point x="23" y="246" type="curve" smooth="yes"/>
      <point x="23" y="68"/>
      <point x="101" y="-20"/>
      <point x="254" y="-20" type="curve" smooth="yes"/>
      <point x="478" y="-20"/>
      <point x="581" y="201"/>
      <point x="581" y="451" type="curve" smooth="yes"/>
      <point x="581" y="619"/>
      <point x="492" y="716"/>
      <point x="349" y="716" type="curve" smooth="yes"/>
    </contour>
    <contour>
      <point x="369" y="575"/>
      <point x="384" y="551"/>
      <point x="384" y="489" type="curve" smooth="yes"/>
      <point x="384" y="352"/>
      <point x="354" y="120"/>
      <point x="266" y="120" type="curve" smooth="yes"/>
      <point x="234" y="120"/>
      <point x="219" y="142"/>
      <point x="219" y="202" type="curve" smooth="yes"/>
      <point x="219" y="334"/>
      <point x="251" y="575"/>
      <point x="337" y="575" type="curve" smooth="yes"/>
    </contour>
    <contour>
      <point x="475" y="696" type="move" name="top"/>
    </contour>
  </outline>
</glyph>
<glyph name="uni01A3" format="1">
  <advance width="708"/>
  <unicode hex="01A3"/>
  <outline>
    <contour>
      <point x="620" y="-208" type="line"/>
      <point x="696" y="354" type="line" smooth="yes"/>
      <point x="713" y="476"/>
      <point x="656" y="554"/>
      <point x="539" y="554" type="curve" smooth="yes"/>
      <point x="467" y="554"/>
      <point x="425" y="536"/>
      <point x="363" y="501" type="curve"/>
      <point x="436" y="401" type="line"/>
      <point x="461" y="413"/>
      <point x="477" y="419"/>
      <point x="493" y="419" type="curve" smooth="yes"/>
      <point x="509" y="419"/>
      <point x="519" y="409"/>
      <point x="515" y="381" type="curve" smooth="yes"/>
      <point x="432" y="-227" type="line"/>
    </contour>
    <contour>
      <point x="101" y="554"/>
      <point x="10" y="388"/>
      <point x="10" y="196" type="curve" smooth="yes"/>
      <point x="10" y="48"/>
      <point x="88" y="-20"/>
      <point x="207" y="-20" type="curve" smooth="yes"/>
      <point x="386" y="-20"/>
      <point x="478" y="144"/>
      <point x="478" y="337" type="curve" smooth="yes"/>
      <point x="478" y="485"/>
      <point x="399" y="554"/>
      <point x="281" y="554" type="curve" smooth="yes"/>
    </contour>
    <contour>
      <point x="282" y="417"/>
      <point x="291" y="405"/>
      <point x="291" y="367" type="curve" smooth="yes"/>
      <point x="291" y="277"/>
      <point x="270" y="116"/>
      <point x="221" y="116" type="curve" smooth="yes"/>
      <point x="206" y="116"/>
      <point x="197" y="128"/>
      <point x="197" y="167" type="curve" smooth="yes"/>
      <point x="197" y="257"/>
      <point x="217" y="417"/>
      <point x="267" y="417" type="curve" smooth="yes"/>
    </contour>
    <contour>
      <point x="394" y="534" type="move" name="top"/>
    </contour>
  </outline>
</glyph>
<glyph name="uni01A5" format="1">
  <advance width="493"/>
  <unicode hex="01A5"/>
  <outline>
    <contour>
      <point x="143" y="-208" type="line"/>
      <point x="171" y="-12" type="line"/>
      <point x="191" y="-17"/>
      <point x="213" y="-20"/>
      <point x="236" y="-20" type="curve" smooth="yes"/>
      <point x="409" y="-20"/>
      <point x="486" y="150"/>
      <point x="486" y="376" type="curve" smooth="yes"/>
      <point x="486" y="491"/>
      <point x="441" y="554"/>
      <point x="360" y="554" type="curve" smooth="yes"/>
      <point x="308" y="554"/>
      <point x="273" y="531"/>
      <point x="242" y="491" type="curve"/>
      <point x="247" y="533" type="line"/>
      <point x="61" y="533" type="line"/>
      <point x="-45" y="-227" type="line"/>
    </contour>
    <contour>
      <point x="208" y="114"/>
      <point x="200" y="116"/>
      <point x="189" y="121" type="curve"/>
      <point x="226" y="378" type="line"/>
      <point x="243" y="404"/>
      <point x="260" y="417"/>
      <point x="274" y="417" type="curve" smooth="yes"/>
      <point x="287" y="417"/>
      <point x="298" y="410"/>
      <point x="298" y="367" type="curve" smooth="yes"/>
      <point x="298" y="283"/>
      <point x="277" y="114"/>
      <point x="217" y="114" type="curve" smooth="yes"/>
    </contour>
    <component base="hookaboveHELPER" xOffset="-11"/>
    <contour>
      <point x="312" y="744" type="move" name="top"/>
    </contour>
    <contour>
      <point x="194" y="-215" type="move" name="bottom"/>
    </contour>
  </outline>
</glyph>
<glyph name="uni01A6" format="1">
  <advance width="518"/>
  <unicode hex="01A6"/>
  <outline>
    <contour>
      <point x="186" y="0" type="line"/>
      <point x="283" y="696" type="line"/>
      <point x="89" y="696" type="line"/>
      <point x="-8" y="0" type="line"/>
    </contour>
    <contour>
      <point x="317" y="139" type="line"/>
      <point x="451" y="198"/>
      <point x="519" y="262"/>
      <point x="519" y="395" type="curve" smooth="yes"/>
      <point x="519" y="516"/>
      <point x="444" y="585"/>
      <point x="271" y="585" type="curve" smooth="yes"/>
      <point x="73" y="585" type="line"/>
      <point x="234" y="450" type="line"/>
      <point x="264" y="450" type="line" smooth="yes"/>
      <point x="303" y="450"/>
      <point x="323" y="434"/>
      <point x="323" y="390" type="curve" smooth="yes"/>
      <point x="323" y="331"/>
      <point x="301" y="273"/>
      <point x="240" y="273" type="curve" smooth="yes"/>
      <point x="211" y="273" type="line"/>
      <point x="192" y="140" type="line"/>
    </contour>
    <contour>
      <point x="490" y="-111" type="line"/>
      <point x="392" y="190" type="line"/>
      <point x="219" y="154" type="line"/>
      <point x="290" y="-111" type="line"/>
    </contour>
    <contour>
      <point x="321" y="696" type="move" name="top"/>
    </contour>
  </outline>
</glyph>
<glyph name="uni01A7" format="1">
  <advance width="472"/>
  <unicode hex="01A7"/>
  <outline>
    <contour>
      <point x="225" y="715"/>
      <point x="147" y="682"/>
      <point x="80" y="622" type="curve"/>
      <point x="145" y="521" type="line"/>
      <point x="186" y="554"/>
      <point x="228" y="574"/>
      <point x="270" y="574" type="curve" smooth="yes"/>
      <point x="297" y="574"/>
      <point x="314" y="559"/>
      <point x="314" y="530" type="curve" smooth="yes"/>
      <point x="314" y="482"/>
      <point x="294" y="460"/>
      <point x="200" y="426" type="curve" smooth="yes"/>
      <point x="75" y="381"/>
      <point x="-3" y="310"/>
      <point x="-3" y="167" type="curve" smooth="yes"/>
      <point x="-3" y="57"/>
      <point x="73" y="-19"/>
      <point x="204" y="-19" type="curve" smooth="yes"/>
      <point x="317" y="-19"/>
      <point x="400" y="28"/>
      <point x="454" y="83" type="curve"/>
      <point x="377" y="187" type="line"/>
      <point x="333" y="151"/>
      <point x="288" y="126"/>
      <point x="244" y="126" type="curve" smooth="yes"/>
      <point x="207" y="126"/>
      <point x="197" y="147"/>
      <point x="197" y="177" type="curve" smooth="yes"/>
      <point x="197" y="230"/>
      <point x="223" y="266"/>
      <point x="293" y="293" type="curve" smooth="yes"/>
      <point x="432" y="347"/>
      <point x="512" y="406"/>
      <point x="512" y="542" type="curve" smooth="yes"/>
      <point x="512" y="648"/>
      <point x="436" y="715"/>
      <point x="319" y="715" type="curve" smooth="yes"/>
    </contour>
    <contour>
      <point x="308" y="696" type="move" name="top"/>
    </contour>
    <contour>
      <point x="198" y="0" type="move" name="bottom"/>
    </contour>
  </outline>
</glyph>
<glyph name="uni01AA" format="1">
  <advance width="421"/>
  <unicode hex="01AA"/>
  <outline>
    <contour>
      <point x="124" y="763"/>
      <point x="42" y="676"/>
      <point x="42" y="550" type="curve" smooth="yes"/>
      <point x="42" y="456"/>
      <point x="93" y="390"/>
      <point x="165" y="390" type="curve" smooth="yes"/>
      <point x="226" y="390"/>
      <point x="272" y="425"/>
      <point x="302" y="464" type="curve"/>
      <point x="280" y="535" type="line"/>
      <point x="259" y="524"/>
      <point x="243" y="517"/>
      <point x="224" y="517" type="curve" smooth="yes"/>
      <point x="205" y="517"/>
      <point x="195" y="528"/>
      <point x="195" y="555" type="curve" smooth="yes"/>
      <point x="195" y="592"/>
      <point x="203" y="635"/>
      <point x="235" y="635" type="curve" smooth="yes"/>
      <point x="254" y="635"/>
      <point x="259" y="621"/>
      <point x="255" y="590" type="curve" smooth="yes"/>
      <point x="173" y="0" type="line"/>
      <point x="359" y="0" type="line"/>
      <point x="434" y="538" type="line" smooth="yes"/>
      <point x="453" y="680"/>
      <point x="381" y="763"/>
      <point x="257" y="763" type="curve" smooth="yes"/>
    </contour>
    <component base="hookHELPERright" xOffset="186"/>
    <contour>
      <point x="294" y="744" type="move" name="top"/>
    </contour>
  </outline>
</glyph>
<glyph name="uni01AB" format="1">
  <advance width="332"/>
  <unicode hex="01AB"/>
  <outline>
    <contour>
      <point x="197" y="-20"/>
      <point x="221" y="-7"/>
      <point x="244" y="-1" type="curve"/>
      <point x="315" y="21" type="line"/>
      <point x="276" y="127" type="line"/>
      <point x="264" y="122"/>
      <point x="255" y="119"/>
      <point x="241" y="119" type="curve" smooth="yes"/>
      <point x="222" y="119"/>
      <point x="210" y="133"/>
      <point x="214" y="163" type="curve" smooth="yes"/>
      <point x="284" y="669" type="line"/>
      <point x="117" y="650" type="line"/>
      <point x="71" y="477" type="line"/>
      <point x="29" y="174" type="line" smooth="yes"/>
      <point x="13" y="55"/>
      <point x="62" y="-20"/>
      <point x="175" y="-20" type="curve" smooth="yes"/>
    </contour>
    <contour>
      <point x="210" y="-226"/>
      <point x="289" y="-164"/>
      <point x="305" y="-49" type="curve" smooth="yes"/>
      <point x="315" y="21" type="line"/>
      <point x="152" y="1" type="line"/>
      <point x="148" y="-34" type="line" smooth="yes"/>
      <point x="143" y="-76"/>
      <point x="124" y="-94"/>
      <point x="90" y="-94" type="curve" smooth="yes"/>
      <point x="62" y="-94"/>
      <point x="43" y="-87"/>
      <point x="23" y="-75" type="curve"/>
      <point x="-51" y="-180" type="line"/>
      <point x="-21" y="-206"/>
      <point x="26" y="-226"/>
      <point x="90" y="-226" type="curve" smooth="yes"/>
    </contour>
    <contour>
      <point x="319" y="405" type="line"/>
      <point x="359" y="534" type="line"/>
      <point x="33" y="534" type="line"/>
      <point x="13" y="405" type="line"/>
    </contour>
    <contour>
      <point x="196" y="649" type="move" name="top"/>
    </contour>
  </outline>
</glyph>
<glyph name="uni01AC" format="1">
  <advance width="521"/>
  <unicode hex="01AC"/>
  <outline>
    <contour>
      <point x="352" y="0" type="line"/>
      <point x="429" y="548" type="line"/>
      <point x="547" y="548" type="line"/>
      <point x="588" y="696" type="line"/>
      <point x="245" y="696" type="line"/>
      <point x="224" y="548" type="line"/>
      <point x="235" y="548" type="line"/>
      <point x="158" y="0" type="line"/>
    </contour>
    <contour>
      <point x="184" y="452" type="line"/>
      <point x="181" y="468"/>
      <point x="178" y="485"/>
      <point x="178" y="504" type="curve" smooth="yes"/>
      <point x="178" y="532"/>
      <point x="189" y="548"/>
      <point x="214" y="548" type="curve" smooth="yes"/>
      <point x="239" y="548" type="line"/>
      <point x="258" y="696" type="line"/>
      <point x="229" y="696" type="line" smooth="yes"/>
      <point x="120" y="696"/>
      <point x="39" y="625"/>
      <point x="39" y="510" type="curve" smooth="yes"/>
      <point x="39" y="467"/>
      <point x="48" y="437"/>
      <point x="58" y="408" type="curve"/>
    </contour>
    <contour>
      <point x="324" y="696" type="move" name="top"/>
    </contour>
    <contour>
      <point x="255" y="0" type="move" name="bottom"/>
    </contour>
  </outline>
</glyph>
<glyph name="uni01AD" format="1">
  <advance width="332"/>
  <unicode hex="01AD"/>
  <outline>
    <contour>
      <point x="75" y="516" type="line"/>
      <point x="29" y="174" type="line" smooth="yes"/>
      <point x="13" y="55"/>
      <point x="62" y="-20"/>
      <point x="175" y="-20" type="curve" smooth="yes"/>
      <point x="221" y="-20"/>
      <point x="274" y="-7"/>
      <point x="315" y="21" type="curve"/>
      <point x="274" y="138" type="line"/>
      <point x="262" y="132"/>
      <point x="253" y="129"/>
      <point x="241" y="129" type="curve" smooth="yes"/>
      <point x="222" y="129"/>
      <point x="212" y="143"/>
      <point x="216" y="174" type="curve" smooth="yes"/>
      <point x="262" y="516" type="line"/>
    </contour>
    <contour>
      <point x="33" y="534" type="line"/>
      <point x="13" y="405" type="line"/>
      <point x="319" y="405" type="line"/>
      <point x="359" y="534" type="line"/>
    </contour>
    <contour>
      <point x="262" y="516" type="line"/>
      <point x="272" y="599" type="line" smooth="yes"/>
      <point x="275" y="620"/>
      <point x="284" y="635"/>
      <point x="306" y="635" type="curve" smooth="yes"/>
      <point x="319" y="635"/>
      <point x="332" y="631"/>
      <point x="347" y="623" type="curve"/>
      <point x="411" y="725" type="line"/>
      <point x="384" y="745"/>
      <point x="341" y="763"/>
      <point x="287" y="763" type="curve" smooth="yes"/>
      <point x="167" y="763"/>
      <point x="98" y="697"/>
      <point x="83" y="578" type="curve" smooth="yes"/>
      <point x="75" y="516" type="line"/>
    </contour>
    <contour>
      <point x="233" y="744" type="move" name="top"/>
    </contour>
    <contour>
      <point x="129" y="0" type="move" name="bottom"/>
    </contour>
  </outline>
</glyph>
<glyph name="uni01B1" format="1">
  <advance width="574"/>
  <unicode hex="01B1"/>
  <outline>
    <contour>
      <point x="440" y="-20"/>
      <point x="568" y="146"/>
      <point x="568" y="366" type="curve" smooth="yes"/>
      <point x="568" y="458"/>
      <point x="533" y="518"/>
      <point x="476" y="559" type="curve"/>
      <point x="580" y="559" type="line"/>
      <point x="600" y="696" type="line"/>
      <point x="363" y="696" type="line"/>
      <point x="344" y="569" type="line"/>
      <point x="371" y="547"/>
      <point x="383" y="522"/>
      <point x="383" y="472" type="curve" smooth="yes"/>
      <point x="383" y="330"/>
      <point x="349" y="121"/>
      <point x="260" y="121" type="curve" smooth="yes"/>
      <point x="229" y="121"/>
      <point x="214" y="144"/>
      <point x="214" y="209" type="curve" smooth="yes"/>
      <point x="214" y="343"/>
      <point x="241" y="528"/>
      <point x="311" y="569" type="curve"/>
      <point x="330" y="696" type="line"/>
      <point x="93" y="696" type="line"/>
      <point x="73" y="560" type="line"/>
      <point x="178" y="560" type="line"/>
      <point x="65" y="491"/>
      <point x="17" y="386"/>
      <point x="17" y="242" type="curve" smooth="yes"/>
      <point x="17" y="93"/>
      <point x="94" y="-20"/>
      <point x="247" y="-20" type="curve" smooth="yes"/>
    </contour>
    <contour>
      <point x="347" y="696" type="move" name="top"/>
    </contour>
    <contour>
      <point x="247" y="0" type="move" name="bottom"/>
    </contour>
  </outline>
</glyph>
<glyph name="uni01B2" format="1">
  <advance width="526"/>
  <unicode hex="01B2"/>
  <outline>
    <contour>
      <point x="379" y="716"/>
      <point x="349" y="710"/>
      <point x="320" y="699" type="curve"/>
      <point x="324" y="579" type="line"/>
      <point x="327" y="580"/>
      <point x="332" y="581"/>
      <point x="337" y="581" type="curve" smooth="yes"/>
      <point x="347" y="581"/>
      <point x="353" y="575"/>
      <point x="351" y="559" type="curve" smooth="yes"/>
      <point x="309" y="252" type="line" smooth="yes"/>
      <point x="296" y="154"/>
      <point x="263" y="123"/>
      <point x="232" y="123" type="curve" smooth="yes"/>
      <point x="206" y="123"/>
      <point x="196" y="146"/>
      <point x="202" y="188" type="curve" smooth="yes"/>
      <point x="273" y="696" type="line"/>
      <point x="79" y="696" type="line"/>
      <point x="9" y="203" type="line" smooth="yes"/>
      <point x="-9" y="77"/>
      <point x="66" y="-19"/>
      <point x="212" y="-19" type="curve" smooth="yes"/>
      <point x="372" y="-19"/>
      <point x="480" y="78"/>
      <point x="504" y="256" type="curve" smooth="yes"/>
      <point x="542" y="534" type="line" smooth="yes"/>
      <point x="559" y="659"/>
      <point x="514" y="716"/>
      <point x="414" y="716" type="curve" smooth="yes"/>
    </contour>
    <contour>
      <point x="312" y="696" type="move" name="top"/>
    </contour>
    <contour>
      <point x="214" y="0" type="move" name="bottom"/>
    </contour>
  </outline>
</glyph>
<glyph name="uni01B3" format="1">
  <advance width="534"/>
  <unicode hex="01B3"/>
  <outline>
    <contour>
      <point x="317" y="0" type="line"/>
      <point x="353" y="257" type="line"/>
      <point x="492" y="549" type="line" smooth="yes"/>
      <point x="502" y="571"/>
      <point x="511" y="578"/>
      <point x="527" y="578" type="curve" smooth="yes"/>
      <point x="540" y="578"/>
      <point x="548" y="574"/>
      <point x="557" y="569" type="curve"/>
      <point x="619" y="678" type="line"/>
      <point x="590" y="700"/>
      <point x="554" y="716"/>
      <point x="505" y="716" type="curve" smooth="yes"/>
      <point x="412" y="716"/>
      <point x="360" y="672"/>
      <point x="331" y="577" type="curve" smooth="yes"/>
      <point x="277" y="402" type="line"/>
      <point x="246" y="697" type="line"/>
      <point x="42" y="697" type="line"/>
      <point x="159" y="257" type="line"/>
      <point x="123" y="0" type="line"/>
    </contour>
    <contour>
      <point x="330" y="696" type="move" name="top"/>
    </contour>
    <contour>
      <point x="220" y="0" type="move" name="bottom"/>
    </contour>
    <contour>
      <point x="43" y="696" type="move" name="topleft"/>
    </contour>
  </outline>
</glyph>
<glyph name="uni01B4" format="1">
  <advance width="453"/>
  <unicode hex="01B4"/>
  <outline>
    <contour>
      <point x="127" y="-221"/>
      <point x="248" y="-165"/>
      <point x="301" y="9" type="curve" smooth="yes"/>
      <point x="425" y="421" type="line" smooth="yes"/>
      <point x="432" y="444"/>
      <point x="439" y="451"/>
      <point x="453" y="451" type="curve" smooth="yes"/>
      <point x="461" y="451"/>
      <point x="468" y="449"/>
      <point x="472" y="447" type="curve"/>
      <point x="516" y="571" type="line"/>
      <point x="490" y="581"/>
      <point x="469" y="586"/>
      <point x="436" y="586" type="curve" smooth="yes"/>
      <point x="344" y="586"/>
      <point x="291" y="542"/>
      <point x="272" y="439" type="curve" smooth="yes"/>
      <point x="198" y="118" type="line"/>
      <point x="215" y="534" type="line"/>
      <point x="23" y="534" type="line"/>
      <point x="64" y="0" type="line"/>
      <point x="130" y="0" type="line"/>
      <point x="97" y="-68"/>
      <point x="57" y="-89"/>
      <point x="-27" y="-100" type="curve"/>
      <point x="-25" y="-227" type="line"/>
    </contour>
    <contour>
      <point x="270" y="534" type="move" name="top"/>
    </contour>
  </outline>
</glyph>
<glyph name="uni01B5" format="1">
  <advance width="457"/>
  <unicode hex="01B5"/>
  <outline>
    <contour>
      <point x="395" y="0" type="line"/>
      <point x="438" y="155" type="line"/>
      <point x="182" y="155" type="line"/>
      <point x="477" y="549" type="line"/>
      <point x="499" y="696" type="line"/>
      <point x="82" y="696" type="line"/>
      <point x="59" y="546" type="line"/>
      <point x="281" y="546" type="line"/>
      <point x="-14" y="145" type="line"/>
      <point x="-35" y="0" type="line"/>
    </contour>
    <contour>
      <point x="407" y="286" type="line"/>
      <point x="423" y="401" type="line"/>
      <point x="48" y="401" type="line"/>
      <point x="32" y="286" type="line"/>
    </contour>
    <contour>
      <point x="286" y="696" type="move" name="top"/>
    </contour>
    <contour>
      <point x="188" y="0" type="move" name="bottom"/>
    </contour>
  </outline>
</glyph>
<glyph name="uni01B6" format="1">
  <advance width="392"/>
  <unicode hex="01B6"/>
  <outline>
    <contour>
      <point x="336" y="0" type="line"/>
      <point x="370" y="131" type="line"/>
      <point x="174" y="131" type="line"/>
      <point x="401" y="413" type="line"/>
      <point x="418" y="534" type="line"/>
      <point x="54" y="534" type="line"/>
      <point x="35" y="405" type="line"/>
      <point x="211" y="405" type="line"/>
      <point x="-17" y="123" type="line"/>
      <point x="-35" y="0" type="line"/>
    </contour>
    <contour>
      <point x="358" y="222" type="line"/>
      <point x="375" y="323" type="line"/>
      <point x="29" y="323" type="line"/>
      <point x="13" y="222" type="line"/>
    </contour>
    <contour>
      <point x="235" y="534" type="move" name="top"/>
    </contour>
    <contour>
      <point x="160" y="0" type="move" name="bottom"/>
    </contour>
  </outline>
</glyph>
<glyph name="uni01B7" format="1">
  <advance width="470"/>
  <unicode hex="01B7"/>
  <outline>
    <contour>
      <point x="333" y="-19"/>
      <point x="461" y="74"/>
      <point x="461" y="244" type="curve" smooth="yes"/>
      <point x="461" y="349"/>
      <point x="398" y="406"/>
      <point x="294" y="406" type="curve"/>
      <point x="273" y="406" type="line"/>
      <point x="110" y="298" type="line"/>
      <point x="200" y="298" type="line" smooth="yes"/>
      <point x="234" y="298"/>
      <point x="263" y="281"/>
      <point x="263" y="232" type="curve" smooth="yes"/>
      <point x="263" y="166"/>
      <point x="226" y="123"/>
      <point x="185" y="123" type="curve" smooth="yes"/>
      <point x="144" y="123"/>
      <point x="120" y="141"/>
      <point x="88" y="179" type="curve"/>
      <point x="-22" y="90" type="line"/>
      <point x="19" y="25"/>
      <point x="77" y="-19"/>
      <point x="187" y="-19" type="curve" smooth="yes"/>
    </contour>
    <contour>
      <point x="110" y="298" type="line"/>
      <point x="259" y="338" type="line"/>
      <point x="466" y="562" type="line"/>
      <point x="487" y="696" type="line"/>
      <point x="101" y="696" type="line"/>
      <point x="79" y="557" type="line"/>
      <point x="264" y="557" type="line"/>
      <point x="126" y="402" type="line"/>
    </contour>
    <contour>
      <point x="294" y="696" type="move" name="top"/>
    </contour>
    <contour>
      <point x="196" y="0" type="move" name="bottom"/>
    </contour>
  </outline>
</glyph>
<glyph name="uni01B8" format="1">
  <advance width="473"/>
  <unicode hex="01B8"/>
  <outline>
    <contour>
      <point x="320" y="-19"/>
      <point x="390" y="23"/>
      <point x="445" y="88" type="curve"/>
      <point x="360" y="184" type="line"/>
      <point x="316" y="144"/>
      <point x="282" y="123"/>
      <point x="246" y="123" type="curve" smooth="yes"/>
      <point x="212" y="123"/>
      <point x="196" y="147"/>
      <point x="196" y="190" type="curve" smooth="yes"/>
      <point x="196" y="258"/>
      <point x="223" y="298"/>
      <point x="287" y="298" type="curve" smooth="yes"/>
      <point x="367" y="298" type="line"/>
      <point x="236" y="406" type="line"/>
      <point x="222" y="406" type="line"/>
      <point x="92" y="406"/>
      <point x="-6" y="317"/>
      <point x="-6" y="183" type="curve" smooth="yes"/>
      <point x="-6" y="60"/>
      <point x="73" y="-19"/>
      <point x="215" y="-19" type="curve" smooth="yes"/>
    </contour>
    <contour>
      <point x="271" y="557" type="line"/>
      <point x="466" y="557" type="line"/>
      <point x="488" y="696" type="line"/>
      <point x="103" y="696" type="line"/>
      <point x="82" y="562" type="line"/>
      <point x="246" y="338" type="line"/>
      <point x="366" y="298" type="line"/>
      <point x="383" y="400" type="line"/>
    </contour>
    <contour>
      <point x="297" y="696" type="move" name="top"/>
    </contour>
    <contour>
      <point x="199" y="0" type="move" name="bottom"/>
    </contour>
  </outline>
</glyph>
<glyph name="uni01B9" format="1">
  <advance width="439"/>
  <unicode hex="01B9"/>
  <outline>
    <contour>
      <point x="281" y="-226"/>
      <point x="352" y="-184"/>
      <point x="404" y="-121" type="curve"/>
      <point x="325" y="-26" type="line"/>
      <point x="280" y="-66"/>
      <point x="250" y="-83"/>
      <point x="216" y="-83" type="curve" smooth="yes"/>
      <point x="180" y="-83"/>
      <point x="158" y="-59"/>
      <point x="158" y="-4" type="curve" smooth="yes"/>
      <point x="158" y="70"/>
      <point x="193" y="111"/>
      <point x="243" y="111" type="curve" smooth="yes"/>
      <point x="329" y="111" type="line"/>
      <point x="206" y="216" type="line"/>
      <point x="191" y="216" type="line"/>
      <point x="46" y="206"/>
      <point x="-34" y="115"/>
      <point x="-34" y="-18" type="curve" smooth="yes"/>
      <point x="-34" y="-140"/>
      <point x="44" y="-226"/>
      <point x="179" y="-226" type="curve" smooth="yes"/>
    </contour>
    <contour>
      <point x="238" y="396" type="line"/>
      <point x="433" y="396" type="line"/>
      <point x="454" y="534" type="line"/>
      <point x="74" y="534" type="line"/>
      <point x="55" y="407" type="line"/>
      <point x="218" y="151" type="line"/>
      <point x="330" y="111" type="line"/>
      <point x="346" y="211" type="line"/>
    </contour>
    <contour>
      <point x="257" y="534" type="move" name="top"/>
    </contour>
  </outline>
</glyph>
<glyph name="uni01BA" format="1">
  <advance width="437"/>
  <unicode hex="01BA"/>
  <outline>
    <contour>
      <point x="150" y="-128" type="line"/>
      <point x="139" y="-118"/>
      <point x="134" y="-109"/>
      <point x="134" y="-97" type="curve" smooth="yes"/>
      <point x="134" y="-77"/>
      <point x="143" y="-66"/>
      <point x="224" y="-43" type="curve" smooth="yes"/>
      <point x="322" y="-15"/>
      <point x="409" y="34"/>
      <point x="409" y="155" type="curve" smooth="yes"/>
      <point x="409" y="235"/>
      <point x="357" y="280"/>
      <point x="280" y="280" type="curve" smooth="yes"/>
      <point x="275" y="280" type="line"/>
      <point x="413" y="416" type="line"/>
      <point x="431" y="534" type="line"/>
      <point x="49" y="534" type="line"/>
      <point x="29" y="405" type="line"/>
      <point x="217" y="405" type="line"/>
      <point x="89" y="276" type="line"/>
      <point x="74" y="181" type="line"/>
      <point x="166" y="181" type="line" smooth="yes"/>
      <point x="207" y="181"/>
      <point x="220" y="172"/>
      <point x="220" y="148" type="curve" smooth="yes"/>
      <point x="220" y="115"/>
      <point x="201" y="95"/>
      <point x="132" y="74" type="curve" smooth="yes"/>
      <point x="39" y="46"/>
      <point x="-28" y="8"/>
      <point x="-28" y="-84" type="curve" smooth="yes"/>
      <point x="-28" y="-151"/>
      <point x="29" y="-199"/>
      <point x="102" y="-226" type="curve"/>
    </contour>
    <contour>
      <point x="241" y="534" type="move" name="top"/>
    </contour>
    <contour>
      <point x="166" y="-215" type="move" name="bottom"/>
    </contour>
  </outline>
</glyph>
<glyph name="uni01BB" format="1">
  <advance width="437"/>
  <unicode hex="01BB"/>
  <outline>
    <contour>
      <point x="410" y="236" type="line"/>
      <point x="425" y="351" type="line"/>
      <point x="51" y="351" type="line"/>
      <point x="35" y="236" type="line"/>
    </contour>
    <component base="two"/>
  </outline>
</glyph>
<glyph name="uni01BD" format="1">
  <advance width="416"/>
  <unicode hex="01BD"/>
  <outline>
    <contour>
      <point x="79" y="534" type="line"/>
      <point x="35" y="217" type="line"/>
      <point x="151" y="217" type="line"/>
      <point x="161" y="223"/>
      <point x="173" y="228"/>
      <point x="184" y="228" type="curve" smooth="yes"/>
      <point x="199" y="228"/>
      <point x="207" y="218"/>
      <point x="207" y="192" type="curve" smooth="yes"/>
      <point x="207" y="148"/>
      <point x="192" y="118"/>
      <point x="161" y="118" type="curve" smooth="yes"/>
      <point x="129" y="118"/>
      <point x="107" y="137"/>
      <point x="83" y="162" type="curve"/>
      <point x="-23" y="67" type="line"/>
      <point x="20" y="16"/>
      <point x="70" y="-19"/>
      <point x="159" y="-19" type="curve" smooth="yes"/>
      <point x="279" y="-19"/>
      <point x="390" y="55"/>
      <point x="390" y="207" type="curve" smooth="yes"/>
      <point x="390" y="301"/>
      <point x="337" y="347"/>
      <point x="276" y="347" type="curve" smooth="yes"/>
      <point x="248" y="347"/>
      <point x="224" y="339"/>
      <point x="209" y="332" type="curve"/>
      <point x="219" y="405" type="line"/>
      <point x="366" y="405" type="line"/>
      <point x="409" y="534" type="line"/>
    </contour>
    <contour>
      <point x="244" y="534" type="move" name="top"/>
    </contour>
    <contour>
      <point x="169" y="0" type="move" name="bottom"/>
    </contour>
  </outline>
</glyph>
